<svg xmlns="http://www.w3.org/2000/svg" viewBox="30 103.8 540 391.8" enable-background="new 30 103.8 540 391.8"><path fill="#999" d="M132.6 247.8v60.6h36v-60.6h-36zm354.6 80.4H411v-37.8H189v37.8h-76.2v-37.8H30v181.2c0 13.2 10.8 24 24 24h492c13.2 0 24-10.8 24-24V290.4h-82.8v37.8zm-56.4-80.4v60.6h36v-60.6h-36zM546 181.2H445.2v-20.4h-44.4v-33c0-13.2-10.8-24-24-24H223.2c-13.2 0-24 10.8-24 24v33h-44.4v20.4H54c-13.2 0-24 10.8-24 24v60.6h82.8v-38.4h76.8v38.4H411v-38.4h76.8v38.4H570v-60c0-13.8-10.8-24.6-24-24.6zm-177.6 0H231.6v-45h136.8v45z"/></svg>