<svg xmlns="http://www.w3.org/2000/svg" viewBox="11.7 9.6 574.6 582.9" enable-background="new 11.7 9.6 574.6 582.9"><g fill="#999"><path d="M351.6 315c-3-4.8-9-6.6-13.8-4.8l-22.2 8.4c-4.8 1.8-12 0-15.6-3.6l-16.2-15.6c-4.2-3.6-6-10.2-4.8-15l7.2-22.2c1.8-4.8-1.2-10.8-6-13.2l-44.4-16.8c-5.4-1.2-10.8 1.2-13.2 6l-9.6 21.6c-2.4 4.8-8.4 8.4-13.8 8.4l-22.8.6c-5.4.6-11.4-3-13.8-7.8l-10.2-21c-2.4-4.8-8.4-7.2-13.8-6 0 0-12 3.6-22.2 8.4-10.2 4.8-21 11.4-21 11.4-4.8 3-6.6 9-4.8 14.4l8.4 22.2c1.8 4.8 0 12-3.6 15.6l-15.6 16.2c-3.6 4.2-10.2 6-15 4.8l-22.2-7.2c-4.8-1.8-10.8 1.2-13.2 6L12 369c-1.2 5.4 1.2 10.8 6 13.2l21.6 9.6c4.8 2.4 8.4 8.4 8.4 13.8l.6 22.8c.6 5.4-3 11.4-7.8 13.8l-21 10.8c-4.8 2.4-7.2 8.4-6 13.8 0 0 3.6 12 8.4 22.2s11.4 21 11.4 21c3 4.2 9.6 6 14.4 4.2l22.2-8.4c4.8-1.8 12 0 15.6 3.6L102 525c4.2 3.6 6 10.2 4.8 15l-7.2 22.2c-1.8 4.8 1.2 10.8 6 13.2l44.4 16.8c5.4 1.2 10.8-1.2 13.2-6l9.6-21.6c2.4-4.8 8.4-8.4 13.8-8.4l22.8-.6c5.4-.6 11.4 3 13.8 7.8l10.8 21c2.4 4.8 8.4 7.2 13.8 6 0 0 12-3.6 22.2-8.4 10.2-4.8 21-11.4 21-11.4 4.8-3 6.6-9 4.8-14.4l-8.4-21.6c-1.8-4.8 0-12 3.6-15.6l15.6-16.2c3.6-4.2 10.2-6 15-4.8l22.2 7.2c4.8 1.8 10.8-1.2 13.2-6l16.8-44.4c1.2-5.4-1.2-10.8-6-13.2l-21.6-9.6c-4.8-2.4-8.4-8.4-8.4-13.8l-.6-22.8c-.6-5.4 3-11.4 7.8-13.8l21-10.8c4.8-2.4 7.2-8.4 6-13.8 0 0-3.6-12-8.4-22.2-5.4-9.6-12-19.8-12-19.8zM212.4 455.4c-24 10.8-51.6 0-62.4-24-10.8-24 0-51.6 24-62.4 24-10.8 51.6 0 62.4 24 10.2 23.4 0 51.6-24 62.4zM585 150c-.6-4.8-4.8-8.4-9.6-9l-20.4-1.2c-4.8 0-9.6-4.2-10.8-8.4l-7.8-18c-2.4-4.2-1.2-10.2 1.8-13.8l13.8-15c3-3.6 3-9 0-12.6l-29.4-28.8c-3.6-3-9-3-12.6 0L495 57c-3.6 3-9.6 4.2-13.8 1.8l-18-7.2c-4.2-1.2-8.4-6.6-8.4-10.8l-1.2-20.4c0-4.8-4.2-9-9-9.6 0 0-10.8-1.2-20.4-1.2-9.6 0-20.4 1.8-20.4 1.8-4.8.6-8.4 4.8-9 9.6l-1.2 20.4c0 4.8-4.2 9.6-8.4 10.8l-18 7.8c-4.2 2.4-10.2 1.2-13.8-1.8l-15-13.8c-3.6-3-9-3-12.6 0L297 73.8c-3 3.6-3 9 0 12.6l13.8 15c3 3.6 4.2 9.6 1.8 13.8l-7.2 18c-1.2 4.2-6.6 8.4-10.8 8.4l-20.4 1.2c-4.8 0-9 4.2-9.6 9 0 0-1.2 10.8-1.2 20.4s1.8 20.4 1.8 20.4c.6 4.8 4.8 8.4 9.6 9l20.4 1.2c4.8 0 9.6 4.2 10.8 8.4l7.8 18c1.8 4.2 1.2 10.2-1.8 13.8l-14.4 15c-3 3.6-3 9 0 12.6l29.4 28.8c3.6 3 9 3 12.6 0l15-13.8c3.6-3 9.6-4.2 13.8-1.8l18 7.2c4.2 1.2 8.4 6.6 8.4 10.8l1.2 20.4c0 4.8 4.2 9 9 9.6 0 0 10.8 1.2 20.4 1.2 9.6 0 20.4-1.8 20.4-1.8 4.8-.6 8.4-4.8 9-9.6l1.2-20.4c0-4.8 4.2-9.6 8.4-10.8l18-7.8c4.2-1.8 10.2-1.2 13.8 1.8l15 13.8c3.6 3 9 3 12.6 0l28.8-29.4c3-3.6 3-9 0-12.6l-13.8-15c-3-3.6-4.2-9.6-1.8-13.8l7.2-18c1.2-4.2 6.6-8.4 10.8-8.4l20.4-1.2c4.8 0 9-4.2 9.6-9 0 0 1.2-10.8 1.2-20.4.6-9.6-1.2-20.4-1.2-20.4zm-160.2 68.4c-25.8 0-46.8-21-47.4-46.8 0-25.8 21-46.8 46.8-47.4 25.8 0 46.8 21 47.4 46.8 0 26.4-21 47.4-46.8 47.4z"/></g></svg>