<svg xmlns="http://www.w3.org/2000/svg" viewBox="0 179.2 600 327.8" enable-background="new 0 179.2 600 327.8"><path fill="#999" d="M468 245.8c-22.2 0-43.8 5.4-63 16.2-24-49.8-74.4-82.8-130.8-82.8-76.8 0-140.4 60.6-144 136.8-35.4 4.2-66 27.6-78.6 60.6-30 7.8-51.6 34.2-51.6 66 0 37.2 30.6 67.8 67.8 67.8h198V404.2h-33c-6.6 0-8.4-7.2-4.8-11.4 19.8-24 47.4-47.4 67.2-71.4 1.2-1.8 3-2.4 4.8-2.4s3.6.6 4.8 2.4c19.8 24 47.4 47.4 67.2 71.4 3.6 4.2 1.8 11.4-4.8 11.4h-33v106.2H468c73.2 0 132-59.4 132-132s-59.4-132.6-132-132.6z"/></svg>