<svg xmlns="http://www.w3.org/2000/svg" viewBox="0 0 100 100" enable-background="new 0 0 100 100"><g fill="#fff"><ellipse cx="41" cy="15.2" rx="38.8" ry="10"/><path d="M40.9 48.7c4.7 0 7.9-.1 8.7-.2.3-3.2 2-9.2 7.3-13.5 2.8-2 7.4-5.6 16-4.7.9.2 3.8.4 6.8 2.1 0-.7.1-12 .1-12S79.6 31.2 41 31.2C2.4 31.2 2.2 20.4 2.2 20.4v14.4s0 13.9 38.7 13.9zM40.9 72.3c14.4 0 16-.6 21-2.2-4-2-6.4-4.2-9.2-7.8-1.5-2.5-2.4-4.4-3.2-8.9-1.6.2-3.9.2-8.5.2-38.6 0-38.8-12.7-38.8-12.7v16.6s0 14.8 38.7 14.8zM68.5 71.6c-.5.2-4.1 5.1-27.5 5.1-38.6.1-38.8-13.3-38.8-13.3l.1 17.3s0 15 38.6 15 38.9-14.8 38.9-14.8V69.4c-4 1.9-7.6 2.5-11.3 2.2zM98 73.4l-7.5-7.9-7.3-3.2c2.7-3.1 4.1-6.8 4.2-10.7.1-4.2-1.4-8.5-4.6-11.8-3.1-3.3-7.3-4.9-11.6-5-8.9-.2-16.6 7.2-16.8 16.1-.2 9 7 16.7 16 16.9 3.9.1 7.7-1.2 10.9-3.7l2.9 7.6 7.5 7.8c.7.6 1.7.9 2.6.9 2.4.1 4.6-1.9 4.6-4.3 0-1-.3-1.9-.9-2.7zM77.8 58.6c-2 2-4.7 2.9-7.3 2.8-5.4-.1-10-4.8-9.9-10.4.1-5.4 4.8-10 10.3-9.9 5.6.1 10.1 4.8 10 10.3 0 2.7-1.1 5.3-3.1 7.2z"/></g></svg>