<svg xmlns="http://www.w3.org/2000/svg" viewBox="0 0 543.5 220.4" enable-background="new 0 0 543.5 220.4"><g><path fill="#85BAE4" d="M598.4-270.1c-3.2 1.5-7 .2-8.5-2.9-1.5-3.2-.2-7 2.9-8.5 3.2-1.5 7-.2 8.5 2.9 1.6 3.1.2 6.9-2.9 8.5zm5.5-32.9c-.9-1.8-3.1-2.6-4.9-1.7-1.8.9-2.6 3.1-1.7 4.9.9 1.8 3.1 2.6 4.9 1.7 1.9-.9 2.6-3.1 1.7-4.9zm-14.8 72.5c3.5-1.7 4.9-5.9 3.2-9.3-1.7-3.5-5.9-4.9-9.3-3.2-3.5 1.7-4.9 5.9-3.2 9.3 1.7 3.4 5.8 4.9 9.3 3.2zm-34-2.6c2.9-1.4 4-4.8 2.6-7.7-1.4-2.9-4.8-4-7.7-2.6-2.9 1.4-4 4.8-2.6 7.7 1.4 2.8 4.9 4 7.7 2.6zm23.9 21.6c-.6-1.2-2-1.6-3.1-1.1-1.2.6-1.6 2-1.1 3.1.6 1.2 2 1.6 3.1 1.1 1.2-.5 1.7-1.9 1.1-3.1zm23.5-50.2c1.9-.9 2.7-3.2 1.7-5.1-.9-1.9-3.2-2.7-5.1-1.7-1.9.9-2.7 3.2-1.7 5.1 1 1.8 3.2 2.6 5.1 1.7zm-48.1-.1c4.4-2.1 6.2-7.4 4-11.8-2.1-4.4-7.4-6.2-11.8-4-4.4 2.1-6.2 7.4-4 11.8 2.2 4.3 7.4 6.1 11.8 4zm-16.5 20c1.7-.8 2.4-2.9 1.6-4.6-.8-1.7-2.9-2.4-4.6-1.6-1.7.8-2.4 2.9-1.6 4.6.8 1.8 2.9 2.5 4.6 1.6zm36.9-58.9c1.6-.8 2.2-2.7 1.5-4.3-.8-1.6-2.7-2.2-4.3-1.5-1.6.8-2.2 2.7-1.5 4.3.8 1.7 2.7 2.3 4.3 1.5zm-8.1 7.8c1.4-.7 1.9-2.3 1.3-3.6-.7-1.4-2.3-1.9-3.7-1.3-1.3.7-1.9 2.3-1.3 3.6.7 1.4 2.3 1.9 3.7 1.3zm37.6 71.3c.7-.3 1-1.1.6-1.8-.3-.7-1.1-1-1.8-.6-.7.3-1 1.1-.6 1.8.3.7 1.1.9 1.8.6zm24.4-16.9c3.2-1.5 4.5-5.4 2.9-8.5-1.5-3.2-5.4-4.5-8.5-2.9-3.2 1.5-4.5 5.4-2.9 8.5 1.5 3.1 5.3 4.4 8.5 2.9zm-4.7-44.8c2-1 2.8-3.3 1.8-5.3-1-2-3.3-2.8-5.3-1.8-2 1-2.8 3.3-1.8 5.3 1 1.9 3.3 2.7 5.3 1.8z"/><path fill="#2775BB" d="M573.9-255.8c-2.4-4.8-.4-10.6 4.4-13 4.8-2.4 10.6-.4 13 4.4 2.4 4.8.4 10.6-4.4 13-4.9 2.4-10.7.4-13-4.4zm-7.4 1.5c3.2-1.5 4.5-5.4 2.9-8.5-1.5-3.2-5.4-4.5-8.5-2.9-3.2 1.5-4.5 5.4-2.9 8.5 1.6 3.2 5.4 4.5 8.5 2.9zm6-20.8c3.6-1.8 5.1-6.1 3.3-9.7-1.8-3.6-6.1-5.1-9.7-3.3-3.6 1.8-5.1 6.1-3.3 9.7 1.8 3.6 6.1 5.1 9.7 3.3zm22.5-16.7c-1.1-2.3-3.8-3.2-6.1-2.1s-3.2 3.8-2.1 6.1 3.8 3.2 6.1 2.1c2.3-1.2 3.2-3.9 2.1-6.1zm-52 37.2c2-1 2.8-3.3 1.8-5.3-1-1.9-3.3-2.8-5.3-1.8-2 1-2.8 3.3-1.8 5.3.9 1.9 3.3 2.8 5.3 1.8zm-2.6-22c2-1 2.8-3.3 1.8-5.3-1-2-3.3-2.8-5.3-1.8-2 1-2.8 3.3-1.8 5.3 1 2 3.4 2.8 5.3 1.8zm77.5 54.5c1.8-.9 2.6-3.1 1.7-4.9-.9-1.8-3.1-2.6-4.9-1.7-1.8.9-2.5 3.1-1.7 4.9.9 1.9 3.1 2.6 4.9 1.7zm-41.7 4.4c3.1-1.5 4.4-5.2 2.8-8.3-1.5-3.1-5.2-4.3-8.3-2.8-3.1 1.5-4.4 5.2-2.9 8.3 1.6 3.1 5.3 4.3 8.4 2.8zm47.9-61.1c-3 1.5-4.3 5.1-2.8 8.1s5.1 4.3 8.1 2.8 4.3-5.1 2.8-8.1c-1.5-3.1-5.1-4.3-8.1-2.8zm-69.5-18.8c1.3-.6 1.8-2.2 1.2-3.4-.6-1.3-2.2-1.8-3.4-1.2-1.3.6-1.8 2.1-1.2 3.4.6 1.3 2.2 1.9 3.4 1.2zm4.2 18.4c1.3-.6 1.8-2.2 1.2-3.4-.6-1.3-2.2-1.8-3.4-1.2-1.3.6-1.8 2.2-1.2 3.4.5 1.3 2.1 1.9 3.4 1.2zm7 47.2c1.3-.7 1.9-2.3 1.2-3.6-.7-1.3-2.3-1.9-3.6-1.2-1.3.7-1.9 2.3-1.2 3.6.6 1.3 2.2 1.8 3.6 1.2z"/><path fill="#304094" d="M531.5-263.1c-.6-1.2-.1-2.7 1.1-3.2 1.2-.6 2.7-.1 3.2 1.1.6 1.2.1 2.7-1.1 3.2-1.2.6-2.6.1-3.2-1.1zm77.7 35.3c3.8-1.9 5.4-6.5 3.5-10.3-1.9-3.8-6.5-5.4-10.3-3.5-3.8 1.9-5.4 6.5-3.5 10.3 1.8 3.8 6.5 5.4 10.3 3.5zm-2.8-19c-.5-1.1-1.8-1.5-2.8-1-1 .5-1.5 1.8-1 2.8.5 1.1 1.8 1.5 2.8 1 1.1-.5 1.6-1.8 1-2.8zM568-216.2c-.5-1.1-1.8-1.5-2.8-1-1.1.5-1.5 1.8-1 2.8.5 1 1.8 1.5 2.8 1 1-.5 1.5-1.7 1-2.8zm22.9-83.1c-.5-1-1.8-1.5-2.8-1-1 .5-1.5 1.8-1 2.8.5 1.1 1.8 1.5 2.8 1 1.1-.5 1.5-1.8 1-2.8zm22 28.1c2.2-1.1 3.1-3.7 2-5.9s-3.7-3.1-5.9-2-3.1 3.7-2 5.9c1.1 2.1 3.7 3 5.9 2zm-59.1-14.5c2.8-1.4 3.9-4.7 2.6-7.5-1.4-2.8-4.7-3.9-7.5-2.6-2.8 1.4-3.9 4.7-2.6 7.5 1.3 2.8 4.7 4 7.5 2.6zm65.1 7c.8-.4 1.2-1.4.8-2.2-.4-.8-1.4-1.2-2.2-.8-.8.4-1.2 1.4-.8 2.2.3.9 1.3 1.2 2.2.8z"/><path fill="#2669B3" d="M593-249.9c-1.4-2.8-.2-6.1 2.6-7.5 2.8-1.4 6.1-.2 7.5 2.6 1.4 2.8.2 6.1-2.6 7.5-2.8 1.4-6.2.2-7.5-2.6zm-23.4 9.4c2.8-1.4 3.9-4.7 2.6-7.5-1.4-2.8-4.7-3.9-7.5-2.6-2.8 1.4-3.9 4.7-2.6 7.5 1.4 2.9 4.8 4 7.5 2.6zm27.7 30c2-1 2.8-3.3 1.8-5.3-1-2-3.3-2.8-5.3-1.8-2 1-2.8 3.3-1.8 5.3.9 2 3.3 2.8 5.3 1.8zm12.6-71.7c3.6-1.8 5.1-6.1 3.3-9.7-1.8-3.6-6.1-5.1-9.7-3.3-3.6 1.8-5.1 6.1-3.3 9.7 1.7 3.6 6.1 5.1 9.7 3.3zM549.7-245c2.6-1.2 3.6-4.3 2.4-6.9-1.3-2.6-4.3-3.6-6.9-2.4-2.6 1.2-3.6 4.3-2.4 6.9 1.2 2.6 4.3 3.7 6.9 2.4zm-5.7 13.8c2-1 2.9-3.5 1.9-5.5s-3.5-2.9-5.5-1.9-2.9 3.5-1.9 5.5 3.4 2.9 5.5 1.9zm52.5 10.2c2.5-1.2 3.5-4.2 2.3-6.7-1.2-2.5-4.2-3.5-6.7-2.3-2.5 1.2-3.5 4.2-2.3 6.7 1.2 2.5 4.2 3.5 6.7 2.3zm-15.2-67.6c2.8-1.4 3.9-4.7 2.6-7.5-1.4-2.8-4.7-3.9-7.5-2.6-2.8 1.4-3.9 4.7-2.6 7.5 1.3 2.8 4.7 3.9 7.5 2.6zm7.9-14.2c2.3-1.1 3.3-3.9 2.2-6.3-1.1-2.3-3.9-3.3-6.3-2.2-2.3 1.1-3.3 3.9-2.1 6.3 1.1 2.4 3.9 3.3 6.2 2.2z"/><path fill="#3DA6DE" d="M581.2-277.3c-.8-1.7-.1-3.7 1.5-4.5 1.7-.8 3.7-.1 4.5 1.5.8 1.7.1 3.7-1.5 4.5-1.7.8-3.7.1-4.5-1.5zm30.4-18.6c.8 1.7 2.8 2.3 4.5 1.5 1.7-.8 2.3-2.8 1.5-4.5-.8-1.7-2.8-2.3-4.5-1.5-1.6.8-2.3 2.8-1.5 4.5zm-47.1-9.4c-.9-1.8-3.1-2.5-4.9-1.7-1.8.9-2.6 3.1-1.7 4.9.9 1.8 3.1 2.6 4.9 1.7 1.9-.9 2.6-3.1 1.7-4.9zm50.1 62.1c2-1 2.8-3.3 1.8-5.3-1-2-3.3-2.8-5.3-1.8-2 1-2.8 3.3-1.8 5.3 1 1.9 3.4 2.7 5.3 1.8zm-53.5 26.1c4-1.9 5.6-6.8 3.7-10.7-2-4-6.8-5.6-10.7-3.7-4 2-5.6 6.8-3.7 10.7 1.9 4 6.7 5.6 10.7 3.7zm-2.1-30.6c1.2-.6 1.7-2 1.1-3.3-.6-1.2-2-1.7-3.3-1.1-1.2.6-1.7 2-1.1 3.3.6 1.2 2.1 1.7 3.3 1.1zm27.5 31.2c1.3-.6 1.8-2.2 1.2-3.4-.6-1.3-2.2-1.8-3.4-1.2-1.3.6-1.8 2.2-1.2 3.4.6 1.3 2.2 1.8 3.4 1.2zm-11.7-16c1.7-.8 2.4-2.9 1.6-4.7-.8-1.7-2.9-2.4-4.7-1.6-1.7.8-2.4 2.9-1.6 4.7.9 1.7 3 2.4 4.7 1.6zm-12.3-54.9c.7-.3 1-1.2.6-1.8-.3-.7-1.2-1-1.8-.6-.7.3-1 1.1-.6 1.8.3.7 1.1 1 1.8.6zm9.5 19.6c1.5-.7 2.1-2.5 1.4-4-.7-1.5-2.5-2.1-4-1.4-1.5.7-2.1 2.5-1.4 4 .8 1.5 2.6 2.1 4 1.4zm36.7 52.8c1.5-.7 2.1-2.5 1.4-4-.7-1.5-2.5-2.1-4-1.4-1.5.7-2.1 2.5-1.4 4 .7 1.5 2.5 2.1 4 1.4zM578-244c1.4-.7 1.9-2.3 1.3-3.7-.7-1.4-2.3-1.9-3.7-1.3-1.4.7-1.9 2.3-1.3 3.7.7 1.4 2.3 2 3.7 1.3z"/><circle fill="#F26722" cx="614.3" cy="-260" r="8.3"/><path fill="#F26722" d="M630.5-256.6c2-1 2.8-3.3 1.8-5.3-1-2-3.3-2.8-5.3-1.8-2 1-2.8 3.3-1.8 5.3 1 2 3.3 2.8 5.3 1.8z"/></g><g><path fill="#DCDBDB" d="M280.7 207.7h95.5v2.5h-95.5z"/><path fill="#BCBEC0" d="M280.6 207.7l10.3-1.6h75l10.2 1.6z"/><path fill="#B7B7B7" d="M357 176.1h-57.1l-1.9 6.2h60.8z"/><path fill="#E2E2E2" d="M298 182.3l-7.1 23.8h75l-7.1-23.8z"/><path fill="#464E5D" d="M473.5 167.2c0 4.9-4 8.9-8.9 8.9H192.2c-4.9 0-8.9-4-8.9-8.9V8.9c0-4.9 4-8.9 8.9-8.9h272.4c4.9 0 8.9 4 8.9 8.9v158.3z"/><circle fill="#fff" cx="328.4" cy="170.1" r="2.7"/><circle fill="#fff" cx="328.4" cy="5.9" r=".6"/><path fill="#E3E5E5" d="M462.6 25c0 1-2.3 1.8-5.1 1.8H199.3c-2.8 0-5.1-.8-5.1-1.8V13.6c0-1 2.3-1.8 5.1-1.8h258.1c2.8 0 5.1.8 5.1 1.8V25z"/><path fill="#F4F4F4" d="M194.3 20.5h268.3v143.8H194.3z"/><circle fill="#F16673" cx="198.6" cy="16.3" r="1.3"/><circle fill="#FFD14E" cx="203" cy="16.3" r="1.3"/><circle fill="#6CC175" cx="207.3" cy="16.3" r="1.3"/><path fill="#D8D8D8" d="M203 25.4h251.7v61.2H203z"/><path fill="#BCBEC0" d="M202.8 91.4H284v67.3h-81.2zM287.8 91.4H369v67.3h-81.2zM372.8 91.4H454v67.3h-81.2z"/><path fill="#fff" d="M194.5 164.3h267.7V12.8z" opacity=".2"/><g fill="#85BAE4"><path d="M387.8 126.1h6.8v21.6h-6.8zM399 121.9h6.8v25.8H399zM410.2 128.5h6.8v19.2h-6.8zM421.3 121.3h6.8v26.4h-6.8zM432.5 107.3h6.8v40.4h-6.8z"/></g><g><path fill="#FFFAF1" d="M337.5 136.8c-.7-4.7-4.7-8.3-9.5-8.3-5.3 0-9.6 4.3-9.6 9.6 0 1.1.2 2.2.5 3.2 1.3 3.7 4.9 6.4 9.1 6.4 4.3 0 8-2.9 9.2-6.8.3-.9.4-1.8.4-2.8 0-.4 0-.9-.1-1.3z"/><path fill="#F16723" d="M337.5 136.8l-9.5 1.3 9.2 2.8c.3-.9.4-1.8.4-2.8 0-.4 0-.9-.1-1.3z"/><path fill="#85BAE4" d="M337.5 136.8c-.7-4.7-4.7-8.3-9.5-8.3-5.3 0-9.6 4.3-9.6 9.6 0 1.1.2 2.2.5 3.2l9.1-3.2 9.5-1.3z"/><path fill="#fff" d="M319 141.3c1.3 3.7 4.9 6.4 9.1 6.4 4.3 0 8-2.9 9.2-6.8l-9.2-2.8-9.1 3.2z"/><path fill="#FFFAF1" d="M363 136.8c-.7-4.7-4.7-8.3-9.5-8.3-5.3 0-9.6 4.3-9.6 9.6 0 1.1.2 2.2.5 3.2 1.3 3.7 4.9 6.4 9.1 6.4 4.3 0 8-2.9 9.2-6.8.3-.9.4-1.8.4-2.8 0-.4 0-.9-.1-1.3z"/><path fill="#85BAE4" d="M353.5 128.5c-5.3 0-9.6 4.3-9.6 9.6 0 1.1.2 2.2.5 3.2l9.1-3.2s.1-4.8 0-9.6z"/><path fill="#F16723" d="M352.1 128.6l1.4 9.5 4.5-8.4c-1.1-.6-2.4-1.1-4.6-1.1-.4-.1-.8 0-1.3 0z"/><path fill="#fff" d="M344.5 141.3c1.3 3.7 4.9 6.4 9.1 6.4 4.3 0 8-2.9 9.2-6.8l-9.2-2.8-9.1 3.2z"/><path fill="#F1F2F2" d="M312 136.8c-.7-4.7-4.7-8.3-9.5-8.3-5.3 0-9.6 4.3-9.6 9.6 0 1.1.2 2.2.5 3.2 1.3 3.7 4.9 6.4 9.1 6.4 4.3 0 8-2.9 9.2-6.8.3-.9.4-1.8.4-2.8 0-.4 0-.9-.1-1.3z"/><path fill="#F16723" d="M302.5 128.5c-5.3 0-9.6 4.3-9.6 9.6 0 1.1.2 2.2.5 3.2l9.1-3.2s.1-4.8 0-9.6z"/><path fill="#fff" d="M301.1 128.6l1.4 9.5 4.5-8.4c-1.1-.6-2.4-1.1-4.6-1.1-.4-.1-.8 0-1.3 0z"/><path fill="#85BAE4" d="M293.5 141.3c1.3 3.7 4.9 6.4 9.1 6.4 4.3 0 8-2.9 9.2-6.8l-9.2-2.8-9.1 3.2z"/><path fill="#FFFAF1" d="M326.7 102.6c-4.7.7-8.3 4.7-8.3 9.5 0 5.3 4.3 9.6 9.6 9.6 1.1 0 2.2-.2 3.2-.5 3.7-1.3 6.4-4.9 6.4-9.1 0-4.3-2.9-8-6.8-9.2-.9-.3-1.8-.4-2.8-.4-.4 0-.9.1-1.3.1z"/><path fill="#F16723" d="M326.7 102.6l1.3 9.5 2.8-9.2c-.9-.3-1.8-.4-2.8-.4-.4 0-.9.1-1.3.1z"/><path fill="#85BAE4" d="M326.7 102.6c-4.7.7-8.3 4.7-8.3 9.5 0 5.3 4.3 9.6 9.6 9.6 1.1 0 2.2-.2 3.2-.5l-3.2-9.1-1.3-9.5z"/><path fill="#fff" d="M331.2 121.2c3.7-1.3 6.4-4.9 6.4-9.1 0-4.3-2.9-8-6.8-9.2l-2.8 9.2 3.2 9.1z"/><path fill="#FFFAF1" d="M293 113.4c.7 4.7 4.7 8.3 9.5 8.3 5.3 0 9.6-4.3 9.6-9.6 0-1.1-.2-2.2-.5-3.2-1.3-3.7-4.9-6.4-9.1-6.4-4.3 0-8 2.9-9.2 6.8-.3.9-.4 1.8-.4 2.8 0 .5.1.9.1 1.3z"/><path fill="#85BAE4" d="M302.5 121.7c5.3 0 9.6-4.3 9.6-9.6 0-1.1-.2-2.2-.5-3.2l-9.1 3.2v9.6z"/><path fill="#F16723" d="M303.9 121.6l-1.4-9.5-4.5 8.4c1.1.6 2.4 1.1 4.6 1.1.4.1.9.1 1.3 0z"/><path fill="#fff" d="M311.6 109c-1.3-3.7-4.9-6.4-9.1-6.4-4.3 0-8 2.9-9.2 6.8l9.2 2.8 9.1-3.2z"/><path fill="#F1F2F2" d="M354.9 121.6c4.7-.7 8.3-4.7 8.3-9.5 0-5.3-4.3-9.6-9.6-9.6-1.1 0-2.2.2-3.2.5-3.7 1.3-6.4 4.9-6.4 9.1 0 4.3 2.9 8 6.8 9.2.9.3 1.8.4 2.8.4.4 0 .8 0 1.3-.1z"/><path fill="#85BAE4" d="M363.1 112.1c0-5.3-4.3-9.6-9.6-9.6-1.1 0-2.2.2-3.2.5l3.2 9.1s4.8.1 9.6 0z"/><path fill="#F16723" d="M363 110.7l-9.5 1.4 8.4 4.5c.6-1.1 1.1-2.4 1.1-4.6.1-.4.1-.8 0-1.3z"/><path fill="#85BAE4" d="M350.4 103.1c-3.7 1.3-6.4 4.9-6.4 9.1 0 4.3 2.9 8 6.8 9.2l2.8-9.2-3.2-9.1z"/></g><g stroke="#808285" stroke-width="1.499" stroke-miterlimit="10" fill="none"><path d="M203 36.5h251.7M203 46.2h251.7M203 56h251.7M203 65.7h251.7M203 75.5h251.7"/></g></g><g><path stroke="#fff" stroke-width="2" stroke-miterlimit="10" fill="none" d="M202.7 140.9h11.4l4-12.4 7.5 3.8 9.7-12.4 14 6.7 10.6-24.5 21.8-5h2.4"/><path stroke="#85BAE4" stroke-width="2" stroke-miterlimit="10" d="M265.4 106" fill="none"/><circle fill="#F16723" cx="259.9" cy="102.1" r="2.3"/><circle fill="#F16723" cx="235.4" cy="119.6" r="2.3"/></g><g><g><path fill="#464E5D" d="M28.9 209.8V86.3c0-3.6 3-6.6 6.6-6.6h178.8c3.6 0 6.6 3 6.6 6.6v123.5h-192z"/><path fill="#D6D6D6" d="M0 205.2c2.4 3.6 6.4 5.9 11 5.9h227.9c4.6 0 8.6-2.4 11-5.9H0z"/><path fill="#D8DCE3" d="M37.3 88.3h175.2v110.3H37.3z"/><path fill="#AAAFB5" d="M107.9 205.2c.7 1.3 2 2.1 3.5 2.1h27c1.5 0 2.9-.9 3.5-2.1h-34z"/><circle fill="#fff" cx="124.9" cy="84.1" r=".8"/><circle fill="#fff" cx="159.3" cy="136.9" r="1"/><path fill="#fff" d="M37.3 198.6h175.2V88.3z" opacity=".2"/></g><circle fill="#fff" cx="124.9" cy="84.7" r=".4"/><path fill="#E3E5E5" d="M212.3 97.1c0 .7-1.5 1.2-3.3 1.2H40.8c-1.8 0-3.3-.5-3.3-1.2v-7.4c0-.7 1.5-1.2 3.3-1.2H209c1.8 0 3.3.5 3.3 1.2v7.4z"/><path fill="#F4F4F4" d="M37.5 94.2h174.8v104.5H37.5z"/><circle fill="#F16673" cx="40.1" cy="91.4" r=".8"/><circle fill="#FFD14E" cx="43" cy="91.4" r=".8"/><circle fill="#6CC175" cx="45.9" cy="91.4" r=".8"/><path stroke="#85BAE4" stroke-width="1.303" stroke-miterlimit="10" d="M83.9 149.9" fill="none"/><path fill="#BCBEC0" d="M43.1 148.3H96v43.9H43.1zM98.5 148.3h52.9v43.9H98.5zM153.8 148.3h52.9v43.9h-52.9z"/><path stroke="#fff" stroke-width="1.303" stroke-miterlimit="10" fill="none" d="M43 180.5h7.5l2.6-8 4.9 2.4 6.3-8.1 9.1 4.4 7-15.9 14.1-3.3h1.6"/><circle fill="#F16723" cx="80.4" cy="155.3" r="1.5"/><circle fill="#F16723" cx="64.4" cy="166.7" r="1.5"/><g fill="#85BAE4"><path d="M163.7 170.9h4.4v14h-4.4zM171 168.2h4.4V185H171zM178.2 172.5h4.4V185h-4.4zM185.5 167.8h4.4V185h-4.4zM192.8 158.7h4.4V185h-4.4z"/></g><path fill="#FFFAF1" d="M130.9 177.8c-.4-3-3-5.4-6.2-5.4-3.4 0-6.2 2.8-6.2 6.2 0 .7.1 1.4.3 2.1.9 2.4 3.2 4.2 5.9 4.2 2.8 0 5.2-1.9 6-4.4.2-.6.3-1.2.3-1.8 0-.3-.1-.6-.1-.9z"/><path fill="#F16723" d="M130.9 177.8l-6.2.9 6 1.8c.2-.6.3-1.2.3-1.8 0-.3-.1-.6-.1-.9z"/><path fill="#85BAE4" d="M130.9 177.8c-.4-3-3-5.4-6.2-5.4-3.4 0-6.2 2.8-6.2 6.2 0 .7.1 1.4.3 2.1l5.9-2.1 6.2-.8z"/><path fill="#fff" d="M118.8 180.8c.9 2.4 3.2 4.2 5.9 4.2 2.8 0 5.2-1.9 6-4.4l-6-1.8-5.9 2z"/><path fill="#FFFAF1" d="M147.5 177.8c-.4-3-3-5.4-6.2-5.4-3.4 0-6.2 2.8-6.2 6.2 0 .7.1 1.4.3 2.1.9 2.4 3.2 4.2 5.9 4.2 2.8 0 5.2-1.9 6-4.4.2-.6.3-1.2.3-1.8 0-.3 0-.6-.1-.9z"/><path fill="#85BAE4" d="M141.3 172.5c-3.4 0-6.2 2.8-6.2 6.2 0 .7.1 1.4.3 2.1l5.9-2.1s.1-3.1 0-6.2z"/><path fill="#F16723" d="M140.4 172.5l.9 6.2 3-5.5c-.7-.4-1.6-.7-3-.7h-.9z"/><path fill="#fff" d="M135.4 180.8c.9 2.4 3.2 4.2 5.9 4.2 2.8 0 5.2-1.9 6-4.4l-6-1.8-5.9 2z"/><path fill="#F1F2F2" d="M114.3 177.8c-.4-3-3-5.4-6.2-5.4-3.4 0-6.2 2.8-6.2 6.2 0 .7.1 1.4.3 2.1.9 2.4 3.2 4.2 5.9 4.2 2.8 0 5.2-1.9 6-4.4.2-.6.3-1.2.3-1.8-.1-.3-.1-.6-.1-.9z"/><path fill="#F16723" d="M108.1 172.5c-3.4 0-6.2 2.8-6.2 6.2 0 .7.1 1.4.3 2.1l5.9-2.1v-6.2z"/><path fill="#fff" d="M107.2 172.5l.9 6.2 3-5.5c-.7-.4-1.6-.7-3-.7h-.9z"/><path fill="#85BAE4" d="M102.2 180.8c.9 2.4 3.2 4.2 5.9 4.2 2.8 0 5.2-1.9 6-4.4l-6-1.8-5.9 2z"/><path fill="#FFFAF1" d="M123.8 155.6c-3 .4-5.4 3-5.4 6.2 0 3.4 2.8 6.2 6.2 6.2.7 0 1.4-.1 2.1-.3 2.4-.9 4.2-3.2 4.2-5.9 0-2.8-1.9-5.2-4.4-6-.6-.2-1.2-.3-1.8-.3-.3 0-.6.1-.9.1z"/><path fill="#F16723" d="M123.8 155.6l.9 6.2 1.8-6c-.6-.2-1.2-.3-1.8-.3-.3 0-.6.1-.9.1z"/><path fill="#85BAE4" d="M123.8 155.6c-3 .4-5.4 3-5.4 6.2 0 3.4 2.8 6.2 6.2 6.2.7 0 1.4-.1 2.1-.3l-2.1-5.9-.8-6.2z"/><path fill="#fff" d="M126.8 167.7c2.4-.9 4.2-3.2 4.2-5.9 0-2.8-1.9-5.2-4.4-6l-1.8 6 2 5.9z"/><path fill="#FFFAF1" d="M101.9 162.6c.4 3 3 5.4 6.2 5.4 3.4 0 6.2-2.8 6.2-6.2 0-.7-.1-1.4-.3-2.1-.9-2.4-3.2-4.2-5.9-4.2-2.8 0-5.2 1.9-6 4.4-.2.6-.3 1.2-.3 1.8.1.4.1.7.1.9z"/><path fill="#85BAE4" d="M108.1 168c3.4 0 6.2-2.8 6.2-6.2 0-.7-.1-1.4-.3-2.1l-5.9 2.1v6.2z"/><path fill="#F16723" d="M109 168l-.9-6.2-3 5.5c.7.4 1.6.7 3 .7h.9z"/><path fill="#fff" d="M114 159.7c-.9-2.4-3.2-4.2-5.9-4.2-2.8 0-5.2 1.9-6 4.4l6 1.8 5.9-2z"/><path fill="#F1F2F2" d="M142.2 168c3-.4 5.4-3 5.4-6.2 0-3.4-2.8-6.2-6.2-6.2-.7 0-1.4.1-2.1.3-2.4.9-4.2 3.2-4.2 5.9 0 2.8 1.9 5.2 4.4 6 .6.2 1.2.3 1.8.3.3-.1.6-.1.9-.1z"/><path fill="#85BAE4" d="M147.6 161.8c0-3.4-2.8-6.2-6.2-6.2-.7 0-1.4.1-2.1.3l2.1 5.9h6.2z"/><path fill="#F16723" d="M147.5 160.9l-6.2.9 5.5 3c.4-.7.7-1.6.7-3 .1-.4.1-.6 0-.9z"/><path fill="#85BAE4" d="M139.3 155.9c-2.4.9-4.2 3.2-4.2 5.9 0 2.8 1.9 5.2 4.4 6l1.8-6-2-5.9z"/><path fill="#D8D8D8" d="M42.9 100.9h164v42.8h-164z"/><g stroke="#808285" stroke-width=".974" stroke-miterlimit="10" fill="none"><path d="M43.2 109.6h163.7M43.2 115.9h163.7M43.2 122.3h163.7M43.2 128.6h163.7M43.2 134.9h163.7"/></g><path fill="#fff" d="M37.1 198.2h175.2V88z" opacity=".2"/></g><g><g><path fill="#A8AAAC" d="M516.6 203.3c0 4.8-4 8.8-8.8 8.8h-70.6c-4.8 0-8.8-4-8.8-8.8V92.9c0-4.8 4-8.8 8.8-8.8h70.6c4.8 0 8.8 4 8.8 8.8v110.4z"/><path fill="#464E5D" d="M516.6 202.7c0 4.8-4 8.8-8.8 8.8h-70.6c-4.8 0-8.8-4-8.8-8.8V92.3c0-4.8 4-8.8 8.8-8.8h70.6c4.8 0 8.8 4 8.8 8.8v110.4z"/><path fill="#F4F4F4" d="M432.1 101h80.8v93h-80.8z"/><path fill="#3E3E3E" d="M516.3 103.7h.6v5.2h-.6zM516.3 112.5h.6v5.2h-.6zM516.3 121.3h.6v5.2h-.6z"/><circle fill="#fff" cx="480.4" cy="90.1" r="1.1"/><path fill="#fff" d="M477.2 90.8h-13.1c-.4 0-.7-.3-.7-.7 0-.4.3-.7.7-.7h13.1c.4 0 .7.3.7.7 0 .4-.3.7-.7.7zM472.5 200.1c-1.7 0-3 1.4-3 3 0 1.7 1.4 3 3 3 1.7 0 3-1.4 3-3 0-1.7-1.4-3-3-3z"/></g><circle fill="#fff" cx="518.2" cy="96.8" r=".4"/><path fill="#D8D8D8" d="M434.3 103.7h76.5v42.8h-76.5z"/><path stroke="#85BAE4" stroke-width="1.303" stroke-miterlimit="10" d="M477.2 162" fill="none"/><path fill="#BCBEC0" d="M434.8 148.9h75.6v42.5h-75.6z"/><path fill="#FFFAF1" d="M479.7 179.6c-.5-3.5-3.5-6.2-7.1-6.2-4 0-7.2 3.2-7.2 7.2 0 .8.1 1.6.4 2.4 1 2.8 3.6 4.8 6.8 4.8 3.2 0 6-2.1 6.8-5.1.2-.7.3-1.4.3-2.1.1-.3 0-.6 0-1z"/><path fill="#F16723" d="M479.7 179.6l-7.1 1 6.8 2.1c.2-.7.3-1.4.3-2.1.1-.3 0-.6 0-1z"/><path fill="#85BAE4" d="M479.7 179.6c-.5-3.5-3.5-6.2-7.1-6.2-4 0-7.2 3.2-7.2 7.2 0 .8.1 1.6.4 2.4l6.8-2.4 7.1-1z"/><path fill="#fff" d="M465.9 183c1 2.8 3.6 4.8 6.8 4.8 3.2 0 6-2.1 6.8-5.1l-6.8-2.1-6.8 2.4z"/><path fill="#FFFAF1" d="M471.6 154.1c-3.5.5-6.2 3.5-6.2 7.1 0 4 3.2 7.2 7.2 7.2.8 0 1.6-.1 2.4-.4 2.8-1 4.8-3.6 4.8-6.8 0-3.2-2.1-6-5.1-6.8-.7-.2-1.4-.3-2.1-.3h-1z"/><path fill="#F16723" d="M471.6 154.1l1 7.1 2.1-6.8c-.7-.2-1.4-.3-2.1-.3h-1z"/><path fill="#85BAE4" d="M471.6 154.1c-3.5.5-6.2 3.5-6.2 7.1 0 4 3.2 7.2 7.2 7.2.8 0 1.6-.1 2.4-.4l-2.4-6.8-1-7.1z"/><path fill="#fff" d="M475 168c2.8-1 4.8-3.6 4.8-6.8 0-3.2-2.1-6-5.1-6.8l-2.1 6.8 2.4 6.8z"/><path fill="#F1F2F2" d="M457.2 179.6c-.5-3.5-3.5-6.2-7.1-6.2-4 0-7.2 3.2-7.2 7.2 0 .8.1 1.6.4 2.4 1 2.8 3.6 4.8 6.8 4.8 3.2 0 6-2.1 6.8-5.1.2-.7.3-1.4.3-2.1v-1z"/><path fill="#F16723" d="M450.1 173.5c-4 0-7.2 3.2-7.2 7.2 0 .8.1 1.6.4 2.4l6.8-2.4v-7.2z"/><path fill="#fff" d="M449 173.5l1 7.1 3.4-6.3c-.8-.4-1.8-.9-3.4-.9-.3.1-.6.1-1 .1z"/><path fill="#85BAE4" d="M443.3 183c1 2.8 3.6 4.8 6.8 4.8 3.2 0 6-2.1 6.8-5.1l-6.8-2.1-6.8 2.4z"/><path fill="#FFFAF1" d="M443 162.2c.5 3.5 3.5 6.2 7.1 6.2 4 0 7.2-3.2 7.2-7.2 0-.8-.1-1.6-.4-2.4-1-2.8-3.6-4.8-6.8-4.8-3.2 0-6 2.1-6.8 5.1-.2.7-.3 1.4-.3 2.1-.1.4-.1.7 0 1z"/><path fill="#85BAE4" d="M450.1 168.4c4 0 7.2-3.2 7.2-7.2 0-.8-.1-1.6-.4-2.4l-6.8 2.4s-.1 3.6 0 7.2z"/><path fill="#F16723" d="M451.1 168.3l-1-7.1-3.4 6.3c.8.4 1.8.9 3.4.9.4 0 .7-.1 1-.1z"/><path fill="#fff" d="M456.8 158.9c-1-2.8-3.6-4.8-6.8-4.8-3.2 0-6 2.1-6.8 5.1l6.8 2.1 6.8-2.4z"/><path fill="#FFFAF1" d="M502.2 179.6c-.5-3.5-3.5-6.2-7.1-6.2-4 0-7.2 3.2-7.2 7.2 0 .8.1 1.6.4 2.4 1 2.8 3.6 4.8 6.8 4.8 3.2 0 6-2.1 6.8-5.1.2-.7.3-1.4.3-2.1.1-.3.1-.6 0-1z"/><path fill="#85BAE4" d="M495.1 173.5c-4 0-7.2 3.2-7.2 7.2 0 .8.1 1.6.4 2.4l6.8-2.4c0-.1.1-3.7 0-7.2z"/><path fill="#F16723" d="M494.1 173.5l1 7.1 3.4-6.3c-.8-.4-1.8-.9-3.4-.9-.3.1-.7.1-1 .1z"/><path fill="#fff" d="M488.4 183c1 2.8 3.6 4.8 6.8 4.8 3.2 0 6-2.1 6.8-5.1l-6.8-2.1-6.8 2.4z"/><path fill="#F1F2F2" d="M496.1 168.3c3.5-.5 6.2-3.5 6.2-7.1 0-4-3.2-7.2-7.2-7.2-.8 0-1.6.1-2.4.4-2.8 1-4.8 3.6-4.8 6.8 0 3.2 2.1 6 5.1 6.8.7.2 1.4.3 2.1.3.4.1.7 0 1 0z"/><path fill="#85BAE4" d="M502.3 161.2c0-4-3.2-7.2-7.2-7.2-.8 0-1.6.1-2.4.4l2.4 6.8s3.6.1 7.2 0z"/><path fill="#F16723" d="M502.2 160.2l-7.1 1 6.3 3.4c.4-.8.9-1.8.9-3.4 0-.4 0-.7-.1-1z"/><path fill="#85BAE4" d="M492.8 154.5c-2.8 1-4.8 3.6-4.8 6.8 0 3.2 2.1 6 5.1 6.8l2.1-6.8-2.4-6.8z"/><g stroke="#808285" stroke-width=".665" stroke-miterlimit="10" fill="none"><path d="M434.4 112.5h76.3M434.4 118.8h76.3M434.4 125.1h76.3M434.4 131.5h76.3M434.4 137.8h76.3"/></g><path fill="#fff" d="M432.1 194h80.8v-93z" opacity=".2"/></g><g><g><path fill="#A8AAAC" d="M543.3 214.7c0 3.1-2.5 5.6-5.6 5.6h-26.8c-3.1 0-5.6-2.5-5.6-5.6v-70.5c0-3.1 2.5-5.6 5.6-5.6h26.8c3.1 0 5.6 2.5 5.6 5.6v70.5z"/><path fill="#464E5D" d="M543.3 214.3c0 3.1-2.5 5.6-5.6 5.6h-26.8c-3.1 0-5.6-2.5-5.6-5.6v-70.5c0-3.1 2.5-5.6 5.6-5.6h26.8c3.1 0 5.6 2.5 5.6 5.6v70.5z"/><circle fill="#fff" cx="524.3" cy="214.6" r="1.9"/><path fill="#F4F4F4" d="M507.6 149.4H541v59.4h-33.4z"/><path fill="#3E3E3E" d="M543.1 151.1h.4v3.3h-.4zM543.1 156.7h.4v3.3h-.4zM543.1 162.4h.4v3.3h-.4z"/><circle fill="#fff" cx="530.5" cy="142.4" r=".7"/><path fill="#fff" d="M528.4 142.9H520c-.2 0-.4-.2-.4-.4s.2-.4.4-.4h8.4c.2 0 .4.2.4.4.1.2-.1.4-.4.4z"/><path fill="#EE4D50" d="M517.2 181.3z"/></g><path fill="#D8D8D8" d="M509.3 151.2h30.1v26.9h-30.1z"/><path stroke="#85BAE4" stroke-width=".817" stroke-miterlimit="10" d="M536.2 187.8" fill="none"/><path stroke="#808285" stroke-width=".613" stroke-linecap="round" stroke-linejoin="round" stroke-miterlimit="10" d="M553.1 175.1" fill="none"/><path fill="#BCBEC0" d="M509.4 180h29.9v26.6h-29.9z"/><g stroke="#808285" stroke-width=".367" stroke-miterlimit="10" fill="none"><path d="M509.4 154.8h29.9M509.4 159.7h29.9M509.4 164.7h29.9M509.4 169.6h29.9M509.4 174.5h29.9"/></g><g fill="#85BAE4"><path d="M512.3 194.5h3.2v10.1h-3.2zM517.6 192.5h3.2v12h-3.2zM522.8 195.6h3.2v9h-3.2zM528 192.2h3.2v12.3H528zM533.2 185.7h3.2v18.9h-3.2z"/></g><path fill="#fff" d="M507.7 208.8h33.4v-59.4z" opacity=".2"/></g></svg>