<svg xmlns="http://www.w3.org/2000/svg" viewBox="111.6 43.2 378.6 517.8" enable-background="new 111.6 43.2 378.6 517.8"><path fill="#999" d="M443.4 312c-8.4-25.2-42-40.8-65.4-51-9.6-4.2-35.4-10.8-38.4-22.8-4.8-18.6 13.8-33 21.6-47.4 8.4-15.6 15.6-36 17.4-54 4.8-62.4-33.6-99-88.2-93-40.2 4.8-64.2 34.2-66.6 72.6-2.4 39 12 67.8 27.6 89.4 6.6 10.2 13.2 16.2 12.6 27-1.2 13.2-15.6 16.8-25.2 21-12 4.8-24.6 12-31.2 15.6-21 11.4-43.8 25.2-49.2 44.4H444c-.6-.6-.6-1.2-.6-1.8zM478.2 318H123.6c-6.6 0-12 5.4-12 12l24 202.2c0 6.6 5.4 12 12 12h306.6c6.6 0 12-5.4 12-12l24-202.2c0-6.6-5.4-12-12-12zm-174 124.2c-5.4 0-9.6-4.2-9.6-9.6 0-5.4 4.2-9.6 9.6-9.6s9.6 4.2 9.6 9.6c0 4.8-4.2 9.6-9.6 9.6zM456 549H142.8c-3.6 0-6 3-6 6 0 3.6 3 6 6 6H456c3.6 0 6-3 6-6 0-3.6-2.4-6-6-6z"/></svg>