<svg xmlns="http://www.w3.org/2000/svg" viewBox="0 0 341.7 100" enable-background="new 0 0 341.7 100"><g fill="#2C6CB4"><path d="M2134.4-41.7h3.9c1 0 1.9.3 2.4.8.4.4.6.9.6 1.5 0 1.2-.7 1.8-1.5 2.1 1.1.3 2 1 2 2.2 0 1.6-1.3 2.5-3.3 2.5h-4.1v-9.1zm3.8 4.1c1.2 0 2.1-.6 2.1-1.6 0-.9-.7-1.5-2-1.5h-2.8v3.2h2.7zm.3 4.2c1.4 0 2.3-.6 2.3-1.6s-.8-1.6-2.4-1.6h-2.9v3.2h3zM2146.9-41.7h1v9.2h-1v-9.2zM2153.1-37.1c0-2.6 1.9-4.8 4.7-4.8 2.8 0 4.7 2.2 4.7 4.7s-1.9 4.7-4.7 4.7c-2.9.1-4.7-2-4.7-4.6zm8.2 0c0-2.1-1.5-3.8-3.6-3.8s-3.6 1.7-3.6 3.8c0 2.1 1.5 3.8 3.6 3.8s3.6-1.7 3.6-3.8zM2167.5-41.7h1l3.3 5 3.3-5h1v9.2h-1v-7.4l-3.3 4.9h-.1l-3.3-4.9v7.4h-1v-9.2zM2181.7-41.7h6.6v.9h-5.6v3.1h5v.9h-5v3.2h5.7v.9h-6.7v-9zM2193.4-41.7h3.2c2.9 0 4.9 2 4.9 4.6 0 2.6-2 4.6-4.9 4.6h-3.2v-9.2zm3.2 8.2c2.3 0 3.8-1.6 3.8-3.6s-1.5-3.6-3.8-3.6h-2.1v7.3h2.1zM2206.6-41.7h1v9.2h-1v-9.2zM2212.8-37.1c0-2.6 1.9-4.8 4.6-4.8 1.7 0 2.7.6 3.6 1.5l-.7.8c-.8-.7-1.6-1.3-2.9-1.3-2 0-3.5 1.7-3.5 3.8 0 2.1 1.5 3.8 3.5 3.8 1.3 0 2.1-.5 3-1.3l.7.7c-1 1-2 1.6-3.7 1.6-2.7-.1-4.6-2.1-4.6-4.8zM2229.1-41.7h1l4.2 9.2h-1.1l-1.1-2.4h-5l-1.1 2.4h-1.1l4.2-9.2zm2.6 5.8l-2.1-4.7-2.1 4.7h4.2zM2239-41.7h1v8.2h5.2v1h-6.2v-9.2zM2260.1-41.7h1l4.2 9.2h-1.1l-1.1-2.4h-5l-1.1 2.4h-1.1l4.2-9.2zm2.6 5.8l-2.1-4.7-2.1 4.7h4.2zM2270-41.7h1l5.8 7.3v-7.3h1v9.2h-.8l-6-7.5v7.5h-1v-9.2zM2286.6-41.7h1l4.2 9.2h-1.1l-1.1-2.4h-5l-1.1 2.4h-1.1l4.2-9.2zm2.5 5.8l-2.1-4.7-2.1 4.7h4.2zM2296.4-41.7h1v8.2h5.2v1h-6.2v-9.2zM2308.6-36.1l-3.8-5.5h1.3l3.1 4.6 3.1-4.6h1.2l-3.8 5.5v3.6h-1v-3.6zM2320.4-40.7h-3.1v-1h7.2v1h-3.1v8.2h-1v-8.2zM2329.4-41.7h1v9.2h-1v-9.2zM2335.6-37.1c0-2.6 1.9-4.8 4.6-4.8 1.7 0 2.7.6 3.6 1.5l-.7.8c-.8-.7-1.6-1.3-2.9-1.3-2 0-3.5 1.7-3.5 3.8 0 2.1 1.5 3.8 3.5 3.8 1.3 0 2.1-.5 3-1.3l.7.7c-1 1-2 1.6-3.7 1.6-2.6-.1-4.6-2.1-4.6-4.8zM2348-33.9l.6-.8c1 .9 1.9 1.3 3.1 1.3 1.2 0 2-.7 2-1.6 0-.9-.5-1.3-2.4-1.7-2.1-.5-3.1-1.1-3.1-2.6 0-1.4 1.3-2.5 3-2.5 1.3 0 2.3.4 3.2 1.1l-.6.8c-.9-.7-1.7-1-2.6-1-1.2 0-2 .7-2 1.5 0 .9.5 1.3 2.5 1.8 2 .4 3 1.2 3 2.6 0 1.6-1.3 2.6-3.1 2.6-1.4 0-2.5-.5-3.6-1.5z"/></g><path fill="#404041" d="M2134.4-75.4h9.7c5.8 0 9.7 3.1 9.7 8.2v.1c0 5.6-4.7 8.5-10.2 8.5h-6.3v9.1h-2.9v-25.9zm9.3 14.1c4.3 0 7.1-2.3 7.1-5.7v-.1c0-3.7-2.8-5.6-7-5.6h-6.5v11.4h6.4zM2159.4-75.4h2.9v25.9h-2.9v-25.9zM2168.8-62.4c0-7.4 5.5-13.5 13.1-13.5 4.7 0 7.5 1.7 10.1 4.1l-2 2.1c-2.2-2.1-4.6-3.6-8.1-3.6-5.7 0-10 4.7-10 10.6v.1c0 6 4.3 10.7 10 10.7 3.6 0 5.9-1.4 8.4-3.7l1.9 1.9c-2.7 2.7-5.7 4.6-10.4 4.6-7.5 0-13-5.8-13-13.3zM2195.3-62.4c0-7.2 5.4-13.5 13.2-13.5 7.9 0 13.2 6.2 13.2 13.3v.1c0 7.1-5.4 13.4-13.2 13.4-7.9 0-13.2-6.1-13.2-13.3zm23.4 0c0-6-4.3-10.8-10.2-10.8-5.9 0-10.1 4.7-10.1 10.6v.1c0 5.9 4.3 10.7 10.2 10.7 5.9 0 10.1-4.7 10.1-10.6z"/><path fill="#2C6CB4" d="M2227.9-75.4h18.6v2.7h-15.7v9.2h14v2.7h-14v11.3h-2.9v-25.9zM2252.2-75.4h18.7v2.7h-15.8v8.8h14.1v2.7h-14.1v9.1h16v2.7h-18.9v-26zM2277-75.4h3l9.4 14.1 9.4-14.1h3v25.9h-2.9v-21l-9.4 13.9h-.1l-9.4-13.8v20.9h-2.8v-25.9zM2315.9-72.7h-8.7v-2.7h20.4v2.7h-8.7v23.2h-3v-23.2zM2330.1-62.4c0-7.2 5.4-13.5 13.2-13.5 7.9 0 13.2 6.2 13.2 13.3v.1c0 7.1-5.4 13.4-13.2 13.4-7.9 0-13.2-6.1-13.2-13.3zm23.4 0c0-6-4.3-10.8-10.2-10.8-5.9 0-10.1 4.7-10.1 10.6v.1c0 5.9 4.3 10.7 10.2 10.7 5.9 0 10.1-4.7 10.1-10.6z"/><g><path fill="#84B9E3" d="M2086.1-68.1c-2.8 1.4-6.3.2-7.7-2.6-1.4-2.8-.2-6.3 2.6-7.7 2.8-1.4 6.3-.2 7.7 2.6 1.4 2.9.2 6.4-2.6 7.7zm5-29.6c-.8-1.6-2.8-2.3-4.4-1.5-1.6.8-2.3 2.8-1.5 4.4.8 1.6 2.8 2.3 4.4 1.5 1.6-.8 2.3-2.8 1.5-4.4zm-13.4 65.3c3.1-1.5 4.4-5.3 2.9-8.4-1.5-3.1-5.3-4.4-8.4-2.9-3.1 1.5-4.4 5.3-2.9 8.4 1.5 3.2 5.3 4.5 8.4 2.9zm-30.6-2.3c2.6-1.3 3.6-4.4 2.4-6.9-1.3-2.6-4.4-3.6-6.9-2.4-2.6 1.3-3.6 4.4-2.4 6.9 1.2 2.6 4.3 3.7 6.9 2.4zm21.5 19.5c-.5-1-1.8-1.5-2.8-1-1.1.5-1.5 1.8-1 2.8.5 1.1 1.8 1.5 2.8 1 1.1-.5 1.5-1.8 1-2.8zm21.2-45.3c1.7-.8 2.4-2.9 1.6-4.6-.8-1.7-2.9-2.4-4.6-1.6-1.7.8-2.4 2.9-1.6 4.6.8 1.8 2.9 2.5 4.6 1.6zm-43.4 0c3.9-1.9 5.6-6.7 3.6-10.6-1.9-3.9-6.7-5.6-10.6-3.6-3.9 1.9-5.6 6.7-3.6 10.6 1.9 3.9 6.7 5.5 10.6 3.6zm-14.9 18c1.5-.8 2.2-2.6 1.4-4.2-.8-1.5-2.6-2.2-4.2-1.4-1.5.8-2.2 2.6-1.4 4.2.8 1.5 2.7 2.2 4.2 1.4zm33.3-53.1c1.4-.7 2-2.4 1.3-3.8s-2.4-2-3.8-1.3-2 2.4-1.3 3.8c.6 1.4 2.4 2 3.8 1.3zm-7.3 7c1.2-.6 1.7-2.1 1.1-3.3-.6-1.2-2.1-1.7-3.3-1.1-1.2.6-1.7 2.1-1.1 3.3.6 1.2 2.1 1.7 3.3 1.1zm33.9 64.3c.6-.3.9-1 .6-1.6-.3-.6-1-.9-1.6-.6-.6.3-.9 1-.6 1.6.2.6 1 .9 1.6.6zm22-15.3c2.8-1.4 4-4.8 2.6-7.7-1.4-2.8-4.8-4-7.7-2.6-2.8 1.4-4 4.8-2.6 7.7 1.4 2.8 4.8 4 7.7 2.6zm-4.3-40.4c1.8-.9 2.5-3 1.6-4.8-.9-1.8-3-2.5-4.7-1.6-1.8.9-2.5 3-1.6 4.7.8 1.9 3 2.6 4.7 1.7z"/><path fill="#2875BA" d="M2064-55.2c-2.1-4.3-.3-9.6 4-11.7 4.3-2.1 9.6-.3 11.7 4 2.1 4.3.3 9.6-4 11.7-4.4 2.1-9.6.4-11.7-4zm-6.6 1.4c2.8-1.4 4-4.8 2.6-7.7-1.4-2.8-4.8-4-7.7-2.6-2.8 1.4-4 4.8-2.6 7.7 1.4 2.8 4.8 4 7.7 2.6zm5.4-18.7c3.3-1.6 4.6-5.5 3-8.8-1.6-3.3-5.5-4.6-8.8-3-3.3 1.6-4.6 5.5-3 8.8 1.6 3.2 5.5 4.6 8.8 3zm20.2-15.1c-1-2-3.4-2.9-5.5-1.9-2 1-2.9 3.5-1.9 5.5s3.5 2.9 5.5 1.9c2.1-1 2.9-3.5 1.9-5.5zm-46.9 33.5c1.8-.9 2.5-3 1.6-4.8-.9-1.8-3-2.5-4.7-1.6-1.8.9-2.5 3-1.6 4.8.8 1.8 2.9 2.5 4.7 1.6zm-2.3-19.8c1.8-.9 2.5-3 1.6-4.8-.9-1.8-3-2.5-4.8-1.6-1.8.9-2.5 3-1.6 4.8.9 1.8 3.1 2.5 4.8 1.6zm69.8 49.2c1.6-.8 2.3-2.8 1.5-4.4-.8-1.6-2.8-2.3-4.4-1.5-1.6.8-2.3 2.8-1.5 4.4.9 1.6 2.8 2.3 4.4 1.5zm-37.6 3.9c2.8-1.4 3.9-4.7 2.6-7.5-1.4-2.8-4.7-3.9-7.5-2.6-2.8 1.4-3.9 4.7-2.6 7.5 1.4 2.8 4.8 4 7.5 2.6zm43.2-55.1c-2.7 1.3-3.8 4.6-2.5 7.3 1.3 2.7 4.6 3.8 7.3 2.5 2.7-1.3 3.8-4.6 2.5-7.3-1.3-2.7-4.6-3.8-7.3-2.5zm-62.6-16.9c1.1-.6 1.6-1.9 1.1-3.1-.6-1.1-1.9-1.6-3.1-1.1-1.1.6-1.6 1.9-1.1 3.1.6 1.2 2 1.7 3.1 1.1zm3.7 16.6c1.2-.6 1.6-2 1.1-3.1-.6-1.2-2-1.6-3.1-1.1-1.2.6-1.6 2-1.1 3.1.6 1.2 2 1.7 3.1 1.1zm6.4 42.5c1.2-.6 1.7-2 1.1-3.3-.6-1.2-2-1.7-3.3-1.1-1.2.6-1.7 2.1-1.1 3.3.6 1.2 2.1 1.7 3.3 1.1z"/><path fill="#304094" d="M2025.8-61.7c-.5-1.1-.1-2.4 1-2.9s2.4-.1 2.9 1 .1 2.4-1 2.9-2.4 0-2.9-1zm70 31.8c3.5-1.7 4.9-5.9 3.2-9.3-1.7-3.5-5.9-4.9-9.3-3.2-3.5 1.7-4.9 5.9-3.2 9.3 1.7 3.5 5.9 4.9 9.3 3.2zm-2.5-17.1c-.5-1-1.6-1.3-2.6-.9-.9.5-1.3 1.6-.9 2.6.5.9 1.6 1.3 2.6.9 1-.6 1.4-1.7.9-2.6zm-34.7 27.6c-.5-.9-1.6-1.3-2.6-.9-.9.5-1.3 1.6-.9 2.6.5.9 1.6 1.3 2.6.9 1-.5 1.4-1.7.9-2.6zm20.7-75c-.5-.9-1.6-1.3-2.6-.9-.9.5-1.3 1.6-.9 2.6.5.9 1.6 1.3 2.6.9 1-.5 1.4-1.6.9-2.6zm19.8 25.4c2-1 2.8-3.3 1.8-5.3-1-2-3.3-2.8-5.3-1.8-2 1-2.8 3.3-1.8 5.3 1 1.9 3.4 2.7 5.3 1.8zm-53.3-13.1c2.5-1.2 3.5-4.3 2.3-6.8-1.2-2.5-4.2-3.5-6.8-2.3-2.5 1.2-3.5 4.3-2.3 6.8 1.3 2.5 4.3 3.6 6.8 2.3zm58.7 6.3c.8-.4 1.1-1.3.7-2-.4-.7-1.3-1.1-2-.7-.7.4-1.1 1.3-.7 2 .4.8 1.3 1.1 2 .7z"/><path fill="#2669B2" d="M2081.2-49.8c-1.2-2.5-.2-5.5 2.3-6.8 2.5-1.2 5.5-.2 6.8 2.3 1.2 2.5.2 5.5-2.3 6.8-2.6 1.3-5.6.2-6.8-2.3zm-21 8.5c2.5-1.2 3.5-4.3 2.3-6.8-1.2-2.5-4.3-3.5-6.8-2.3-2.5 1.2-3.5 4.3-2.3 6.8 1.2 2.5 4.3 3.5 6.8 2.3zm24.8 27c1.8-.9 2.5-3 1.6-4.8-.9-1.8-3-2.5-4.8-1.6-1.8.9-2.5 3-1.6 4.7 1 1.9 3.1 2.6 4.8 1.7zm11.4-64.6c3.3-1.6 4.6-5.5 3-8.8-1.6-3.2-5.5-4.6-8.8-3-3.3 1.6-4.6 5.5-3 8.8 1.6 3.2 5.6 4.5 8.8 3zm-54.3 33.5c2.3-1.1 3.3-3.9 2.1-6.2-1.1-2.3-3.9-3.3-6.2-2.1-2.3 1.1-3.3 3.9-2.1 6.2 1.2 2.3 3.9 3.2 6.2 2.1zM2037-33c1.8-.9 2.6-3.1 1.7-5-.9-1.8-3.1-2.6-5-1.7-1.8.9-2.6 3.1-1.7 5 1 1.8 3.2 2.6 5 1.7zm47.3 9.2c2.2-1.1 3.2-3.8 2.1-6s-3.8-3.2-6-2.1-3.2 3.8-2.1 6c1.1 2.3 3.8 3.2 6 2.1zm-13.7-60.9c2.5-1.2 3.5-4.3 2.3-6.8-1.2-2.5-4.3-3.5-6.8-2.3-2.5 1.2-3.5 4.3-2.3 6.8 1.3 2.4 4.3 3.5 6.8 2.3zm7.2-12.8c2.1-1 3-3.6 1.9-5.7-1-2.1-3.6-3-5.7-1.9-2.1 1-3 3.6-1.9 5.7 1.1 2 3.6 2.9 5.7 1.9z"/><path fill="#3CA5DD" d="M2070.6-74.5c-.7-1.5-.1-3.3 1.4-4 1.5-.7 3.3-.1 4 1.4.7 1.5.1 3.3-1.4 4-1.5.7-3.3 0-4-1.4zm27.4-16.8c.7 1.5 2.5 2.1 4 1.4 1.5-.7 2.1-2.5 1.4-4-.7-1.5-2.5-2.1-4-1.4-1.5.7-2.1 2.5-1.4 4zm-42.5-8.4c-.8-1.6-2.8-2.3-4.4-1.5-1.6.8-2.3 2.8-1.5 4.4.8 1.6 2.8 2.3 4.4 1.5 1.7-.8 2.3-2.8 1.5-4.4zm45.2 55.9c1.8-.9 2.5-3 1.6-4.8-.9-1.8-3-2.5-4.8-1.6-1.8.9-2.5 3-1.6 4.7.9 1.8 3 2.6 4.8 1.7zm-48.2 23.5c3.6-1.8 5.1-6.1 3.3-9.7-1.8-3.6-6.1-5.1-9.7-3.3-3.6 1.8-5.1 6.1-3.3 9.7 1.8 3.6 6.1 5.1 9.7 3.3zm-1.9-27.5c1.1-.5 1.5-1.8 1-2.9-.5-1.1-1.8-1.5-2.9-1-1.1.5-1.5 1.8-1 2.9.5 1.1 1.8 1.5 2.9 1zm24.8 28.1c1.2-.6 1.6-2 1.1-3.1-.6-1.2-2-1.6-3.1-1.1-1.1.6-1.6 2-1.1 3.1.5 1.2 1.9 1.6 3.1 1.1zm-10.6-14.5c1.6-.8 2.2-2.6 1.4-4.2-.8-1.6-2.6-2.2-4.2-1.4-1.6.8-2.2 2.6-1.4 4.2.8 1.6 2.7 2.2 4.2 1.4zm-11.1-49.4c.6-.3.9-1 .6-1.6-.3-.6-1-.9-1.6-.6-.6.3-.9 1-.6 1.6.2.6 1 .9 1.6.6zm8.6 17.6c1.3-.6 1.9-2.2 1.2-3.6-.6-1.3-2.2-1.9-3.6-1.2s-1.9 2.3-1.2 3.6c.7 1.3 2.3 1.9 3.6 1.2zm33 47.6c1.3-.6 1.9-2.2 1.2-3.6-.6-1.3-2.2-1.9-3.6-1.2-1.3.6-1.9 2.2-1.2 3.6.7 1.3 2.3 1.9 3.6 1.2zm-27.6-26.1c1.2-.6 1.7-2.1 1.1-3.3-.6-1.2-2.1-1.7-3.3-1.1-1.2.6-1.7 2.1-1.1 3.3.6 1.2 2.1 1.7 3.3 1.1z"/><circle fill="#F16622" cx="2100.4" cy="-58.9" r="7.5"/><path fill="#F16622" d="M2115-55.8c1.8-.9 2.5-3 1.6-4.7-.9-1.8-3-2.5-4.8-1.6-1.8.9-2.5 3-1.6 4.8.9 1.6 3 2.3 4.8 1.5z"/></g><g fill="#2C6CB4"><path d="M112.1 68.3h3.9c1 0 1.9.3 2.4.8.4.4.6.9.6 1.5 0 1.2-.7 1.8-1.5 2.1 1.1.3 2 1 2 2.2 0 1.6-1.3 2.5-3.3 2.5h-4.1v-9.1zm3.7 4.1c1.2 0 2.1-.6 2.1-1.6 0-.9-.7-1.5-2-1.5h-2.8v3.2h2.7zm.4 4.1c1.4 0 2.3-.6 2.3-1.6s-.8-1.6-2.4-1.6h-2.9v3.2h3zM124.5 68.3h1v9.2h-1v-9.2zM130.7 72.9c0-2.6 1.9-4.8 4.7-4.8 2.8 0 4.7 2.2 4.7 4.7s-1.9 4.7-4.7 4.7c-2.9.1-4.7-2.1-4.7-4.6zm8.2 0c0-2.1-1.5-3.8-3.6-3.8s-3.6 1.7-3.6 3.8c0 2.1 1.5 3.8 3.6 3.8 2.2-.1 3.6-1.7 3.6-3.8zM145.1 68.3h1l3.3 5 3.3-5h1v9.2h-1V70l-3.3 4.9h-.1L146 70v7.4h-1v-9.1zM159.3 68.3h6.6v.9h-5.6v3.1h5v.9h-5v3.2h5.7v.9h-6.7v-9zM171 68.3h3.2c2.9 0 4.9 2 4.9 4.6 0 2.6-2 4.6-4.9 4.6H171v-9.2zm3.2 8.2c2.3 0 3.8-1.6 3.8-3.6s-1.5-3.6-3.8-3.6H172v7.3h2.2zM184.2 68.3h1v9.2h-1v-9.2zM190.4 72.9c0-2.6 1.9-4.8 4.6-4.8 1.7 0 2.7.6 3.6 1.5l-.7.8c-.8-.7-1.6-1.3-2.9-1.3-2 0-3.5 1.7-3.5 3.8 0 2.1 1.5 3.8 3.5 3.8 1.3 0 2.1-.5 3-1.3l.7.7c-1 1-2 1.6-3.7 1.6-2.7-.1-4.6-2.2-4.6-4.8zM206.7 68.2h1l4.2 9.2h-1.1l-1.1-2.4h-5l-1.1 2.4h-1.1l4.2-9.2zm2.6 5.9l-2.1-4.7-2.1 4.7h4.2zM216.6 68.3h1v8.2h5.2v1h-6.2v-9.2zM237.8 68.2h1l4.2 9.2h-1.1l-1.1-2.4h-5l-1.1 2.4h-1.1l4.2-9.2zm2.5 5.9l-2.1-4.7-2.1 4.7h4.2zM247.6 68.3h1l5.8 7.3v-7.3h1v9.2h-.8l-5.9-7.5v7.5h-1v-9.2zM264.2 68.2h1l4.2 9.2h-1.1l-1.1-2.4h-5l-1.1 2.4H260l4.2-9.2zm2.6 5.9l-2.1-4.7-2.1 4.7h4.2zM274 68.3h1v8.2h5.2v1H274v-9.2zM286.2 73.8l-3.8-5.5h1.3l3.1 4.6 3.1-4.6h1.2l-3.8 5.5v3.6h-1v-3.6zM298 69.2h-3.1v-1h7.2v1H299v8.2h-1v-8.2zM307 68.3h1v9.2h-1v-9.2zM313.2 72.9c0-2.6 1.9-4.8 4.6-4.8 1.7 0 2.7.6 3.6 1.5l-.7.8c-.8-.7-1.6-1.3-2.9-1.3-2 0-3.5 1.7-3.5 3.8 0 2.1 1.5 3.8 3.5 3.8 1.3 0 2.1-.5 3-1.3l.7.7c-1 1-2 1.6-3.7 1.6-2.6-.1-4.6-2.2-4.6-4.8zM325.6 76.1l.6-.8c1 .9 1.9 1.3 3.1 1.3 1.2 0 2-.7 2-1.6 0-.9-.5-1.3-2.4-1.7-2.1-.5-3.1-1.1-3.1-2.6 0-1.4 1.3-2.5 3-2.5 1.3 0 2.3.4 3.2 1.1l-.6.8c-.9-.7-1.7-1-2.6-1-1.2 0-2 .7-2 1.5 0 .9.5 1.3 2.5 1.8 2 .4 3 1.2 3 2.6 0 1.6-1.3 2.6-3.1 2.6-1.3 0-2.5-.5-3.6-1.5z"/></g><path fill="#404041" d="M112 34.5h9.7c5.8 0 9.7 3.1 9.7 8.2v.1c0 5.6-4.7 8.5-10.2 8.5H115v9.1h-3V34.5zm9.4 14.1c4.3 0 7.1-2.3 7.1-5.7v-.1c0-3.7-2.8-5.6-7-5.6H115v11.4h6.4zM137 34.5h2.9v25.9H137V34.5zM146.4 47.6c0-7.4 5.5-13.5 13.1-13.5 4.7 0 7.5 1.7 10.1 4.1l-2 2.1c-2.2-2.1-4.6-3.6-8.1-3.6-5.7 0-10 4.7-10 10.6v.1c0 6 4.3 10.7 10 10.7 3.6 0 5.9-1.4 8.4-3.7l1.9 1.9c-2.7 2.7-5.7 4.6-10.4 4.6-7.5 0-13-5.9-13-13.3zM172.9 47.6c0-7.2 5.4-13.5 13.2-13.5 7.9 0 13.2 6.2 13.2 13.3v.1c0 7.1-5.4 13.4-13.2 13.4-7.9 0-13.2-6.2-13.2-13.3zm23.4 0c0-6-4.3-10.8-10.2-10.8-5.9 0-10.1 4.7-10.1 10.6v.1c0 5.9 4.3 10.7 10.2 10.7 5.9 0 10.1-4.7 10.1-10.6z"/><path fill="#2C6CB4" d="M205.5 34.5h18.6v2.7h-15.7v9.2h14v2.7h-14v11.3h-2.9V34.5zM229.8 34.5h18.7v2.7h-15.8V46h14.1v2.7h-14.1v9.1h16v2.7h-18.9v-26zM254.6 34.5h3l9.4 14.1 9.4-14.1h3v25.9h-2.9v-21L267 53.3h-.1l-9.4-13.8v20.9h-2.8V34.5zM293.5 37.2h-8.7v-2.7h20.4v2.7h-8.7v23.2h-3V37.2zM307.8 47.6c0-7.2 5.4-13.5 13.2-13.5 7.9 0 13.2 6.2 13.2 13.3v.1c0 7.1-5.4 13.4-13.2 13.4-8 0-13.2-6.2-13.2-13.3zm23.3 0c0-6-4.3-10.8-10.2-10.8-5.9 0-10.1 4.7-10.1 10.6v.1c0 5.9 4.3 10.7 10.2 10.7 5.9 0 10.1-4.7 10.1-10.6z"/><g><path fill="#84B9E3" d="M63.7 41.9c-2.8 1.4-6.3.2-7.7-2.6-1.4-2.8-.2-6.3 2.6-7.7 2.8-1.4 6.3-.2 7.7 2.6 1.4 2.9.2 6.3-2.6 7.7zm5-29.6c-.8-1.6-2.8-2.3-4.4-1.5-1.6.8-2.3 2.8-1.5 4.4.8 1.6 2.8 2.3 4.4 1.5 1.6-.8 2.3-2.8 1.5-4.4zM55.3 77.6c3.1-1.5 4.4-5.3 2.9-8.4-1.5-3.1-5.3-4.4-8.4-2.9-3.1 1.5-4.4 5.3-2.9 8.4 1.5 3.1 5.3 4.4 8.4 2.9zm-30.6-2.3c2.6-1.3 3.6-4.4 2.4-6.9-1.3-2.6-4.4-3.6-6.9-2.4-2.6 1.3-3.6 4.4-2.4 6.9 1.2 2.5 4.3 3.6 6.9 2.4zm21.5 19.4c-.5-1-1.8-1.5-2.8-1-1.1.5-1.5 1.8-1 2.8.5 1.1 1.8 1.5 2.8 1 1.1-.4 1.5-1.7 1-2.8zm21.2-45.2c1.7-.8 2.4-2.9 1.6-4.6-.8-1.7-2.9-2.4-4.6-1.6-1.7.8-2.4 2.9-1.6 4.6.9 1.7 2.9 2.4 4.6 1.6zM24 49.4c3.9-1.9 5.6-6.7 3.6-10.6-1.9-3.9-6.7-5.6-10.6-3.6-3.9 1.9-5.6 6.7-3.6 10.6 2 3.9 6.7 5.5 10.6 3.6zM9.1 67.5c1.5-.8 2.2-2.6 1.4-4.2-.8-1.5-2.6-2.2-4.2-1.4-1.4.7-2.1 2.6-1.3 4.1.7 1.6 2.6 2.2 4.1 1.5zm33.3-53.1c1.4-.7 2-2.4 1.3-3.8s-2.4-2-3.8-1.3-2 2.4-1.3 3.8 2.4 2 3.8 1.3zm-7.3 7c1.2-.6 1.7-2.1 1.1-3.3-.6-1.2-2.1-1.7-3.3-1.1-1.2.6-1.7 2.1-1.1 3.3.6 1.1 2.1 1.7 3.3 1.1zM69 85.7c.6-.3.9-1 .6-1.6-.3-.6-1-.9-1.6-.6-.6.3-.9 1-.6 1.6.2.6 1 .9 1.6.6zm22-15.3c2.8-1.4 4-4.8 2.6-7.7-1.4-2.8-4.8-4-7.7-2.6-2.8 1.4-4 4.8-2.6 7.7 1.4 2.8 4.8 4 7.7 2.6zM86.7 30c1.8-.9 2.5-3 1.6-4.8-.9-1.8-3-2.5-4.7-1.6-1.8.9-2.5 3-1.6 4.7.9 1.8 3 2.5 4.7 1.7z"/><path fill="#2875BA" d="M41.6 54.8c-2.1-4.3-.3-9.6 4-11.7 4.3-2.1 9.6-.3 11.7 4 2.1 4.3.3 9.6-4 11.7-4.4 2.1-9.6.3-11.7-4zM35 56.2c2.8-1.4 4-4.8 2.6-7.7-1.4-2.8-4.8-4-7.7-2.6-2.8 1.4-4 4.8-2.6 7.7 1.4 2.8 4.8 4 7.7 2.6zm5.4-18.8c3.3-1.6 4.6-5.5 3-8.8-1.6-3.3-5.5-4.6-8.8-3-3.3 1.6-4.6 5.5-3 8.8 1.6 3.3 5.5 4.6 8.8 3zm20.3-15.1c-1-2-3.5-2.9-5.5-1.9s-2.9 3.5-1.9 5.5 3.5 2.9 5.5 1.9 2.9-3.4 1.9-5.5zm-47 33.6c1.8-.9 2.5-3 1.6-4.8-.9-1.8-3-2.5-4.7-1.6-1.8.9-2.5 3-1.6 4.8.8 1.7 3 2.5 4.7 1.6zm-2.3-19.8c1.8-.9 2.5-3 1.6-4.8-.9-1.8-3-2.5-4.8-1.6-1.8.9-2.5 3-1.6 4.8 1 1.7 3.1 2.4 4.8 1.6zm69.9 49.1c1.6-.8 2.3-2.8 1.5-4.4-.8-1.6-2.8-2.3-4.4-1.5-1.6.8-2.3 2.8-1.5 4.4.8 1.6 2.7 2.3 4.4 1.5zm-37.6 4c2.8-1.4 3.9-4.7 2.6-7.5-1.4-2.8-4.7-3.9-7.5-2.6-2.8 1.4-3.9 4.7-2.6 7.5 1.3 2.8 4.7 3.9 7.5 2.6zm43.1-55.1c-2.7 1.3-3.8 4.6-2.5 7.3 1.3 2.7 4.6 3.8 7.3 2.5 2.7-1.3 3.8-4.6 2.5-7.3-1.3-2.7-4.6-3.9-7.3-2.5zM24.2 17.2c1.1-.6 1.6-1.9 1.1-3.1-.6-1.1-1.9-1.6-3.1-1.1-1.1.6-1.6 1.9-1.1 3.1.6 1.2 2 1.6 3.1 1.1zM28 33.8c1.2-.6 1.6-2 1.1-3.1-.6-1.2-2-1.6-3.1-1.1-1.2.6-1.6 2-1.1 3.1.5 1.2 1.9 1.6 3.1 1.1zm6.3 42.5c1.2-.6 1.7-2 1.1-3.3-.6-1.2-2-1.7-3.3-1.1-1.2.6-1.7 2.1-1.1 3.3.6 1.1 2.1 1.6 3.3 1.1z"/><path fill="#304094" d="M3.4 48.2c-.5-1.1-.1-2.4 1-2.9s2.4-.1 2.9 1 .1 2.4-1 2.9c-1.1.6-2.4.1-2.9-1zm70 31.9c3.5-1.7 4.9-5.9 3.2-9.3-1.7-3.5-5.9-4.9-9.3-3.2-3.5 1.7-4.9 5.9-3.2 9.3 1.7 3.4 5.9 4.9 9.3 3.2zm-2.5-17.2c-.5-1-1.6-1.3-2.6-.9-.9.5-1.3 1.6-.9 2.6.5.9 1.6 1.3 2.6.9 1-.5 1.4-1.6.9-2.6zM36.3 90.5c-.5-.9-1.6-1.3-2.6-.9-.9.5-1.3 1.6-.9 2.6.5.9 1.6 1.3 2.6.9.9-.5 1.3-1.6.9-2.6zm20.6-74.9c-.5-.9-1.6-1.3-2.6-.9-.9.5-1.3 1.6-.9 2.6.5.9 1.6 1.3 2.6.9 1-.5 1.4-1.6.9-2.6zm19.9 25.3c2-1 2.8-3.3 1.8-5.3-1-2-3.3-2.8-5.3-1.8-2 1-2.8 3.3-1.8 5.3.9 2 3.3 2.8 5.3 1.8zm-53.3-13c2.5-1.2 3.5-4.3 2.3-6.8-1.2-2.5-4.2-3.5-6.8-2.3-2.5 1.2-3.5 4.3-2.3 6.8 1.2 2.5 4.3 3.5 6.8 2.3zm58.6 6.3c.8-.4 1.1-1.3.7-2-.4-.7-1.3-1.1-2-.7-.7.4-1.1 1.3-.7 2 .4.8 1.3 1.1 2 .7z"/><path fill="#2669B2" d="M58.8 60.2c-1.2-2.5-.2-5.5 2.3-6.8 2.5-1.2 5.5-.2 6.8 2.3 1.2 2.5.2 5.5-2.3 6.8-2.5 1.2-5.6.2-6.8-2.3zm-21 8.5c2.5-1.2 3.5-4.3 2.3-6.8-1.2-2.5-4.3-3.5-6.8-2.3-2.5 1.2-3.5 4.3-2.3 6.8 1.2 2.4 4.3 3.5 6.8 2.3zm24.9 27c1.8-.9 2.5-3 1.6-4.8-.9-1.8-3-2.5-4.8-1.6-1.8.9-2.5 3-1.6 4.7.9 1.8 3 2.6 4.8 1.7zM74 31c3.3-1.6 4.6-5.5 3-8.8-1.6-3.2-5.5-4.6-8.8-3-3.3 1.6-4.6 5.5-3 8.8 1.7 3.3 5.6 4.6 8.8 3zM19.8 64.6c2.3-1.1 3.3-3.9 2.1-6.2-1.1-2.3-3.9-3.3-6.2-2.1-2.3 1.1-3.3 3.9-2.1 6.2 1.1 2.2 3.9 3.2 6.2 2.1zM14.6 77c1.8-.9 2.6-3.1 1.7-5-.9-1.8-3.1-2.6-5-1.7-1.8.9-2.6 3.1-1.7 5 1 1.8 3.2 2.6 5 1.7zM62 86.2c2.2-1.1 3.2-3.8 2.1-6s-3.8-3.2-6-2.1-3.2 3.8-2.1 6c1 2.2 3.7 3.2 6 2.1zm-13.8-61c2.5-1.2 3.5-4.3 2.3-6.8-1.2-2.5-4.3-3.5-6.8-2.3-2.5 1.2-3.5 4.3-2.3 6.8 1.3 2.5 4.3 3.5 6.8 2.3zm7.2-12.8c2.1-1 3-3.6 1.9-5.7-1-2.1-3.6-3-5.7-1.9-2.1 1-3 3.6-1.9 5.7s3.6 3 5.7 1.9z"/><path fill="#3CA5DD" d="M48.2 35.4c-.7-1.5-.1-3.3 1.4-4 1.5-.7 3.3-.1 4 1.4.7 1.5.1 3.3-1.4 4-1.5.7-3.3.1-4-1.4zm27.4-16.7c.7 1.5 2.5 2.1 4 1.4 1.5-.7 2.1-2.5 1.4-4-.7-1.5-2.5-2.1-4-1.4-1.5.7-2.1 2.5-1.4 4zm-42.4-8.5c-.8-1.6-2.8-2.3-4.4-1.5-1.6.8-2.3 2.8-1.5 4.4.8 1.6 2.8 2.3 4.4 1.5 1.6-.8 2.3-2.7 1.5-4.4zm45.1 55.9c1.8-.9 2.5-3 1.6-4.8-.9-1.8-3-2.5-4.8-1.6-1.8.9-2.5 3-1.6 4.7.9 1.9 3 2.6 4.8 1.7zM30.1 89.7c3.6-1.8 5.1-6.1 3.3-9.7-1.8-3.6-6.1-5.1-9.7-3.3-3.6 1.8-5.1 6.1-3.3 9.7 1.8 3.5 6.1 5 9.7 3.3zm-1.9-27.5c1.1-.5 1.5-1.8 1-2.9-.5-1.1-1.8-1.5-2.9-1-1.1.5-1.5 1.8-1 2.9.5 1 1.8 1.5 2.9 1zm24.8 28c1.2-.6 1.6-2 1.1-3.1-.6-1.2-2-1.6-3.1-1.1-1.1.6-1.6 2-1.1 3.1.6 1.2 1.9 1.7 3.1 1.1zM42.4 75.8c1.6-.8 2.2-2.6 1.4-4.2-.8-1.6-2.6-2.2-4.2-1.4-1.6.8-2.2 2.6-1.4 4.2.8 1.5 2.7 2.2 4.2 1.4zM31.3 26.4c.6-.3.9-1 .6-1.6-.3-.6-1-.9-1.6-.6-.6.3-.9 1-.6 1.6.3.6 1 .9 1.6.6zM39.9 44c1.3-.6 1.9-2.2 1.2-3.6-.6-1.3-2.2-1.9-3.6-1.2s-1.9 2.3-1.2 3.6c.7 1.3 2.3 1.8 3.6 1.2zM73 91.6c1.3-.6 1.9-2.2 1.2-3.6-.6-1.3-2.2-1.9-3.6-1.2-1.3.6-1.9 2.2-1.2 3.6.6 1.3 2.2 1.8 3.6 1.2zM45.3 65.4c1.2-.6 1.7-2.1 1.1-3.3-.6-1.2-2.1-1.7-3.3-1.1-1.2.6-1.7 2.1-1.1 3.3.6 1.2 2.1 1.7 3.3 1.1z"/><circle fill="#F16622" cx="78.1" cy="51" r="7.5"/><path fill="#F16622" d="M92.6 54.1c1.8-.9 2.5-3 1.6-4.7-.9-1.8-3-2.5-4.8-1.6-1.8.9-2.5 3-1.6 4.8.9 1.6 3.1 2.4 4.8 1.5z"/></g></svg>