<svg xmlns="http://www.w3.org/2000/svg" viewBox="0 0 100 100" enable-background="new 0 0 100 100"><g><path fill="#999" d="M55.2 46.9C53.5 43.6 35.6 22.7 34.9 23c-.6.3 6.7 26.9 8.4 30.2 1.7 3.3 5.8 4.5 9.1 2.8 3.3-1.7 4.5-5.8 2.8-9.1zM78.2 49.6h-5.3c-1 0-1.9-.8-1.9-1.9s.8-1.9 1.9-1.9h5.3c1 0 1.9.8 1.9 1.9s-.9 1.9-1.9 1.9zM50 0C22.4 0 0 22.4 0 50s22.4 50 50 50 50-22.4 50-50S77.6 0 50 0zm0 12.7c20.6 0 37.3 16.7 37.3 37.3 0 2.5-.3 5-.7 7.3H65.5c-1.8 5.1-8 8.8-15.5 8.8s-13.7-3.8-15.5-8.8H13.4c-.4-2.3-.7-4.8-.7-7.3 0-20.6 16.7-37.3 37.3-37.3zM68.3 39.1c-.6 0-1.3-.3-1.6-.9-.5-.9-.2-2 .7-2.6L72 33c.9-.5 2-.2 2.6.7.5.9.2 2-.7 2.6l-4.6 2.6c-.4.1-.7.2-1 .2zM50 29.9c-1 0-1.9-.8-1.9-1.9v-5.3c0-1 .8-1.9 1.9-1.9 1 0 1.9.8 1.9 1.9V28c0 1-.9 1.9-1.9 1.9zM60.5 32.5c-.3 0-.6-.1-.9-.3-.9-.5-1.2-1.7-.7-2.6l2.6-4.6c.5-.9 1.7-1.2 2.6-.7.9.5 1.2 1.7.7 2.6l-2.6 4.6c-.4.7-1 1-1.7 1zM26.8 49.9h-5.3c-1 0-1.9-.8-1.9-1.9s.8-1.9 1.9-1.9h5.3c1 0 1.9.8 1.9 1.9 0 1.1-.8 1.9-1.9 1.9zM31.4 40c-.3 0-.6-.1-.9-.3l-4.6-2.6c-.9-.5-1.2-1.7-.7-2.6.5-.9 1.7-1.2 2.6-.7l4.6 2.6c.9.5 1.2 1.7.7 2.6-.4.6-1 1-1.7 1z"/></g></svg>