<svg xmlns="http://www.w3.org/2000/svg" viewBox="13.2 31.2 580.2 543" enable-background="new 13.2 31.2 580.2 543"><g fill="#999"><ellipse cx="246" cy="91.2" rx="232.8" ry="60"/><path d="M245.4 292.2c28.2 0 47.4-.6 52.2-1.2 1.8-19.2 12-55.2 43.8-81 16.8-12 44.4-33.6 96-28.2 5.4 1.2 22.8 2.4 40.8 12.6 0-4.2.6-72 .6-72s-1.2 64.8-232.8 64.8-232.8-64.8-232.8-64.8v86.4s0 83.4 232.2 83.4zM245.4 433.8c86.4 0 96-3.6 126-13.2-24-12-38.4-25.2-55.2-46.8-9-15-14.4-26.4-19.2-53.4-9.6 1.2-23.4 1.2-51 1.2-231.6 0-232.8-76.2-232.8-76.2V345s0 88.8 232.2 88.8zM411 429.6c-3 1.2-24.6 30.6-165 30.6-231.6.6-232.8-79.8-232.8-79.8l.6 103.8s0 90 231.6 90 233.4-88.8 233.4-88.8v-69c-24 11.4-45.6 15-67.8 13.2zM588 440.4L543 393l-43.8-19.2c16.2-18.6 24.6-40.8 25.2-64.2.6-25.2-8.4-51-27.6-70.8-18.6-19.8-43.8-29.4-69.6-30-53.4-1.2-99.6 43.2-100.8 96.6-1.2 54 42 100.2 96 101.4 23.4.6 46.2-7.2 65.4-22.2l17.4 45.6 45 46.8c4.2 3.6 10.2 5.4 15.6 5.4 14.4.6 27.6-11.4 27.6-25.8 0-6-1.8-11.4-5.4-16.2zm-121.2-88.8c-12 12-28.2 17.4-43.8 16.8-32.4-.6-60-28.8-59.4-62.4.6-32.4 28.8-60 61.8-59.4 33.6.6 60.6 28.8 60 61.8 0 16.2-6.6 31.8-18.6 43.2z"/></g></svg>