<?xml version="1.0" encoding="utf-8"?>
<!-- Generator: Adobe Illustrator 18.0.0, SVG Export Plug-In . SVG Version: 6.00 Build 0)  -->
<!DOCTYPE svg PUBLIC "-//W3C//DTD SVG 1.1//EN" "http://www.w3.org/Graphics/SVG/1.1/DTD/svg11.dtd">
<svg version="1.1" id="Layer_1" xmlns="http://www.w3.org/2000/svg" xmlns:xlink="http://www.w3.org/1999/xlink" x="0px" y="0px"
	 viewBox="0 179.2 600 327.8" enable-background="new 0 179.2 600 327.8" xml:space="preserve">
<path fill="#999999" d="M468,245.8c-22.2,0-43.8,5.4-63,16.2c-24-49.8-74.4-82.8-130.8-82.8c-76.8,0-140.4,60.6-144,136.8
	c-35.4,4.2-66,27.6-78.6,60.6c-30,7.8-51.6,34.2-51.6,66c0,37.2,30.6,67.8,67.8,67.8h198c0-35.4,0-70.8,0-106.2c-8.4,0-24.6,0-33,0
	c-6.6,0-8.4-7.2-4.8-11.4c19.8-24,47.4-47.4,67.2-71.4c1.2-1.8,3-2.4,4.8-2.4s3.6,0.6,4.8,2.4c19.8,24,47.4,47.4,67.2,71.4
	c3.6,4.2,1.8,11.4-4.8,11.4c-8.4,0-24.6,0-33,0c0,35.4,0,70.8,0,106.2H468c73.2,0,132-59.4,132-132S540.6,245.8,468,245.8z"/>
</svg>
