<?xml version="1.0" encoding="utf-8"?>
<!-- Generator: Adobe Illustrator 17.1.0, SVG Export Plug-In . SVG Version: 6.00 Build 0)  -->
<!DOCTYPE svg PUBLIC "-//W3C//DTD SVG 1.1//EN" "http://www.w3.org/Graphics/SVG/1.1/DTD/svg11.dtd">
<svg version="1.1" id="Layer_1" xmlns="http://www.w3.org/2000/svg" xmlns:xlink="http://www.w3.org/1999/xlink" x="0px" y="0px"
	 viewBox="0 0 100 100" enable-background="new 0 0 100 100" xml:space="preserve">
<g>
	<ellipse fill="#FFFFFF" cx="41" cy="15.2" rx="38.8" ry="10"/>
	<path fill="#FFFFFF" d="M40.9,48.7c4.7,0,7.9-0.1,8.7-0.2c0.3-3.2,2-9.2,7.3-13.5c2.8-2,7.4-5.6,16-4.7c0.9,0.2,3.8,0.4,6.8,2.1
		c0-0.7,0.1-12,0.1-12S79.6,31.2,41,31.2C2.4,31.2,2.2,20.4,2.2,20.4v14.4C2.2,34.8,2.2,48.7,40.9,48.7z"/>
	<path fill="#FFFFFF" d="M40.9,72.3c14.4,0,16-0.6,21-2.2c-4-2-6.4-4.2-9.2-7.8c-1.5-2.5-2.4-4.4-3.2-8.9c-1.6,0.2-3.9,0.2-8.5,0.2
		C2.4,53.6,2.2,40.9,2.2,40.9v16.6C2.2,57.5,2.2,72.3,40.9,72.3z"/>
	<path fill="#FFFFFF" d="M68.5,71.6c-0.5,0.2-4.1,5.1-27.5,5.1C2.4,76.8,2.2,63.4,2.2,63.4l0.1,17.3c0,0,0,15,38.6,15
		c38.6,0,38.9-14.8,38.9-14.8s0-10.8,0-11.5C75.8,71.3,72.2,71.9,68.5,71.6z"/>
	<path fill="#FFFFFF" d="M98,73.4l-7.5-7.9l-7.3-3.2c2.7-3.1,4.1-6.8,4.2-10.7c0.1-4.2-1.4-8.5-4.6-11.8c-3.1-3.3-7.3-4.9-11.6-5
		c-8.9-0.2-16.6,7.2-16.8,16.1c-0.2,9,7,16.7,16,16.9c3.9,0.1,7.7-1.2,10.9-3.7l2.9,7.6l7.5,7.8c0.7,0.6,1.7,0.9,2.6,0.9
		c2.4,0.1,4.6-1.9,4.6-4.3C98.9,75.1,98.6,74.2,98,73.4z M77.8,58.6c-2,2-4.7,2.9-7.3,2.8c-5.4-0.1-10-4.8-9.9-10.4
		c0.1-5.4,4.8-10,10.3-9.9c5.6,0.1,10.1,4.8,10,10.3C80.9,54.1,79.8,56.7,77.8,58.6z"/>
</g>
</svg>
