<?xml version="1.0" encoding="utf-8"?>
<!-- Generator: Adobe Illustrator 18.0.0, SVG Export Plug-In . SVG Version: 6.00 Build 0)  -->
<!DOCTYPE svg PUBLIC "-//W3C//DTD SVG 1.1//EN" "http://www.w3.org/Graphics/SVG/1.1/DTD/svg11.dtd">
<svg version="1.1" id="Layer_1" xmlns="http://www.w3.org/2000/svg" xmlns:xlink="http://www.w3.org/1999/xlink" x="0px" y="0px"
	 viewBox="13.2 31.2 580.2 543" enable-background="new 13.2 31.2 580.2 543" xml:space="preserve">
<g>
	<ellipse fill="#999999" cx="246" cy="91.2" rx="232.8" ry="60"/>
	<path fill="#999999" d="M245.4,292.2c28.2,0,47.4-0.6,52.2-1.2c1.8-19.2,12-55.2,43.8-81c16.8-12,44.4-33.6,96-28.2
		c5.4,1.2,22.8,2.4,40.8,12.6c0-4.2,0.6-72,0.6-72s-1.2,64.8-232.8,64.8S13.2,122.4,13.2,122.4v86.4
		C13.2,208.8,13.2,292.2,245.4,292.2z"/>
	<path fill="#999999" d="M245.4,433.8c86.4,0,96-3.6,126-13.2c-24-12-38.4-25.2-55.2-46.8c-9-15-14.4-26.4-19.2-53.4
		c-9.6,1.2-23.4,1.2-51,1.2c-231.6,0-232.8-76.2-232.8-76.2V345C13.2,345,13.2,433.8,245.4,433.8z"/>
	<path fill="#999999" d="M411,429.6c-3,1.2-24.6,30.6-165,30.6c-231.6,0.6-232.8-79.8-232.8-79.8l0.6,103.8c0,0,0,90,231.6,90
		s233.4-88.8,233.4-88.8s0-64.8,0-69C454.8,427.8,433.2,431.4,411,429.6z"/>
	<path fill="#999999" d="M588,440.4L543,393l-43.8-19.2c16.2-18.6,24.6-40.8,25.2-64.2c0.6-25.2-8.4-51-27.6-70.8
		c-18.6-19.8-43.8-29.4-69.6-30c-53.4-1.2-99.6,43.2-100.8,96.6c-1.2,54,42,100.2,96,101.4c23.4,0.6,46.2-7.2,65.4-22.2l17.4,45.6
		l45,46.8c4.2,3.6,10.2,5.4,15.6,5.4c14.4,0.6,27.6-11.4,27.6-25.8C593.4,450.6,591.6,445.2,588,440.4z M466.8,351.6
		c-12,12-28.2,17.4-43.8,16.8c-32.4-0.6-60-28.8-59.4-62.4c0.6-32.4,28.8-60,61.8-59.4c33.6,0.6,60.6,28.8,60,61.8
		C485.4,324.6,478.8,340.2,466.8,351.6z"/>
</g>
</svg>
