<?xml version="1.0" encoding="utf-8"?>
<!-- Generator: Adobe Illustrator 18.0.0, SVG Export Plug-In . SVG Version: 6.00 Build 0)  -->
<!DOCTYPE svg PUBLIC "-//W3C//DTD SVG 1.1//EN" "http://www.w3.org/Graphics/SVG/1.1/DTD/svg11.dtd">
<svg version="1.1" xmlns="http://www.w3.org/2000/svg" xmlns:xlink="http://www.w3.org/1999/xlink" x="0px" y="0px"
	 viewBox="0 0 543.5 220.4" enable-background="new 0 0 543.5 220.4" xml:space="preserve">
<g id="References">
	<g id="Shape_37_">
		<path id="_x23__1_37_" fill="#85BAE4" d="M598.4-270.1c-3.2,1.5-7,0.2-8.5-2.9c-1.5-3.2-0.2-7,2.9-8.5c3.2-1.5,7-0.2,8.5,2.9
			C602.9-275.5,601.5-271.7,598.4-270.1z M603.9-303c-0.9-1.8-3.1-2.6-4.9-1.7c-1.8,0.9-2.6,3.1-1.7,4.9c0.9,1.8,3.1,2.6,4.9,1.7
			C604.1-299,604.8-301.2,603.9-303z M589.1-230.5c3.5-1.7,4.9-5.9,3.2-9.3c-1.7-3.5-5.9-4.9-9.3-3.2c-3.5,1.7-4.9,5.9-3.2,9.3
			C581.5-230.3,585.6-228.8,589.1-230.5z M555.1-233.1c2.9-1.4,4-4.8,2.6-7.7c-1.4-2.9-4.8-4-7.7-2.6c-2.9,1.4-4,4.8-2.6,7.7
			C548.8-232.9,552.3-231.7,555.1-233.1z M579-211.5c-0.6-1.2-2-1.6-3.1-1.1c-1.2,0.6-1.6,2-1.1,3.1c0.6,1.2,2,1.6,3.1,1.1
			C579.1-208.9,579.6-210.3,579-211.5z M602.5-261.7c1.9-0.9,2.7-3.2,1.7-5.1c-0.9-1.9-3.2-2.7-5.1-1.7c-1.9,0.9-2.7,3.2-1.7,5.1
			C598.4-261.6,600.6-260.8,602.5-261.7z M554.4-261.8c4.4-2.1,6.2-7.4,4-11.8c-2.1-4.4-7.4-6.2-11.8-4c-4.4,2.1-6.2,7.4-4,11.8
			C544.8-261.5,550-259.7,554.4-261.8z M537.9-241.8c1.7-0.8,2.4-2.9,1.6-4.6c-0.8-1.7-2.9-2.4-4.6-1.6c-1.7,0.8-2.4,2.9-1.6,4.6
			C534.1-241.6,536.2-240.9,537.9-241.8z M574.8-300.7c1.6-0.8,2.2-2.7,1.5-4.3c-0.8-1.6-2.7-2.2-4.3-1.5c-1.6,0.8-2.2,2.7-1.5,4.3
			C571.3-300.5,573.2-299.9,574.8-300.7z M566.7-292.9c1.4-0.7,1.9-2.3,1.3-3.6c-0.7-1.4-2.3-1.9-3.7-1.3c-1.3,0.7-1.9,2.3-1.3,3.6
			C563.7-292.8,565.3-292.3,566.7-292.9z M604.3-221.6c0.7-0.3,1-1.1,0.6-1.8c-0.3-0.7-1.1-1-1.8-0.6c-0.7,0.3-1,1.1-0.6,1.8
			C602.8-221.5,603.6-221.3,604.3-221.6z M628.7-238.5c3.2-1.5,4.5-5.4,2.9-8.5c-1.5-3.2-5.4-4.5-8.5-2.9c-3.2,1.5-4.5,5.4-2.9,8.5
			C621.7-238.3,625.5-237,628.7-238.5z M624-283.3c2-1,2.8-3.3,1.8-5.3c-1-2-3.3-2.8-5.3-1.8c-2,1-2.8,3.3-1.8,5.3
			C619.7-283.2,622-282.4,624-283.3z"/>
		<path id="_x23__2_37_" fill="#2775BB" d="M573.9-255.8c-2.4-4.8-0.4-10.6,4.4-13c4.8-2.4,10.6-0.4,13,4.4c2.4,4.8,0.4,10.6-4.4,13
			C582-249,576.2-251,573.9-255.8z M566.5-254.3c3.2-1.5,4.5-5.4,2.9-8.5c-1.5-3.2-5.4-4.5-8.5-2.9c-3.2,1.5-4.5,5.4-2.9,8.5
			C559.6-254,563.4-252.7,566.5-254.3z M572.5-275.1c3.6-1.8,5.1-6.1,3.3-9.7c-1.8-3.6-6.1-5.1-9.7-3.3c-3.6,1.8-5.1,6.1-3.3,9.7
			C564.6-274.8,568.9-273.3,572.5-275.1z M595-291.8c-1.1-2.3-3.8-3.2-6.1-2.1c-2.3,1.1-3.2,3.8-2.1,6.1c1.1,2.3,3.8,3.2,6.1,2.1
			C595.2-286.9,596.1-289.6,595-291.8z M543-254.6c2-1,2.8-3.3,1.8-5.3c-1-1.9-3.3-2.8-5.3-1.8c-2,1-2.8,3.3-1.8,5.3
			C538.6-254.5,541-253.6,543-254.6z M540.4-276.6c2-1,2.8-3.3,1.8-5.3c-1-2-3.3-2.8-5.3-1.8c-2,1-2.8,3.3-1.8,5.3
			C536.1-276.4,538.5-275.6,540.4-276.6z M617.9-222.1c1.8-0.9,2.6-3.1,1.7-4.9c-0.9-1.8-3.1-2.6-4.9-1.7c-1.8,0.9-2.5,3.1-1.7,4.9
			C613.9-221.9,616.1-221.2,617.9-222.1z M576.2-217.7c3.1-1.5,4.4-5.2,2.8-8.3c-1.5-3.1-5.2-4.3-8.3-2.8c-3.1,1.5-4.4,5.2-2.9,8.3
			C569.4-217.4,573.1-216.2,576.2-217.7z M624.1-278.8c-3,1.5-4.3,5.1-2.8,8.1c1.5,3,5.1,4.3,8.1,2.8c3-1.5,4.3-5.1,2.8-8.1
			C630.7-279.1,627.1-280.3,624.1-278.8z M554.6-297.6c1.3-0.6,1.8-2.2,1.2-3.4c-0.6-1.3-2.2-1.8-3.4-1.2c-1.3,0.6-1.8,2.1-1.2,3.4
			C551.8-297.5,553.4-296.9,554.6-297.6z M558.8-279.2c1.3-0.6,1.8-2.2,1.2-3.4c-0.6-1.3-2.2-1.8-3.4-1.2c-1.3,0.6-1.8,2.2-1.2,3.4
			C555.9-279.1,557.5-278.5,558.8-279.2z M565.8-232c1.3-0.7,1.9-2.3,1.2-3.6c-0.7-1.3-2.3-1.9-3.6-1.2c-1.3,0.7-1.9,2.3-1.2,3.6
			C562.8-231.9,564.4-231.4,565.8-232z"/>
		<path id="_x23__3_37_" fill="#304094" d="M531.5-263.1c-0.6-1.2-0.1-2.7,1.1-3.2c1.2-0.6,2.7-0.1,3.2,1.1c0.6,1.2,0.1,2.7-1.1,3.2
			C533.5-261.4,532.1-261.9,531.5-263.1z M609.2-227.8c3.8-1.9,5.4-6.5,3.5-10.3c-1.9-3.8-6.5-5.4-10.3-3.5
			c-3.8,1.9-5.4,6.5-3.5,10.3C600.7-227.5,605.4-225.9,609.2-227.8z M606.4-246.8c-0.5-1.1-1.8-1.5-2.8-1c-1,0.5-1.5,1.8-1,2.8
			c0.5,1.1,1.8,1.5,2.8,1C606.5-244.5,607-245.8,606.4-246.8z M568-216.2c-0.5-1.1-1.8-1.5-2.8-1c-1.1,0.5-1.5,1.8-1,2.8
			c0.5,1,1.8,1.5,2.8,1C568-213.9,568.5-215.1,568-216.2z M590.9-299.3c-0.5-1-1.8-1.5-2.8-1c-1,0.5-1.5,1.8-1,2.8
			c0.5,1.1,1.8,1.5,2.8,1C591-297,591.4-298.3,590.9-299.3z M612.9-271.2c2.2-1.1,3.1-3.7,2-5.9c-1.1-2.2-3.7-3.1-5.9-2
			c-2.2,1.1-3.1,3.7-2,5.9C608.1-271.1,610.7-270.2,612.9-271.2z M553.8-285.7c2.8-1.4,3.9-4.7,2.6-7.5c-1.4-2.8-4.7-3.9-7.5-2.6
			c-2.8,1.4-3.9,4.7-2.6,7.5C547.6-285.5,551-284.3,553.8-285.7z M618.9-278.7c0.8-0.4,1.2-1.4,0.8-2.2c-0.4-0.8-1.4-1.2-2.2-0.8
			c-0.8,0.4-1.2,1.4-0.8,2.2C617-278.6,618-278.3,618.9-278.7z"/>
		<path id="_x23__4_37_" fill="#2669B3" d="M593-249.9c-1.4-2.8-0.2-6.1,2.6-7.5c2.8-1.4,6.1-0.2,7.5,2.6c1.4,2.8,0.2,6.1-2.6,7.5
			C597.7-245.9,594.3-247.1,593-249.9z M569.6-240.5c2.8-1.4,3.9-4.7,2.6-7.5c-1.4-2.8-4.7-3.9-7.5-2.6c-2.8,1.4-3.9,4.7-2.6,7.5
			C563.5-240.2,566.9-239.1,569.6-240.5z M597.3-210.5c2-1,2.8-3.3,1.8-5.3c-1-2-3.3-2.8-5.3-1.8c-2,1-2.8,3.3-1.8,5.3
			C592.9-210.3,595.3-209.5,597.3-210.5z M609.9-282.2c3.6-1.8,5.1-6.1,3.3-9.7c-1.8-3.6-6.1-5.1-9.7-3.3c-3.6,1.8-5.1,6.1-3.3,9.7
			C601.9-281.9,606.3-280.4,609.9-282.2z M549.7-245c2.6-1.2,3.6-4.3,2.4-6.9c-1.3-2.6-4.3-3.6-6.9-2.4c-2.6,1.2-3.6,4.3-2.4,6.9
			C544-244.8,547.1-243.7,549.7-245z M544-231.2c2-1,2.9-3.5,1.9-5.5c-1-2-3.5-2.9-5.5-1.9c-2,1-2.9,3.5-1.9,5.5
			C539.5-231.1,541.9-230.2,544-231.2z M596.5-221c2.5-1.2,3.5-4.2,2.3-6.7c-1.2-2.5-4.2-3.5-6.7-2.3c-2.5,1.2-3.5,4.2-2.3,6.7
			C591-220.8,594-219.8,596.5-221z M581.3-288.6c2.8-1.4,3.9-4.7,2.6-7.5c-1.4-2.8-4.7-3.9-7.5-2.6c-2.8,1.4-3.9,4.7-2.6,7.5
			C575.1-288.4,578.5-287.3,581.3-288.6z M589.2-302.8c2.3-1.1,3.3-3.9,2.2-6.3c-1.1-2.3-3.9-3.3-6.3-2.2c-2.3,1.1-3.3,3.9-2.1,6.3
			C584.1-302.6,586.9-301.7,589.2-302.8z"/>
		<path id="_x23__5_37_" fill="#3DA6DE" d="M581.2-277.3c-0.8-1.7-0.1-3.7,1.5-4.5c1.7-0.8,3.7-0.1,4.5,1.5c0.8,1.7,0.1,3.7-1.5,4.5
			C584-275,582-275.7,581.2-277.3z M611.6-295.9c0.8,1.7,2.8,2.3,4.5,1.5c1.7-0.8,2.3-2.8,1.5-4.5c-0.8-1.7-2.8-2.3-4.5-1.5
			C611.5-299.6,610.8-297.6,611.6-295.9z M564.5-305.3c-0.9-1.8-3.1-2.5-4.9-1.7c-1.8,0.9-2.6,3.1-1.7,4.9c0.9,1.8,3.1,2.6,4.9,1.7
			C564.7-301.3,565.4-303.5,564.5-305.3z M614.6-243.2c2-1,2.8-3.3,1.8-5.3c-1-2-3.3-2.8-5.3-1.8c-2,1-2.8,3.3-1.8,5.3
			C610.3-243.1,612.7-242.3,614.6-243.2z M561.1-217.1c4-1.9,5.6-6.8,3.7-10.7c-2-4-6.8-5.6-10.7-3.7c-4,2-5.6,6.8-3.7,10.7
			C552.3-216.8,557.1-215.2,561.1-217.1z M559-247.7c1.2-0.6,1.7-2,1.1-3.3c-0.6-1.2-2-1.7-3.3-1.1c-1.2,0.6-1.7,2-1.1,3.3
			C556.3-247.6,557.8-247.1,559-247.7z M586.5-216.5c1.3-0.6,1.8-2.2,1.2-3.4c-0.6-1.3-2.2-1.8-3.4-1.2c-1.3,0.6-1.8,2.2-1.2,3.4
			C583.7-216.4,585.3-215.9,586.5-216.5z M574.8-232.5c1.7-0.8,2.4-2.9,1.6-4.7c-0.8-1.7-2.9-2.4-4.7-1.6c-1.7,0.8-2.4,2.9-1.6,4.7
			C571-232.4,573.1-231.7,574.8-232.5z M562.5-287.4c0.7-0.3,1-1.2,0.6-1.8c-0.3-0.7-1.2-1-1.8-0.6c-0.7,0.3-1,1.1-0.6,1.8
			C561-287.3,561.8-287,562.5-287.4z M572-267.8c1.5-0.7,2.1-2.5,1.4-4c-0.7-1.5-2.5-2.1-4-1.4c-1.5,0.7-2.1,2.5-1.4,4
			C568.8-267.7,570.6-267.1,572-267.8z M608.7-215c1.5-0.7,2.1-2.5,1.4-4c-0.7-1.5-2.5-2.1-4-1.4c-1.5,0.7-2.1,2.5-1.4,4
			C605.4-214.9,607.2-214.3,608.7-215z M578-244c1.4-0.7,1.9-2.3,1.3-3.7c-0.7-1.4-2.3-1.9-3.7-1.3c-1.4,0.7-1.9,2.3-1.3,3.7
			C575-243.9,576.6-243.3,578-244z"/>
		<circle fill="#F26722" cx="614.3" cy="-260" r="8.3"/>
		<path fill="#F26722" d="M630.5-256.6c2-1,2.8-3.3,1.8-5.3c-1-2-3.3-2.8-5.3-1.8c-2,1-2.8,3.3-1.8,5.3
			C626.2-256.4,628.5-255.6,630.5-256.6z"/>
	</g>
</g>
<g id="Desktop">
	<g>
		<rect x="280.7" y="207.7" fill="#DCDBDB" width="95.5" height="2.5"/>
	</g>
	<g>
		<polygon fill="#BCBEC0" points="280.6,207.7 290.9,206.1 365.9,206.1 376.1,207.7 		"/>
	</g>
	<g>
		<polygon fill="#B7B7B7" points="357,176.1 299.9,176.1 298,182.3 358.8,182.3 		"/>
	</g>
	<g>
		<polygon fill="#E2E2E2" points="298,182.3 290.9,206.1 321.2,206.1 335.7,206.1 365.9,206.1 358.8,182.3 		"/>
	</g>
	<g>
		<path fill="#464E5D" d="M473.5,167.2c0,4.9-4,8.9-8.9,8.9H192.2c-4.9,0-8.9-4-8.9-8.9V8.9c0-4.9,4-8.9,8.9-8.9h272.4
			c4.9,0,8.9,4,8.9,8.9V167.2z"/>
	</g>
	<g>
		<circle fill="#FFFFFF" cx="328.4" cy="170.1" r="2.7"/>
	</g>
	<g display="none">
		<rect x="194.5" y="11.8" display="inline" fill="#D8DCE3" width="267.7" height="152.5"/>
	</g>
	<g>
		<circle fill="#FFFFFF" cx="328.4" cy="5.9" r="0.6"/>
	</g>
	<path fill="#E3E5E5" d="M462.6,25c0,1-2.3,1.8-5.1,1.8H199.3c-2.8,0-5.1-0.8-5.1-1.8V13.6c0-1,2.3-1.8,5.1-1.8h258.1
		c2.8,0,5.1,0.8,5.1,1.8V25z"/>
	<g>
		<rect x="194.3" y="20.5" fill="#F4F4F4" width="268.3" height="143.8"/>
	</g>
	<g>
		<g>
			<circle fill="#F16673" cx="198.6" cy="16.3" r="1.3"/>
		</g>
		<g>
			<circle fill="#FFD14E" cx="203" cy="16.3" r="1.3"/>
		</g>
		<g>
			<circle fill="#6CC175" cx="207.3" cy="16.3" r="1.3"/>
		</g>
	</g>
	<rect x="203" y="25.4" fill="#D8D8D8" width="251.7" height="61.2"/>
	<g>
		<g>
			<rect x="202.8" y="91.4" fill="#BCBEC0" width="81.2" height="67.3"/>
		</g>
		<g>
			<rect x="287.8" y="91.4" fill="#BCBEC0" width="81.2" height="67.3"/>
		</g>
		<g>
			<rect x="372.8" y="91.4" fill="#BCBEC0" width="81.2" height="67.3"/>
		</g>
	</g>
	<g opacity="0.2">
		<polygon fill="#FFFFFF" points="194.5,164.3 462.2,164.3 462.2,12.8 		"/>
	</g>
	<g id="EKG" display="none">
		
			<polyline display="inline" fill="none" stroke="#808285" stroke-width="1.5" stroke-linecap="round" stroke-linejoin="round" stroke-miterlimit="10" points="
			203.2,39.2 206.6,39.2 211.3,39.2 214.2,31.4 215.2,42.9 216.2,39.1 218.8,39.1 220.7,39.1 226.4,39.1 230.4,39.1 232.4,39.1 
			232.4,39.1 236.4,39.1 239.8,35.6 240.8,43.4 241.9,39 244.8,39 246.8,38.9 246.8,38.9 248.4,38.9 249.2,37.4 249.9,38.7 
			252.5,38.7 255.2,31.4 256.5,44 258,38.7 268.9,38.7 270.9,38.8 270.9,38.8 273.5,38.8 275.5,38.7 275.5,38.7 276.5,37.7 
			277.7,38.8 284.8,38.8 287,37.7 287.5,44 289.2,38.7 293.8,38.7 294.8,37 296.4,38.7 304.7,38.7 309.9,28.8 312.4,38.9 
			314.4,34.9 316,38.7 317.4,36.8 319.3,38.6 320.9,38.6 322.3,36.6 323.4,38.7 328.9,38.7 330,36.7 331,38.6 342.5,38.6 
			343.8,34.4 348.6,39.9 353.4,31.4 354.8,38.5 356.3,36.2 357.9,38.5 373.3,38.5 376.3,31.4 381.2,39.4 381.9,38.3 383.8,38.3 
			385.8,36 387.7,38.3 396.7,38.3 398.8,38.1 400.2,38.5 402.2,38.4 404.3,38.4 411.7,38.4 413.7,31.4 414.9,39.5 417.7,38.3 
			425,38.3 426.4,35.9 428,38.4 435.8,38.6 438.7,36.4 443.7,44 444.9,38.1 448,38.1 448.7,30.1 449.5,38.1 453.7,38.1 		"/>
		
			<polyline display="inline" fill="none" stroke="#808285" stroke-width="1.5" stroke-linecap="round" stroke-linejoin="round" stroke-miterlimit="10" points="
			203.2,57.7 206.6,57.7 211.3,57.7 214.2,49.9 215.2,61.4 216.2,57.6 218.8,57.6 220.7,57.6 221.4,57.6 225.4,57.6 226.3,55.6 
			227.4,57.6 231.4,57.6 233,56.4 235.8,61.9 237.9,57.5 252.5,57.2 255.9,56.4 256.5,62.5 258,57.2 268.9,57.2 270,55.6 
			270.9,57.3 276.8,57.3 280.1,45.7 281.3,58.3 281.2,57.2 293.8,57.2 294.8,55.5 296.4,57.2 307.7,57.2 311.4,45.9 314.2,57.2 
			314.2,57.2 319.3,57.1 328.9,57.1 328.9,57.2 331,57.1 331,57.1 342.5,57.1 346.3,49.9 347.3,58.4 349.3,57 354.8,57 356.3,54.7 
			357.9,57 365.3,57 368.3,49.9 369.7,58.5 371.9,56.8 375.8,56.8 377.8,54.5 379.7,56.8 387.7,56.8 389.2,56.4 391.2,57 
			395.3,56.9 395.3,56.9 402.7,56.9 403.9,46.3 406.3,57.4 409.2,53.3 425,56.8 426.4,51.4 428,56.9 431.9,56.9 434.5,49.9 
			435.8,57.9 436.9,56.6 448,56.6 448.7,54.7 449.5,56.6 453.7,56.6 		"/>
		
			<polyline display="inline" fill="none" stroke="#808285" stroke-width="1.5" stroke-linecap="round" stroke-linejoin="round" stroke-miterlimit="10" points="
			203.2,76.2 205.3,76.2 206.8,65.1 208.4,75.7 210.2,76.1 218.8,76.1 220.7,71.1 222.4,76.1 230.4,76.1 231.3,74.1 232.4,76.1 
			236.4,76.1 238.1,74.3 240.8,80.4 241.9,76 244.8,76 248.4,75.9 249.2,74.4 249.9,75.7 252.5,75.7 253.8,72.2 255.7,78.3 
			258,75.7 268.9,75.7 269.7,77.4 270.9,75.8 273.5,75.8 274.8,74 275.5,75.7 276.5,74.7 277.7,75.8 284.8,75.8 286.4,68.4 
			287.5,81 289.2,75.7 293.8,75.7 294.8,74 296.4,75.7 304.7,75.7 307.3,68.4 309.7,81 311.2,75.7 316,75.7 319.3,75.6 319.3,75.6 
			328.9,75.7 328.9,75.7 328.9,75.7 332.7,77.4 337.1,68.9 339.9,81.9 340.3,75.5 346.8,75.5 348.6,67.1 349.9,75.5 373.3,75.5 
			376.3,68.4 378.4,81 379.9,75.3 383.8,75.3 385.8,73 387.7,75.3 396.7,75.3 398.8,75.1 400.2,75.5 402.2,78.4 404.3,75.4 
			411.7,75.4 413.7,68.4 416.8,77.7 417.7,75.3 425,75.3 426.4,72.9 428,75.4 435.9,75.4 438.5,68.4 440.4,77.4 440.9,75.1 
			449.5,75.1 453.7,75.1 		"/>
	</g>
	<g id="Bar_Graph">
		<g>
			<rect x="387.8" y="126.1" fill="#85BAE4" width="6.8" height="21.6"/>
			<rect x="399" y="121.9" fill="#85BAE4" width="6.8" height="25.8"/>
			<rect x="410.2" y="128.5" fill="#85BAE4" width="6.8" height="19.2"/>
			<rect x="421.3" y="121.3" fill="#85BAE4" width="6.8" height="26.4"/>
			<rect x="432.5" y="107.3" fill="#85BAE4" width="6.8" height="40.4"/>
		</g>
	</g>
	<g id="Pie_Chart">
		<g>
			<g>
				<g>
					<g>
						<path fill="#FFFAF1" d="M337.5,136.8c-0.7-4.7-4.7-8.3-9.5-8.3c-5.3,0-9.6,4.3-9.6,9.6c0,1.1,0.2,2.2,0.5,3.2
							c1.3,3.7,4.9,6.4,9.1,6.4c4.3,0,8-2.9,9.2-6.8c0.3-0.9,0.4-1.8,0.4-2.8C337.6,137.7,337.6,137.2,337.5,136.8z"/>
					</g>
					<g>
						<path fill="#F16723" d="M337.5,136.8l-9.5,1.3l9.2,2.8c0.3-0.9,0.4-1.8,0.4-2.8C337.6,137.7,337.6,137.2,337.5,136.8z"/>
					</g>
					<g>
						<path fill="#85BAE4" d="M337.5,136.8c-0.7-4.7-4.7-8.3-9.5-8.3c-5.3,0-9.6,4.3-9.6,9.6c0,1.1,0.2,2.2,0.5,3.2l9.1-3.2
							L337.5,136.8z"/>
					</g>
					<g>
						<path fill="#FFFFFF" d="M319,141.3c1.3,3.7,4.9,6.4,9.1,6.4c4.3,0,8-2.9,9.2-6.8l-9.2-2.8L319,141.3z"/>
					</g>
				</g>
			</g>
			<g>
				<g>
					<path fill="#FFFAF1" d="M363,136.8c-0.7-4.7-4.7-8.3-9.5-8.3c-5.3,0-9.6,4.3-9.6,9.6c0,1.1,0.2,2.2,0.5,3.2
						c1.3,3.7,4.9,6.4,9.1,6.4c4.3,0,8-2.9,9.2-6.8c0.3-0.9,0.4-1.8,0.4-2.8C363.1,137.7,363.1,137.2,363,136.8z"/>
				</g>
				<g>
					<path fill="#85BAE4" d="M353.5,128.5c-5.3,0-9.6,4.3-9.6,9.6c0,1.1,0.2,2.2,0.5,3.2l9.1-3.2
						C353.5,138.1,353.6,133.3,353.5,128.5z"/>
				</g>
				<g>
					<path fill="#F16723" d="M352.1,128.6l1.4,9.5l4.5-8.4c-1.1-0.6-2.4-1.1-4.6-1.1C353,128.5,352.6,128.6,352.1,128.6z"/>
				</g>
				<g>
					<path fill="#FFFFFF" d="M344.5,141.3c1.3,3.7,4.9,6.4,9.1,6.4c4.3,0,8-2.9,9.2-6.8l-9.2-2.8L344.5,141.3z"/>
				</g>
			</g>
			<g>
				<g>
					<path fill="#F1F2F2" d="M312,136.8c-0.7-4.7-4.7-8.3-9.5-8.3c-5.3,0-9.6,4.3-9.6,9.6c0,1.1,0.2,2.2,0.5,3.2
						c1.3,3.7,4.9,6.4,9.1,6.4c4.3,0,8-2.9,9.2-6.8c0.3-0.9,0.4-1.8,0.4-2.8C312.1,137.7,312.1,137.2,312,136.8z"/>
				</g>
				<g>
					<path fill="#F16723" d="M302.5,128.5c-5.3,0-9.6,4.3-9.6,9.6c0,1.1,0.2,2.2,0.5,3.2l9.1-3.2
						C302.5,138.1,302.6,133.3,302.5,128.5z"/>
				</g>
				<g>
					<path fill="#FFFFFF" d="M301.1,128.6l1.4,9.5l4.5-8.4c-1.1-0.6-2.4-1.1-4.6-1.1C302,128.5,301.6,128.6,301.1,128.6z"/>
				</g>
				<g>
					<path fill="#85BAE4" d="M293.5,141.3c1.3,3.7,4.9,6.4,9.1,6.4c4.3,0,8-2.9,9.2-6.8l-9.2-2.8L293.5,141.3z"/>
				</g>
			</g>
		</g>
		<g>
			<g>
				<g>
					<g>
						<path fill="#FFFAF1" d="M326.7,102.6c-4.7,0.7-8.3,4.7-8.3,9.5c0,5.3,4.3,9.6,9.6,9.6c1.1,0,2.2-0.2,3.2-0.5
							c3.7-1.3,6.4-4.9,6.4-9.1c0-4.3-2.9-8-6.8-9.2c-0.9-0.3-1.8-0.4-2.8-0.4C327.6,102.5,327.1,102.6,326.7,102.6z"/>
					</g>
					<g>
						<path fill="#F16723" d="M326.7,102.6l1.3,9.5l2.8-9.2c-0.9-0.3-1.8-0.4-2.8-0.4C327.6,102.5,327.1,102.6,326.7,102.6z"/>
					</g>
					<g>
						<path fill="#85BAE4" d="M326.7,102.6c-4.7,0.7-8.3,4.7-8.3,9.5c0,5.3,4.3,9.6,9.6,9.6c1.1,0,2.2-0.2,3.2-0.5l-3.2-9.1
							L326.7,102.6z"/>
					</g>
					<g>
						<path fill="#FFFFFF" d="M331.2,121.2c3.7-1.3,6.4-4.9,6.4-9.1c0-4.3-2.9-8-6.8-9.2l-2.8,9.2L331.2,121.2z"/>
					</g>
				</g>
			</g>
			<g>
				<g>
					<path fill="#FFFAF1" d="M293,113.4c0.7,4.7,4.7,8.3,9.5,8.3c5.3,0,9.6-4.3,9.6-9.6c0-1.1-0.2-2.2-0.5-3.2
						c-1.3-3.7-4.9-6.4-9.1-6.4c-4.3,0-8,2.9-9.2,6.8c-0.3,0.9-0.4,1.8-0.4,2.8C292.9,112.6,293,113,293,113.4z"/>
				</g>
				<g>
					<path fill="#85BAE4" d="M302.5,121.7c5.3,0,9.6-4.3,9.6-9.6c0-1.1-0.2-2.2-0.5-3.2l-9.1,3.2
						C302.5,112.1,302.5,116.9,302.5,121.7z"/>
				</g>
				<g>
					<path fill="#F16723" d="M303.9,121.6l-1.4-9.5l-4.5,8.4c1.1,0.6,2.4,1.1,4.6,1.1C303,121.7,303.5,121.7,303.9,121.6z"/>
				</g>
				<g>
					<path fill="#FFFFFF" d="M311.6,109c-1.3-3.7-4.9-6.4-9.1-6.4c-4.3,0-8,2.9-9.2,6.8l9.2,2.8L311.6,109z"/>
				</g>
			</g>
			<g>
				<g>
					<path fill="#F1F2F2" d="M354.9,121.6c4.7-0.7,8.3-4.7,8.3-9.5c0-5.3-4.3-9.6-9.6-9.6c-1.1,0-2.2,0.2-3.2,0.5
						c-3.7,1.3-6.4,4.9-6.4,9.1c0,4.3,2.9,8,6.8,9.2c0.9,0.3,1.8,0.4,2.8,0.4C354,121.7,354.4,121.7,354.9,121.6z"/>
				</g>
				<g>
					<path fill="#85BAE4" d="M363.1,112.1c0-5.3-4.3-9.6-9.6-9.6c-1.1,0-2.2,0.2-3.2,0.5l3.2,9.1
						C353.5,112.1,358.3,112.2,363.1,112.1z"/>
				</g>
				<g>
					<path fill="#F16723" d="M363,110.7l-9.5,1.4l8.4,4.5c0.6-1.1,1.1-2.4,1.1-4.6C363.1,111.6,363.1,111.2,363,110.7z"/>
				</g>
				<g>
					<path fill="#85BAE4" d="M350.4,103.1c-3.7,1.3-6.4,4.9-6.4,9.1c0,4.3,2.9,8,6.8,9.2l2.8-9.2L350.4,103.1z"/>
				</g>
			</g>
		</g>
	</g>
	<g>
		<line fill="none" stroke="#808285" stroke-width="1.4989" stroke-miterlimit="10" x1="203" y1="36.5" x2="454.7" y2="36.5"/>
		<line fill="none" stroke="#808285" stroke-width="1.4989" stroke-miterlimit="10" x1="203" y1="46.2" x2="454.7" y2="46.2"/>
		<line fill="none" stroke="#808285" stroke-width="1.4989" stroke-miterlimit="10" x1="203" y1="56" x2="454.7" y2="56"/>
		<line fill="none" stroke="#808285" stroke-width="1.4989" stroke-miterlimit="10" x1="203" y1="65.7" x2="454.7" y2="65.7"/>
		<line fill="none" stroke="#808285" stroke-width="1.4989" stroke-miterlimit="10" x1="203" y1="75.5" x2="454.7" y2="75.5"/>
	</g>
</g>
<g id="Line_Graph">
	<polyline fill="none" stroke="#FFFFFF" stroke-width="2" stroke-miterlimit="10" points="202.7,140.9 214.1,140.9 218.1,128.5 
		225.6,132.3 235.3,119.9 249.3,126.6 259.9,102.1 281.7,97.1 284.1,97.1 	"/>
	<path fill="none" stroke="#85BAE4" stroke-width="2" stroke-miterlimit="10" d="M265.4,106"/>
	<circle fill="#F16723" cx="259.9" cy="102.1" r="2.3"/>
	<circle fill="#F16723" cx="235.4" cy="119.6" r="2.3"/>
</g>
<g id="Laptop_1_">
	<g id="Laptop">
		<g>
			<path fill="#464E5D" d="M28.9,209.8V86.3c0-3.6,3-6.6,6.6-6.6h178.8c3.6,0,6.6,3,6.6,6.6v123.5H28.9z"/>
		</g>
		<g>
			<path fill="#D6D6D6" d="M0,205.2c2.4,3.6,6.4,5.9,11,5.9h227.9c4.6,0,8.6-2.4,11-5.9H0z"/>
		</g>
		<g>
			<rect x="37.3" y="88.3" fill="#D8DCE3" width="175.2" height="110.3"/>
		</g>
		<g>
			<path fill="#AAAFB5" d="M107.9,205.2c0.7,1.3,2,2.1,3.5,2.1h27c1.5,0,2.9-0.9,3.5-2.1H107.9z"/>
		</g>
		<g>
			<circle fill="#FFFFFF" cx="124.9" cy="84.1" r="0.8"/>
		</g>
		<g>
			<circle fill="#FFFFFF" cx="159.3" cy="136.9" r="1"/>
		</g>
		<g opacity="0.2">
			<polygon fill="#FFFFFF" points="37.3,198.6 37.3,198.6 212.5,198.6 212.5,88.3 			"/>
		</g>
	</g>
	<g>
		<circle fill="#FFFFFF" cx="124.9" cy="84.7" r="0.4"/>
	</g>
	<path fill="#E3E5E5" d="M212.3,97.1c0,0.7-1.5,1.2-3.3,1.2H40.8c-1.8,0-3.3-0.5-3.3-1.2v-7.4c0-0.7,1.5-1.2,3.3-1.2H209
		c1.8,0,3.3,0.5,3.3,1.2V97.1z"/>
	<g>
		<rect x="37.5" y="94.2" fill="#F4F4F4" width="174.8" height="104.5"/>
	</g>
	<g>
		<g>
			<circle fill="#F16673" cx="40.1" cy="91.4" r="0.8"/>
		</g>
		<g>
			<circle fill="#FFD14E" cx="43" cy="91.4" r="0.8"/>
		</g>
		<g>
			<circle fill="#6CC175" cx="45.9" cy="91.4" r="0.8"/>
		</g>
	</g>
	<path fill="none" stroke="#85BAE4" stroke-width="1.3031" stroke-miterlimit="10" d="M83.9,149.9"/>
	<g>
		<g>
			<g>
				<rect x="43.1" y="148.3" fill="#BCBEC0" width="52.9" height="43.9"/>
			</g>
			<g>
				<rect x="98.5" y="148.3" fill="#BCBEC0" width="52.9" height="43.9"/>
			</g>
			<g>
				<rect x="153.8" y="148.3" fill="#BCBEC0" width="52.9" height="43.9"/>
			</g>
		</g>
		<polyline fill="none" stroke="#FFFFFF" stroke-width="1.3031" stroke-miterlimit="10" points="43,180.5 50.5,180.5 53.1,172.5 
			58,174.9 64.3,166.8 73.4,171.2 80.4,155.3 94.5,152 96.1,152 		"/>
		<circle fill="#F16723" cx="80.4" cy="155.3" r="1.5"/>
		<circle fill="#F16723" cx="64.4" cy="166.7" r="1.5"/>
	</g>
	<g>
		<rect x="163.7" y="170.9" fill="#85BAE4" width="4.4" height="14"/>
		<rect x="171" y="168.2" fill="#85BAE4" width="4.4" height="16.8"/>
		<rect x="178.2" y="172.5" fill="#85BAE4" width="4.4" height="12.5"/>
		<rect x="185.5" y="167.8" fill="#85BAE4" width="4.4" height="17.2"/>
		<rect x="192.8" y="158.7" fill="#85BAE4" width="4.4" height="26.3"/>
	</g>
	<g>
		<g>
			<g>
				<g>
					<path fill="#FFFAF1" d="M130.9,177.8c-0.4-3-3-5.4-6.2-5.4c-3.4,0-6.2,2.8-6.2,6.2c0,0.7,0.1,1.4,0.3,2.1
						c0.9,2.4,3.2,4.2,5.9,4.2c2.8,0,5.2-1.9,6-4.4c0.2-0.6,0.3-1.2,0.3-1.8C131,178.4,130.9,178.1,130.9,177.8z"/>
				</g>
				<g>
					<path fill="#F16723" d="M130.9,177.8l-6.2,0.9l6,1.8c0.2-0.6,0.3-1.2,0.3-1.8C131,178.4,130.9,178.1,130.9,177.8z"/>
				</g>
				<g>
					<path fill="#85BAE4" d="M130.9,177.8c-0.4-3-3-5.4-6.2-5.4c-3.4,0-6.2,2.8-6.2,6.2c0,0.7,0.1,1.4,0.3,2.1l5.9-2.1L130.9,177.8z
						"/>
				</g>
				<g>
					<path fill="#FFFFFF" d="M118.8,180.8c0.9,2.4,3.2,4.2,5.9,4.2c2.8,0,5.2-1.9,6-4.4l-6-1.8L118.8,180.8z"/>
				</g>
			</g>
		</g>
		<g>
			<g>
				<path fill="#FFFAF1" d="M147.5,177.8c-0.4-3-3-5.4-6.2-5.4c-3.4,0-6.2,2.8-6.2,6.2c0,0.7,0.1,1.4,0.3,2.1
					c0.9,2.4,3.2,4.2,5.9,4.2c2.8,0,5.2-1.9,6-4.4c0.2-0.6,0.3-1.2,0.3-1.8C147.6,178.4,147.6,178.1,147.5,177.8z"/>
			</g>
			<g>
				<path fill="#85BAE4" d="M141.3,172.5c-3.4,0-6.2,2.8-6.2,6.2c0,0.7,0.1,1.4,0.3,2.1l5.9-2.1
					C141.3,178.7,141.4,175.6,141.3,172.5z"/>
			</g>
			<g>
				<path fill="#F16723" d="M140.4,172.5l0.9,6.2l3-5.5c-0.7-0.4-1.6-0.7-3-0.7C141,172.5,140.7,172.5,140.4,172.5z"/>
			</g>
			<g>
				<path fill="#FFFFFF" d="M135.4,180.8c0.9,2.4,3.2,4.2,5.9,4.2c2.8,0,5.2-1.9,6-4.4l-6-1.8L135.4,180.8z"/>
			</g>
		</g>
		<g>
			<g>
				<path fill="#F1F2F2" d="M114.3,177.8c-0.4-3-3-5.4-6.2-5.4c-3.4,0-6.2,2.8-6.2,6.2c0,0.7,0.1,1.4,0.3,2.1
					c0.9,2.4,3.2,4.2,5.9,4.2c2.8,0,5.2-1.9,6-4.4c0.2-0.6,0.3-1.2,0.3-1.8C114.3,178.4,114.3,178.1,114.3,177.8z"/>
			</g>
			<g>
				<path fill="#F16723" d="M108.1,172.5c-3.4,0-6.2,2.8-6.2,6.2c0,0.7,0.1,1.4,0.3,2.1l5.9-2.1
					C108.1,178.7,108.1,175.6,108.1,172.5z"/>
			</g>
			<g>
				<path fill="#FFFFFF" d="M107.2,172.5l0.9,6.2l3-5.5c-0.7-0.4-1.6-0.7-3-0.7C107.8,172.5,107.5,172.5,107.2,172.5z"/>
			</g>
			<g>
				<path fill="#85BAE4" d="M102.2,180.8c0.9,2.4,3.2,4.2,5.9,4.2c2.8,0,5.2-1.9,6-4.4l-6-1.8L102.2,180.8z"/>
			</g>
		</g>
	</g>
	<g>
		<g>
			<g>
				<g>
					<path fill="#FFFAF1" d="M123.8,155.6c-3,0.4-5.4,3-5.4,6.2c0,3.4,2.8,6.2,6.2,6.2c0.7,0,1.4-0.1,2.1-0.3
						c2.4-0.9,4.2-3.2,4.2-5.9c0-2.8-1.9-5.2-4.4-6c-0.6-0.2-1.2-0.3-1.8-0.3C124.4,155.5,124.1,155.6,123.8,155.6z"/>
				</g>
				<g>
					<path fill="#F16723" d="M123.8,155.6l0.9,6.2l1.8-6c-0.6-0.2-1.2-0.3-1.8-0.3C124.4,155.5,124.1,155.6,123.8,155.6z"/>
				</g>
				<g>
					<path fill="#85BAE4" d="M123.8,155.6c-3,0.4-5.4,3-5.4,6.2c0,3.4,2.8,6.2,6.2,6.2c0.7,0,1.4-0.1,2.1-0.3l-2.1-5.9L123.8,155.6z
						"/>
				</g>
				<g>
					<path fill="#FFFFFF" d="M126.8,167.7c2.4-0.9,4.2-3.2,4.2-5.9c0-2.8-1.9-5.2-4.4-6l-1.8,6L126.8,167.7z"/>
				</g>
			</g>
		</g>
		<g>
			<g>
				<path fill="#FFFAF1" d="M101.9,162.6c0.4,3,3,5.4,6.2,5.4c3.4,0,6.2-2.8,6.2-6.2c0-0.7-0.1-1.4-0.3-2.1
					c-0.9-2.4-3.2-4.2-5.9-4.2c-2.8,0-5.2,1.9-6,4.4c-0.2,0.6-0.3,1.2-0.3,1.8C101.9,162.1,101.9,162.4,101.9,162.6z"/>
			</g>
			<g>
				<path fill="#85BAE4" d="M108.1,168c3.4,0,6.2-2.8,6.2-6.2c0-0.7-0.1-1.4-0.3-2.1l-5.9,2.1C108.1,161.8,108.1,164.9,108.1,168z"
					/>
			</g>
			<g>
				<path fill="#F16723" d="M109,168l-0.9-6.2l-3,5.5c0.7,0.4,1.6,0.7,3,0.7C108.4,168,108.7,168,109,168z"/>
			</g>
			<g>
				<path fill="#FFFFFF" d="M114,159.7c-0.9-2.4-3.2-4.2-5.9-4.2c-2.8,0-5.2,1.9-6,4.4l6,1.8L114,159.7z"/>
			</g>
		</g>
		<g>
			<g>
				<path fill="#F1F2F2" d="M142.2,168c3-0.4,5.4-3,5.4-6.2c0-3.4-2.8-6.2-6.2-6.2c-0.7,0-1.4,0.1-2.1,0.3c-2.4,0.9-4.2,3.2-4.2,5.9
					c0,2.8,1.9,5.2,4.4,6c0.6,0.2,1.2,0.3,1.8,0.3C141.6,168,141.9,168,142.2,168z"/>
			</g>
			<g>
				<path fill="#85BAE4" d="M147.6,161.8c0-3.4-2.8-6.2-6.2-6.2c-0.7,0-1.4,0.1-2.1,0.3l2.1,5.9
					C141.3,161.8,144.5,161.8,147.6,161.8z"/>
			</g>
			<g>
				<path fill="#F16723" d="M147.5,160.9l-6.2,0.9l5.5,3c0.4-0.7,0.7-1.6,0.7-3C147.6,161.4,147.6,161.2,147.5,160.9z"/>
			</g>
			<g>
				<path fill="#85BAE4" d="M139.3,155.9c-2.4,0.9-4.2,3.2-4.2,5.9c0,2.8,1.9,5.2,4.4,6l1.8-6L139.3,155.9z"/>
			</g>
		</g>
	</g>
	<g>
		<rect x="42.9" y="100.9" fill="#D8D8D8" width="164" height="42.8"/>
	</g>
	<g>
		<line fill="none" stroke="#808285" stroke-width="0.9737" stroke-miterlimit="10" x1="43.2" y1="109.6" x2="206.9" y2="109.6"/>
		<line fill="none" stroke="#808285" stroke-width="0.9737" stroke-miterlimit="10" x1="43.2" y1="115.9" x2="206.9" y2="115.9"/>
		<line fill="none" stroke="#808285" stroke-width="0.9737" stroke-miterlimit="10" x1="43.2" y1="122.3" x2="206.9" y2="122.3"/>
		<line fill="none" stroke="#808285" stroke-width="0.9737" stroke-miterlimit="10" x1="43.2" y1="128.6" x2="206.9" y2="128.6"/>
		<line fill="none" stroke="#808285" stroke-width="0.9737" stroke-miterlimit="10" x1="43.2" y1="134.9" x2="206.9" y2="134.9"/>
	</g>
	<g opacity="0.2">
		<polygon fill="#FFFFFF" points="37.1,198.2 212.3,198.2 212.3,88 		"/>
	</g>
</g>
<g id="Tablet">
	<g id="tablet">
		<g>
			<g>
				<path fill="#A8AAAC" d="M516.6,203.3c0,4.8-4,8.8-8.8,8.8h-70.6c-4.8,0-8.8-4-8.8-8.8V92.9c0-4.8,4-8.8,8.8-8.8h70.6
					c4.8,0,8.8,4,8.8,8.8V203.3z"/>
			</g>
		</g>
		<g>
			<g>
				<path fill="#464E5D" d="M516.6,202.7c0,4.8-4,8.8-8.8,8.8h-70.6c-4.8,0-8.8-4-8.8-8.8V92.3c0-4.8,4-8.8,8.8-8.8h70.6
					c4.8,0,8.8,4,8.8,8.8V202.7z"/>
			</g>
		</g>
		<g>
			<g>
				<rect x="432.1" y="101" fill="#F4F4F4" width="80.8" height="93"/>
			</g>
		</g>
		<g>
			<g>
				<rect x="516.3" y="103.7" fill="#3E3E3E" width="0.6" height="5.2"/>
			</g>
		</g>
		<g>
			<g>
				<rect x="516.3" y="112.5" fill="#3E3E3E" width="0.6" height="5.2"/>
			</g>
		</g>
		<g>
			<g>
				<rect x="516.3" y="121.3" fill="#3E3E3E" width="0.6" height="5.2"/>
			</g>
		</g>
		<g>
			<g>
				<circle fill="#FFFFFF" cx="480.4" cy="90.1" r="1.1"/>
			</g>
		</g>
		<g>
			<g>
				<path fill="#FFFFFF" d="M477.2,90.8h-13.1c-0.4,0-0.7-0.3-0.7-0.7c0-0.4,0.3-0.7,0.7-0.7h13.1c0.4,0,0.7,0.3,0.7,0.7
					C477.9,90.5,477.6,90.8,477.2,90.8z"/>
			</g>
		</g>
		<g>
			<path fill="#FFFFFF" d="M472.5,200.1c-1.7,0-3,1.4-3,3c0,1.7,1.4,3,3,3c1.7,0,3-1.4,3-3C475.5,201.4,474.1,200.1,472.5,200.1z"/>
		</g>
	</g>
	<g>
		<circle fill="#FFFFFF" cx="518.2" cy="96.8" r="0.4"/>
	</g>
	<g>
		<rect x="434.3" y="103.7" fill="#D8D8D8" width="76.5" height="42.8"/>
	</g>
	<path fill="none" stroke="#85BAE4" stroke-width="1.3031" stroke-miterlimit="10" d="M477.2,162"/>
	
		<polyline display="none" fill="none" stroke="#808285" stroke-width="0.9773" stroke-linecap="round" stroke-linejoin="round" stroke-miterlimit="10" points="
		434.8,113.5 437,113.5 440.1,113.4 441.9,108.3 442.6,115.9 443.2,113.4 445,113.4 446.2,113.4 449.9,113.4 452.5,113.4 
		453.8,113.4 453.8,113.4 456.4,113.4 458.7,111.1 459.3,116.2 460,113.4 461.9,113.4 463.2,113.3 463.2,113.3 464.3,113.3 
		464.7,112.3 465.2,113.2 466.9,113.2 468.7,108.3 469.6,116.6 470.5,113.2 477.6,113.2 478.9,113.2 478.9,113.2 480.6,113.2 
		481.9,113.2 481.9,113.2 482.6,112.5 483.3,113.2 488,113.2 489.4,112.5 489.8,116.6 490.8,113.2 493.8,113.2 494.5,112 
		495.5,113.2 500.9,113.2 504.3,106.7 505.9,113.2 507.2,110.6 508.3,113.2 509.2,111.9 510.4,113.1 	"/>
	
		<polyline display="none" fill="none" stroke="#808285" stroke-width="0.9773" stroke-linecap="round" stroke-linejoin="round" stroke-miterlimit="10" points="
		434.8,126.6 437,126.6 440.1,126.5 441.9,121.5 442.6,129 443.2,126.5 445,126.5 446.2,126.5 446.7,126.5 449.3,126.5 449.8,125.2 
		450.6,126.5 453.2,126.5 454.2,125.7 456,129.3 457.4,126.5 466.9,126.3 469.1,125.7 469.6,129.7 470.5,126.3 477.6,126.3 
		478.3,125.2 478.9,126.3 482.7,126.3 484.9,118.8 485.7,127 485.6,126.3 493.8,126.3 494.5,125.1 495.5,126.3 502.9,126.3 
		505.3,118.9 507.1,126.3 507.1,126.3 510.4,126.2 	"/>
	
		<polyline display="none" fill="none" stroke="#808285" stroke-width="0.9773" stroke-linecap="round" stroke-linejoin="round" stroke-miterlimit="10" points="
		434.8,138.6 436.1,138.5 437.2,131.4 438.2,138.2 439.3,138.5 445,138.5 446.2,135.3 447.3,138.5 452.5,138.5 453.1,137.2 
		453.8,138.5 456.4,138.5 457.6,137.3 459.3,141.3 460,138.5 461.9,138.5 464.3,138.4 464.7,137.4 465.2,138.3 466.9,138.3 
		467.8,135.9 469,139.9 470.5,138.3 477.6,138.3 478.1,139.3 478.9,138.3 480.6,138.3 481.4,137.1 481.9,138.3 482.6,137.6 
		483.3,138.3 488,138.3 489,133.5 489.8,141.7 490.8,138.3 493.8,138.3 494.5,137.1 495.5,138.3 500.9,138.3 502.6,133.5 
		504.2,141.7 505.1,138.3 508.3,138.3 510.4,138.2 510.4,138.2 	"/>
	<g>
		<rect x="434.8" y="148.9" fill="#BCBEC0" width="75.6" height="42.5"/>
	</g>
	<g>
		<g>
			<g>
				<g>
					<path fill="#FFFAF1" d="M479.7,179.6c-0.5-3.5-3.5-6.2-7.1-6.2c-4,0-7.2,3.2-7.2,7.2c0,0.8,0.1,1.6,0.4,2.4
						c1,2.8,3.6,4.8,6.8,4.8c3.2,0,6-2.1,6.8-5.1c0.2-0.7,0.3-1.4,0.3-2.1C479.8,180.3,479.7,180,479.7,179.6z"/>
				</g>
				<g>
					<path fill="#F16723" d="M479.7,179.6l-7.1,1l6.8,2.1c0.2-0.7,0.3-1.4,0.3-2.1C479.8,180.3,479.7,180,479.7,179.6z"/>
				</g>
				<g>
					<path fill="#85BAE4" d="M479.7,179.6c-0.5-3.5-3.5-6.2-7.1-6.2c-4,0-7.2,3.2-7.2,7.2c0,0.8,0.1,1.6,0.4,2.4l6.8-2.4
						L479.7,179.6z"/>
				</g>
				<g>
					<path fill="#FFFFFF" d="M465.9,183c1,2.8,3.6,4.8,6.8,4.8c3.2,0,6-2.1,6.8-5.1l-6.8-2.1L465.9,183z"/>
				</g>
			</g>
		</g>
		<g>
			<g>
				<g>
					<path fill="#FFFAF1" d="M471.6,154.1c-3.5,0.5-6.2,3.5-6.2,7.1c0,4,3.2,7.2,7.2,7.2c0.8,0,1.6-0.1,2.4-0.4
						c2.8-1,4.8-3.6,4.8-6.8c0-3.2-2.1-6-5.1-6.8c-0.7-0.2-1.4-0.3-2.1-0.3C472.3,154.1,471.9,154.1,471.6,154.1z"/>
				</g>
				<g>
					<path fill="#F16723" d="M471.6,154.1l1,7.1l2.1-6.8c-0.7-0.2-1.4-0.3-2.1-0.3C472.3,154.1,471.9,154.1,471.6,154.1z"/>
				</g>
				<g>
					<path fill="#85BAE4" d="M471.6,154.1c-3.5,0.5-6.2,3.5-6.2,7.1c0,4,3.2,7.2,7.2,7.2c0.8,0,1.6-0.1,2.4-0.4l-2.4-6.8
						L471.6,154.1z"/>
				</g>
				<g>
					<path fill="#FFFFFF" d="M475,168c2.8-1,4.8-3.6,4.8-6.8c0-3.2-2.1-6-5.1-6.8l-2.1,6.8L475,168z"/>
				</g>
			</g>
		</g>
	</g>
	<g>
		<g>
			<g>
				<path fill="#F1F2F2" d="M457.2,179.6c-0.5-3.5-3.5-6.2-7.1-6.2c-4,0-7.2,3.2-7.2,7.2c0,0.8,0.1,1.6,0.4,2.4
					c1,2.8,3.6,4.8,6.8,4.8c3.2,0,6-2.1,6.8-5.1c0.2-0.7,0.3-1.4,0.3-2.1C457.2,180.3,457.2,180,457.2,179.6z"/>
			</g>
			<g>
				<path fill="#F16723" d="M450.1,173.5c-4,0-7.2,3.2-7.2,7.2c0,0.8,0.1,1.6,0.4,2.4l6.8-2.4C450.1,180.6,450.1,177,450.1,173.5z"
					/>
			</g>
			<g>
				<path fill="#FFFFFF" d="M449,173.5l1,7.1l3.4-6.3c-0.8-0.4-1.8-0.9-3.4-0.9C449.7,173.5,449.4,173.5,449,173.5z"/>
			</g>
			<g>
				<path fill="#85BAE4" d="M443.3,183c1,2.8,3.6,4.8,6.8,4.8c3.2,0,6-2.1,6.8-5.1l-6.8-2.1L443.3,183z"/>
			</g>
		</g>
		<g>
			<g>
				<path fill="#FFFAF1" d="M443,162.2c0.5,3.5,3.5,6.2,7.1,6.2c4,0,7.2-3.2,7.2-7.2c0-0.8-0.1-1.6-0.4-2.4c-1-2.8-3.6-4.8-6.8-4.8
					c-3.2,0-6,2.1-6.8,5.1c-0.2,0.7-0.3,1.4-0.3,2.1C442.9,161.6,442.9,161.9,443,162.2z"/>
			</g>
			<g>
				<path fill="#85BAE4" d="M450.1,168.4c4,0,7.2-3.2,7.2-7.2c0-0.8-0.1-1.6-0.4-2.4l-6.8,2.4C450.1,161.2,450,164.8,450.1,168.4z"
					/>
			</g>
			<g>
				<path fill="#F16723" d="M451.1,168.3l-1-7.1l-3.4,6.3c0.8,0.4,1.8,0.9,3.4,0.9C450.5,168.4,450.8,168.3,451.1,168.3z"/>
			</g>
			<g>
				<path fill="#FFFFFF" d="M456.8,158.9c-1-2.8-3.6-4.8-6.8-4.8c-3.2,0-6,2.1-6.8,5.1l6.8,2.1L456.8,158.9z"/>
			</g>
		</g>
	</g>
	<g>
		<g>
			<g>
				<path fill="#FFFAF1" d="M502.2,179.6c-0.5-3.5-3.5-6.2-7.1-6.2c-4,0-7.2,3.2-7.2,7.2c0,0.8,0.1,1.6,0.4,2.4
					c1,2.8,3.6,4.8,6.8,4.8c3.2,0,6-2.1,6.8-5.1c0.2-0.7,0.3-1.4,0.3-2.1C502.3,180.3,502.3,180,502.2,179.6z"/>
			</g>
			<g>
				<path fill="#85BAE4" d="M495.1,173.5c-4,0-7.2,3.2-7.2,7.2c0,0.8,0.1,1.6,0.4,2.4l6.8-2.4C495.1,180.6,495.2,177,495.1,173.5z"
					/>
			</g>
			<g>
				<path fill="#F16723" d="M494.1,173.5l1,7.1l3.4-6.3c-0.8-0.4-1.8-0.9-3.4-0.9C494.8,173.5,494.4,173.5,494.1,173.5z"/>
			</g>
			<g>
				<path fill="#FFFFFF" d="M488.4,183c1,2.8,3.6,4.8,6.8,4.8c3.2,0,6-2.1,6.8-5.1l-6.8-2.1L488.4,183z"/>
			</g>
		</g>
		<g>
			<g>
				<path fill="#F1F2F2" d="M496.1,168.3c3.5-0.5,6.2-3.5,6.2-7.1c0-4-3.2-7.2-7.2-7.2c-0.8,0-1.6,0.1-2.4,0.4
					c-2.8,1-4.8,3.6-4.8,6.8c0,3.2,2.1,6,5.1,6.8c0.7,0.2,1.4,0.3,2.1,0.3C495.5,168.4,495.8,168.3,496.1,168.3z"/>
			</g>
			<g>
				<path fill="#85BAE4" d="M502.3,161.2c0-4-3.2-7.2-7.2-7.2c-0.8,0-1.6,0.1-2.4,0.4l2.4,6.8C495.1,161.2,498.7,161.3,502.3,161.2z
					"/>
			</g>
			<g>
				<path fill="#F16723" d="M502.2,160.2l-7.1,1l6.3,3.4c0.4-0.8,0.9-1.8,0.9-3.4C502.3,160.8,502.3,160.5,502.2,160.2z"/>
			</g>
			<g>
				<path fill="#85BAE4" d="M492.8,154.5c-2.8,1-4.8,3.6-4.8,6.8c0,3.2,2.1,6,5.1,6.8l2.1-6.8L492.8,154.5z"/>
			</g>
		</g>
	</g>
	<g>
		<line fill="none" stroke="#808285" stroke-width="0.6647" stroke-miterlimit="10" x1="434.4" y1="112.5" x2="510.7" y2="112.5"/>
		<line fill="none" stroke="#808285" stroke-width="0.6647" stroke-miterlimit="10" x1="434.4" y1="118.8" x2="510.7" y2="118.8"/>
		<line fill="none" stroke="#808285" stroke-width="0.6647" stroke-miterlimit="10" x1="434.4" y1="125.1" x2="510.7" y2="125.1"/>
		<line fill="none" stroke="#808285" stroke-width="0.6647" stroke-miterlimit="10" x1="434.4" y1="131.5" x2="510.7" y2="131.5"/>
		<line fill="none" stroke="#808285" stroke-width="0.6647" stroke-miterlimit="10" x1="434.4" y1="137.8" x2="510.7" y2="137.8"/>
	</g>
	<g opacity="0.2">
		<polygon fill="#FFFFFF" points="432.1,194 512.9,194 512.9,101 		"/>
	</g>
</g>
<g id="Phone_1_">
	<g id="Phone">
		<g>
			<g>
				<path fill="#A8AAAC" d="M543.3,214.7c0,3.1-2.5,5.6-5.6,5.6h-26.8c-3.1,0-5.6-2.5-5.6-5.6v-70.5c0-3.1,2.5-5.6,5.6-5.6h26.8
					c3.1,0,5.6,2.5,5.6,5.6V214.7z"/>
			</g>
		</g>
		<g>
			<g>
				<path fill="#464E5D" d="M543.3,214.3c0,3.1-2.5,5.6-5.6,5.6h-26.8c-3.1,0-5.6-2.5-5.6-5.6v-70.5c0-3.1,2.5-5.6,5.6-5.6h26.8
					c3.1,0,5.6,2.5,5.6,5.6V214.3z"/>
			</g>
		</g>
		<g>
			<circle fill="#FFFFFF" cx="524.3" cy="214.6" r="1.9"/>
		</g>
		<g>
			<g>
				<rect x="507.6" y="149.4" fill="#F4F4F4" width="33.4" height="59.4"/>
			</g>
		</g>
		<g>
			<g>
				<rect x="543.1" y="151.1" fill="#3E3E3E" width="0.4" height="3.3"/>
			</g>
		</g>
		<g>
			<g>
				<rect x="543.1" y="156.7" fill="#3E3E3E" width="0.4" height="3.3"/>
			</g>
		</g>
		<g>
			<g>
				<rect x="543.1" y="162.4" fill="#3E3E3E" width="0.4" height="3.3"/>
			</g>
		</g>
		<g>
			<g>
				<circle fill="#FFFFFF" cx="530.5" cy="142.4" r="0.7"/>
			</g>
		</g>
		<g>
			<g>
				<path fill="#FFFFFF" d="M528.4,142.9h-8.4c-0.2,0-0.4-0.2-0.4-0.4c0-0.2,0.2-0.4,0.4-0.4h8.4c0.2,0,0.4,0.2,0.4,0.4
					C528.9,142.7,528.7,142.9,528.4,142.9z"/>
			</g>
		</g>
		<g>
			<polygon fill="#EE4D50" points="517.2,181.3 517.2,181.3 517.2,181.3 			"/>
		</g>
	</g>
	<g>
		<rect x="509.3" y="151.2" fill="#D8D8D8" width="30.1" height="26.9"/>
	</g>
	<path fill="none" stroke="#85BAE4" stroke-width="0.8174" stroke-miterlimit="10" d="M536.2,187.8"/>
	
		<polyline display="none" fill="none" stroke="#808285" stroke-width="0.6131" stroke-linecap="round" stroke-linejoin="round" stroke-miterlimit="10" points="
		509.6,157.4 510.9,157.4 512.9,157.4 514.1,154.2 514.5,158.9 514.9,157.4 515.9,157.4 516.7,157.4 519.1,157.4 520.7,157.4 
		521.5,157.4 521.5,157.4 523.1,157.4 524.5,155.9 524.9,159.1 525.4,157.3 528.1,157.3 528.4,156.6 528.7,157.2 529.7,157.2 
		530.8,154.2 531.4,159.3 532,157.2 536.4,157.2 537.2,157.2 537.2,157.2 538.3,157.2 539.1,155.2 	"/>
	
		<polyline display="none" fill="none" stroke="#808285" stroke-width="0.6131" stroke-linecap="round" stroke-linejoin="round" stroke-miterlimit="10" points="
		509.6,165.6 510.9,165.6 512.9,165.6 514.1,162.4 514.5,167.1 514.9,165.6 515.9,165.6 516.7,165.6 517,165.6 518.7,165.6 
		519,164.8 519.5,165.6 521.1,165.6 521.8,165.1 522.9,167.3 523.8,165.5 529.7,165.4 531.1,165.1 531.4,167.6 532,165.4 
		536.4,165.4 536.9,164.8 537.2,165.5 539.1,165.5 	"/>
	
		<path fill="none" stroke="#808285" stroke-width="0.6131" stroke-linecap="round" stroke-linejoin="round" stroke-miterlimit="10" d="
		M553.1,175.1"/>
	
		<polyline display="none" fill="none" stroke="#808285" stroke-width="0.6131" stroke-linecap="round" stroke-linejoin="round" stroke-miterlimit="10" points="
		509.6,173.2 510.4,173.1 511.1,168.6 511.7,172.9 512.4,173.1 515.9,173.1 516.7,171.1 517.4,173.1 520.7,173.1 521.1,172.3 
		521.5,173.1 523.1,173.1 523.9,172.3 524.9,174.8 525.4,173.1 526.6,173.1 528.1,173 528.4,172.4 528.7,172.9 529.7,172.9 
		530.3,171.5 531,174 532,172.9 536.4,172.9 536.7,173.6 537.2,173 538.3,173 538.8,172.2 539.1,172.9 	"/>
	<g>
		<rect x="509.4" y="180" fill="#BCBEC0" width="29.9" height="26.6"/>
	</g>
	<g display="none">
		<g display="inline">
			<g>
				<g>
					<path fill="#FFFAF1" d="M536.1,198.7c-0.3-2.4-2.4-4.3-4.9-4.3c-2.8,0-5,2.2-5,5c0,0.6,0.1,1.1,0.3,1.6
						c0.7,1.9,2.5,3.3,4.7,3.3c2.2,0,4.1-1.5,4.8-3.5c0.1-0.5,0.2-0.9,0.2-1.5C536.1,199.1,536.1,198.9,536.1,198.7z"/>
				</g>
				<g>
					<path fill="#F16723" d="M536.1,198.7l-4.9,0.7l4.8,1.5c0.1-0.5,0.2-0.9,0.2-1.5C536.1,199.1,536.1,198.9,536.1,198.7z"/>
				</g>
				<g>
					<path fill="#85BAE4" d="M536.1,198.7c-0.3-2.4-2.4-4.3-4.9-4.3c-2.8,0-5,2.2-5,5c0,0.6,0.1,1.1,0.3,1.6l4.7-1.6L536.1,198.7z"
						/>
				</g>
				<g>
					<path fill="#FFFFFF" d="M526.4,201c0.7,1.9,2.5,3.3,4.7,3.3c2.2,0,4.1-1.5,4.8-3.5l-4.8-1.5L526.4,201z"/>
				</g>
			</g>
		</g>
		<g display="inline">
			<g>
				<path fill="#F1F2F2" d="M522.6,198.7c-0.3-2.4-2.4-4.3-4.9-4.3c-2.8,0-5,2.2-5,5c0,0.6,0.1,1.1,0.3,1.6c0.7,1.9,2.5,3.3,4.7,3.3
					c2.2,0,4.1-1.5,4.8-3.5c0.1-0.5,0.2-0.9,0.2-1.5C522.6,199.1,522.6,198.9,522.6,198.7z"/>
			</g>
			<g>
				<path fill="#F16723" d="M517.7,194.4c-2.8,0-5,2.2-5,5c0,0.6,0.1,1.1,0.3,1.6l4.7-1.6C517.7,199.4,517.7,196.9,517.7,194.4z"/>
			</g>
			<g>
				<path fill="#FFFFFF" d="M516.9,194.4l0.7,4.9l2.4-4.4c-0.6-0.3-1.3-0.6-2.4-0.6C517.4,194.4,517.2,194.4,516.9,194.4z"/>
			</g>
			<g>
				<path fill="#85BAE4" d="M512.9,201c0.7,1.9,2.5,3.3,4.7,3.3c2.2,0,4.1-1.5,4.8-3.5l-4.8-1.5L512.9,201z"/>
			</g>
		</g>
		<g display="inline">
			<g>
				<g>
					<g>
						<path fill="#FFFAF1" d="M530.4,182.9c-2.4,0.3-4.3,2.4-4.3,4.9c0,2.8,2.2,5,5,5c0.6,0,1.1-0.1,1.6-0.3
							c1.9-0.7,3.3-2.5,3.3-4.7c0-2.2-1.5-4.1-3.5-4.8c-0.5-0.1-0.9-0.2-1.5-0.2C530.9,182.9,530.7,182.9,530.4,182.9z"/>
					</g>
					<g>
						<path fill="#F16723" d="M530.4,182.9l0.7,4.9l1.5-4.8c-0.5-0.1-0.9-0.2-1.5-0.2C530.9,182.9,530.7,182.9,530.4,182.9z"/>
					</g>
					<g>
						<path fill="#85BAE4" d="M530.4,182.9c-2.4,0.3-4.3,2.4-4.3,4.9c0,2.8,2.2,5,5,5c0.6,0,1.1-0.1,1.6-0.3l-1.6-4.7L530.4,182.9z"
							/>
					</g>
					<g>
						<path fill="#FFFFFF" d="M532.8,192.6c1.9-0.7,3.3-2.5,3.3-4.7c0-2.2-1.5-4.1-3.5-4.8l-1.5,4.8L532.8,192.6z"/>
					</g>
				</g>
			</g>
			<g>
				<g>
					<path fill="#FFFAF1" d="M512.7,188.6c0.3,2.4,2.4,4.3,4.9,4.3c2.8,0,5-2.2,5-5c0-0.6-0.1-1.1-0.3-1.6c-0.7-1.9-2.5-3.3-4.7-3.3
						c-2.2,0-4.1,1.5-4.8,3.5c-0.1,0.5-0.2,0.9-0.2,1.5C512.7,188.1,512.7,188.3,512.7,188.6z"/>
				</g>
				<g>
					<path fill="#85BAE4" d="M517.7,192.9c2.8,0,5-2.2,5-5c0-0.6-0.1-1.1-0.3-1.6l-4.7,1.6C517.7,187.9,517.6,190.4,517.7,192.9z"/>
				</g>
				<g>
					<path fill="#F16723" d="M518.4,192.8l-0.7-4.9l-2.4,4.4c0.6,0.3,1.3,0.6,2.4,0.6C517.9,192.9,518.2,192.8,518.4,192.8z"/>
				</g>
				<g>
					<path fill="#FFFFFF" d="M522.4,186.2c-0.7-1.9-2.5-3.3-4.7-3.3c-2.2,0-4.1,1.5-4.8,3.5l4.8,1.5L522.4,186.2z"/>
				</g>
			</g>
		</g>
	</g>
	<g display="none">
		<g display="inline">
			<g>
				<path fill="#FFFAF1" d="M666,190.6c-0.3-2.2-2.2-3.9-4.4-3.9c-2.5,0-4.5,2-4.5,4.5c0,0.5,0.1,1,0.2,1.5c0.6,1.8,2.3,3,4.2,3
					c2,0,3.7-1.3,4.3-3.2c0.1-0.4,0.2-0.9,0.2-1.3C666.1,191,666,190.8,666,190.6z"/>
			</g>
			<g>
				<path fill="#85BAE4" d="M661.6,186.7c-2.5,0-4.5,2-4.5,4.5c0,0.5,0.1,1,0.2,1.5l4.2-1.5C661.6,191.2,661.6,188.9,661.6,186.7z"
					/>
			</g>
			<g>
				<path fill="#F16723" d="M660.9,186.7l0.7,4.4l2.1-4c-0.5-0.3-1.1-0.5-2.2-0.5C661.3,186.7,661.1,186.7,660.9,186.7z"/>
			</g>
			<g>
				<path fill="#FFFFFF" d="M657.3,192.7c0.6,1.8,2.3,3,4.2,3c2,0,3.7-1.3,4.3-3.2l-4.3-1.3L657.3,192.7z"/>
			</g>
		</g>
		<g display="inline">
			<g>
				<path fill="#F1F2F2" d="M662.2,183.4c2.2-0.3,3.9-2.2,3.9-4.4c0-2.5-2-4.5-4.5-4.5c-0.5,0-1,0.1-1.5,0.2c-1.8,0.6-3,2.3-3,4.2
					c0,2,1.3,3.7,3.2,4.3c0.4,0.1,0.9,0.2,1.3,0.2C661.8,183.5,662,183.5,662.2,183.4z"/>
			</g>
			<g>
				<path fill="#85BAE4" d="M666.1,179c0-2.5-2-4.5-4.5-4.5c-0.5,0-1,0.1-1.5,0.2l1.5,4.2C661.6,179,663.8,179,666.1,179z"/>
			</g>
			<g>
				<path fill="#F16723" d="M666,178.3l-4.4,0.7l4,2.1c0.3-0.5,0.5-1.1,0.5-2.2C666.1,178.8,666,178.6,666,178.3z"/>
			</g>
			<g>
				<path fill="#85BAE4" d="M660.1,174.8c-1.8,0.6-3,2.3-3,4.2c0,2,1.3,3.7,3.2,4.3l1.3-4.3L660.1,174.8z"/>
			</g>
		</g>
	</g>
	<g>
		<line fill="none" stroke="#808285" stroke-width="0.3674" stroke-miterlimit="10" x1="509.4" y1="154.8" x2="539.3" y2="154.8"/>
		<line fill="none" stroke="#808285" stroke-width="0.3674" stroke-miterlimit="10" x1="509.4" y1="159.7" x2="539.3" y2="159.7"/>
		<line fill="none" stroke="#808285" stroke-width="0.3674" stroke-miterlimit="10" x1="509.4" y1="164.7" x2="539.3" y2="164.7"/>
		<line fill="none" stroke="#808285" stroke-width="0.3674" stroke-miterlimit="10" x1="509.4" y1="169.6" x2="539.3" y2="169.6"/>
		<line fill="none" stroke="#808285" stroke-width="0.3674" stroke-miterlimit="10" x1="509.4" y1="174.5" x2="539.3" y2="174.5"/>
	</g>
	<g>
		<rect x="512.3" y="194.5" fill="#85BAE4" width="3.2" height="10.1"/>
		<rect x="517.6" y="192.5" fill="#85BAE4" width="3.2" height="12"/>
		<rect x="522.8" y="195.6" fill="#85BAE4" width="3.2" height="9"/>
		<rect x="528" y="192.2" fill="#85BAE4" width="3.2" height="12.3"/>
		<rect x="533.2" y="185.7" fill="#85BAE4" width="3.2" height="18.9"/>
	</g>
	<g opacity="0.2">
		<polygon fill="#FFFFFF" points="507.7,208.8 541.1,208.8 541.1,149.4 		"/>
	</g>
</g>
</svg>
