<?xml version="1.0" encoding="utf-8"?>
<!-- Generator: Adobe Illustrator 18.0.0, SVG Export Plug-In . SVG Version: 6.00 Build 0)  -->
<!DOCTYPE svg PUBLIC "-//W3C//DTD SVG 1.1//EN" "http://www.w3.org/Graphics/SVG/1.1/DTD/svg11.dtd">
<svg version="1.1" id="Layer_1" xmlns="http://www.w3.org/2000/svg" xmlns:xlink="http://www.w3.org/1999/xlink" x="0px" y="0px"
	 viewBox="11.7 9.6 574.6 582.9" enable-background="new 11.7 9.6 574.6 582.9" xml:space="preserve">
<g id="Layer_1_1_">
</g>
<g id="Isolation_Mode">
	<path fill="#999999" d="M351.6,315c-3-4.8-9-6.6-13.8-4.8l-22.2,8.4c-4.8,1.8-12,0-15.6-3.6l-16.2-15.6c-4.2-3.6-6-10.2-4.8-15
		l7.2-22.2c1.8-4.8-1.2-10.8-6-13.2l-44.4-16.8c-5.4-1.2-10.8,1.2-13.2,6l-9.6,21.6c-2.4,4.8-8.4,8.4-13.8,8.4l-22.8,0.6
		c-5.4,0.6-11.4-3-13.8-7.8l-10.2-21c-2.4-4.8-8.4-7.2-13.8-6c0,0-12,3.6-22.2,8.4c-10.2,4.8-21,11.4-21,11.4c-4.8,3-6.6,9-4.8,14.4
		l8.4,22.2c1.8,4.8,0,12-3.6,15.6l-15.6,16.2c-3.6,4.2-10.2,6-15,4.8l-22.2-7.2c-4.8-1.8-10.8,1.2-13.2,6L12,369
		c-1.2,5.4,1.2,10.8,6,13.2l21.6,9.6c4.8,2.4,8.4,8.4,8.4,13.8l0.6,22.8c0.6,5.4-3,11.4-7.8,13.8l-21,10.8c-4.8,2.4-7.2,8.4-6,13.8
		c0,0,3.6,12,8.4,22.2s11.4,21,11.4,21c3,4.2,9.6,6,14.4,4.2l22.2-8.4c4.8-1.8,12,0,15.6,3.6L102,525c4.2,3.6,6,10.2,4.8,15
		l-7.2,22.2c-1.8,4.8,1.2,10.8,6,13.2l44.4,16.8c5.4,1.2,10.8-1.2,13.2-6l9.6-21.6c2.4-4.8,8.4-8.4,13.8-8.4l22.8-0.6
		c5.4-0.6,11.4,3,13.8,7.8l10.8,21c2.4,4.8,8.4,7.2,13.8,6c0,0,12-3.6,22.2-8.4c10.2-4.8,21-11.4,21-11.4c4.8-3,6.6-9,4.8-14.4
		l-8.4-21.6c-1.8-4.8,0-12,3.6-15.6l15.6-16.2c3.6-4.2,10.2-6,15-4.8l22.2,7.2c4.8,1.8,10.8-1.2,13.2-6l16.8-44.4
		c1.2-5.4-1.2-10.8-6-13.2l-21.6-9.6c-4.8-2.4-8.4-8.4-8.4-13.8l-0.6-22.8c-0.6-5.4,3-11.4,7.8-13.8l21-10.8c4.8-2.4,7.2-8.4,6-13.8
		c0,0-3.6-12-8.4-22.2C358.2,325.2,351.6,315,351.6,315z M212.4,455.4c-24,10.8-51.6,0-62.4-24c-10.8-24,0-51.6,24-62.4
		c24-10.8,51.6,0,62.4,24C246.6,416.4,236.4,444.6,212.4,455.4z"/>
	<path fill="#999999" d="M585,150c-0.6-4.8-4.8-8.4-9.6-9l-20.4-1.2c-4.8,0-9.6-4.2-10.8-8.4l-7.8-18c-2.4-4.2-1.2-10.2,1.8-13.8
		l13.8-15c3-3.6,3-9,0-12.6l-29.4-28.8c-3.6-3-9-3-12.6,0L495,57c-3.6,3-9.6,4.2-13.8,1.8l-18-7.2c-4.2-1.2-8.4-6.6-8.4-10.8
		l-1.2-20.4c0-4.8-4.2-9-9-9.6c0,0-10.8-1.2-20.4-1.2c-9.6,0-20.4,1.8-20.4,1.8c-4.8,0.6-8.4,4.8-9,9.6l-1.2,20.4
		c0,4.8-4.2,9.6-8.4,10.8l-18,7.8c-4.2,2.4-10.2,1.2-13.8-1.8l-15-13.8c-3.6-3-9-3-12.6,0L297,73.8c-3,3.6-3,9,0,12.6l13.8,15
		c3,3.6,4.2,9.6,1.8,13.8l-7.2,18c-1.2,4.2-6.6,8.4-10.8,8.4l-20.4,1.2c-4.8,0-9,4.2-9.6,9c0,0-1.2,10.8-1.2,20.4s1.8,20.4,1.8,20.4
		c0.6,4.8,4.8,8.4,9.6,9l20.4,1.2c4.8,0,9.6,4.2,10.8,8.4l7.8,18c1.8,4.2,1.2,10.2-1.8,13.8l-14.4,15c-3,3.6-3,9,0,12.6l29.4,28.8
		c3.6,3,9,3,12.6,0l15-13.8c3.6-3,9.6-4.2,13.8-1.8l18,7.2c4.2,1.2,8.4,6.6,8.4,10.8l1.2,20.4c0,4.8,4.2,9,9,9.6
		c0,0,10.8,1.2,20.4,1.2c9.6,0,20.4-1.8,20.4-1.8c4.8-0.6,8.4-4.8,9-9.6l1.2-20.4c0-4.8,4.2-9.6,8.4-10.8l18-7.8
		c4.2-1.8,10.2-1.2,13.8,1.8l15,13.8c3.6,3,9,3,12.6,0l28.8-29.4c3-3.6,3-9,0-12.6l-13.8-15c-3-3.6-4.2-9.6-1.8-13.8l7.2-18
		c1.2-4.2,6.6-8.4,10.8-8.4l20.4-1.2c4.8,0,9-4.2,9.6-9c0,0,1.2-10.8,1.2-20.4C586.8,160.8,585,150,585,150z M424.8,218.4
		c-25.8,0-46.8-21-47.4-46.8c0-25.8,21-46.8,46.8-47.4c25.8,0,46.8,21,47.4,46.8C471.6,197.4,450.6,218.4,424.8,218.4z"/>
</g>
</svg>
