<?xml version="1.0" encoding="utf-8"?>
<!-- Generator: Adobe Illustrator 18.0.0, SVG Export Plug-In . SVG Version: 6.00 Build 0)  -->
<!DOCTYPE svg PUBLIC "-//W3C//DTD SVG 1.1//EN" "http://www.w3.org/Graphics/SVG/1.1/DTD/svg11.dtd">
<svg version="1.1" id="Layer_1" xmlns="http://www.w3.org/2000/svg" xmlns:xlink="http://www.w3.org/1999/xlink" x="0px" y="0px"
	 viewBox="111.6 43.2 378.6 517.8" enable-background="new 111.6 43.2 378.6 517.8" xml:space="preserve">
<path fill="#999999" d="M443.4,312c-8.4-25.2-42-40.8-65.4-51c-9.6-4.2-35.4-10.8-38.4-22.8c-4.8-18.6,13.8-33,21.6-47.4
	c8.4-15.6,15.6-36,17.4-54c4.8-62.4-33.6-99-88.2-93c-40.2,4.8-64.2,34.2-66.6,72.6c-2.4,39,12,67.8,27.6,89.4
	c6.6,10.2,13.2,16.2,12.6,27c-1.2,13.2-15.6,16.8-25.2,21c-12,4.8-24.6,12-31.2,15.6c-21,11.4-43.8,25.2-49.2,44.4H444
	C443.4,313.2,443.4,312.6,443.4,312z"/>
<path fill="#999999" d="M478.2,318H468H134.4h-10.8c-6.6,0-12,5.4-12,12l24,202.2c0,6.6,5.4,12,12,12h306.6c6.6,0,12-5.4,12-12
	l24-202.2C490.2,323.4,484.8,318,478.2,318z M304.2,442.2c-5.4,0-9.6-4.2-9.6-9.6c0-5.4,4.2-9.6,9.6-9.6s9.6,4.2,9.6,9.6
	C313.8,437.4,309.6,442.2,304.2,442.2z"/>
<path fill="#999999" d="M456,549H142.8c-3.6,0-6,3-6,6c0,3.6,3,6,6,6H456c3.6,0,6-3,6-6C462,551.4,459.6,549,456,549z"/>
</svg>
