<?xml version="1.0" encoding="utf-8"?>
<!-- Generator: Adobe Illustrator 18.0.0, SVG Export Plug-In . SVG Version: 6.00 Build 0)  -->
<!DOCTYPE svg PUBLIC "-//W3C//DTD SVG 1.1//EN" "http://www.w3.org/Graphics/SVG/1.1/DTD/svg11.dtd">
<svg version="1.1" id="Your_Icon" xmlns="http://www.w3.org/2000/svg" xmlns:xlink="http://www.w3.org/1999/xlink" x="0px" y="0px"
	 viewBox="30 103.8 540 391.8" enable-background="new 30 103.8 540 391.8" xml:space="preserve">
<path fill="#999999" d="M132.6,247.8v60.6h36v-60.6H132.6z M487.2,328.2H411v-37.8H189v37.8h-76.2v-37.8H30v181.2
	c0,13.2,10.8,24,24,24h492c13.2,0,24-10.8,24-24V290.4h-82.8V328.2z M430.8,247.8v60.6h36v-60.6H430.8z M546,181.2H445.2v-20.4
	h-44.4v-33c0-13.2-10.8-24-24-24H223.2c-13.2,0-24,10.8-24,24v33h-44.4v20.4H54c-13.2,0-24,10.8-24,24v60.6h82.8v-38.4h76.8v38.4
	H411v-38.4h76.8v38.4H570v-60C570,192,559.2,181.2,546,181.2z M368.4,181.2H231.6v-45h136.8L368.4,181.2L368.4,181.2z"/>
</svg>
