<?xml version="1.0" encoding="utf-8"?>
<!-- Generator: Adobe Illustrator 17.1.0, SVG Export Plug-In . SVG Version: 6.00 Build 0)  -->
<!DOCTYPE svg PUBLIC "-//W3C//DTD SVG 1.1//EN" "http://www.w3.org/Graphics/SVG/1.1/DTD/svg11.dtd">
<svg version="1.1" id="Layer_1" xmlns="http://www.w3.org/2000/svg" xmlns:xlink="http://www.w3.org/1999/xlink" x="0px" y="0px"
	 viewBox="0 0 341.7 100" enable-background="new 0 0 341.7 100" xml:space="preserve">
<g>
	<g>
		<g>
			<g>
				<path fill="#2C6CB4" d="M2134.4-41.7h3.9c1,0,1.9,0.3,2.4,0.8c0.4,0.4,0.6,0.9,0.6,1.5v0c0,1.2-0.7,1.8-1.5,2.1
					c1.1,0.3,2,1,2,2.2v0c0,1.6-1.3,2.5-3.3,2.5h-4.1V-41.7z M2138.2-37.6c1.2,0,2.1-0.6,2.1-1.6v0c0-0.9-0.7-1.5-2-1.5h-2.8v3.2
					H2138.2z M2138.5-33.4c1.4,0,2.3-0.6,2.3-1.6v0c0-1-0.8-1.6-2.4-1.6h-2.9v3.2H2138.5z"/>
				<path fill="#2C6CB4" d="M2146.9-41.7h1v9.2h-1V-41.7z"/>
				<path fill="#2C6CB4" d="M2153.1-37.1L2153.1-37.1c0-2.6,1.9-4.8,4.7-4.8c2.8,0,4.7,2.2,4.7,4.7c0,0,0,0,0,0
					c0,2.5-1.9,4.7-4.7,4.7C2154.9-32.4,2153.1-34.5,2153.1-37.1z M2161.3-37.1L2161.3-37.1c0-2.1-1.5-3.8-3.6-3.8
					c-2.1,0-3.6,1.7-3.6,3.8v0c0,2.1,1.5,3.8,3.6,3.8C2159.8-33.3,2161.3-35,2161.3-37.1z"/>
				<path fill="#2C6CB4" d="M2167.5-41.7h1l3.3,5l3.3-5h1v9.2h-1v-7.4l-3.3,4.9h-0.1l-3.3-4.9v7.4h-1V-41.7z"/>
				<path fill="#2C6CB4" d="M2181.7-41.7h6.6v0.9h-5.6v3.1h5v0.9h-5v3.2h5.7v0.9h-6.7V-41.7z"/>
				<path fill="#2C6CB4" d="M2193.4-41.7h3.2c2.9,0,4.9,2,4.9,4.6v0c0,2.6-2,4.6-4.9,4.6h-3.2V-41.7z M2196.6-33.5
					c2.3,0,3.8-1.6,3.8-3.6v0c0-2-1.5-3.6-3.8-3.6h-2.1v7.3H2196.6z"/>
				<path fill="#2C6CB4" d="M2206.6-41.7h1v9.2h-1V-41.7z"/>
				<path fill="#2C6CB4" d="M2212.8-37.1L2212.8-37.1c0-2.6,1.9-4.8,4.6-4.8c1.7,0,2.7,0.6,3.6,1.5l-0.7,0.8
					c-0.8-0.7-1.6-1.3-2.9-1.3c-2,0-3.5,1.7-3.5,3.8v0c0,2.1,1.5,3.8,3.5,3.8c1.3,0,2.1-0.5,3-1.3l0.7,0.7c-1,1-2,1.6-3.7,1.6
					C2214.7-32.4,2212.8-34.4,2212.8-37.1z"/>
				<path fill="#2C6CB4" d="M2229.1-41.7h1l4.2,9.2h-1.1l-1.1-2.4h-5l-1.1,2.4h-1.1L2229.1-41.7z M2231.7-35.9l-2.1-4.7l-2.1,4.7
					H2231.7z"/>
				<path fill="#2C6CB4" d="M2239-41.7h1v8.2h5.2v1h-6.2V-41.7z"/>
				<path fill="#2C6CB4" d="M2260.1-41.7h1l4.2,9.2h-1.1l-1.1-2.4h-5l-1.1,2.4h-1.1L2260.1-41.7z M2262.7-35.9l-2.1-4.7l-2.1,4.7
					H2262.7z"/>
				<path fill="#2C6CB4" d="M2270-41.7h1l5.8,7.3v-7.3h1v9.2h-0.8L2271-40v7.5h-1V-41.7z"/>
				<path fill="#2C6CB4" d="M2286.6-41.7h1l4.2,9.2h-1.1l-1.1-2.4h-5l-1.1,2.4h-1.1L2286.6-41.7z M2289.1-35.9l-2.1-4.7l-2.1,4.7
					H2289.1z"/>
				<path fill="#2C6CB4" d="M2296.4-41.7h1v8.2h5.2v1h-6.2V-41.7z"/>
				<path fill="#2C6CB4" d="M2308.6-36.1l-3.8-5.5h1.3l3.1,4.6l3.1-4.6h1.2l-3.8,5.5v3.6h-1V-36.1z"/>
				<path fill="#2C6CB4" d="M2320.4-40.7h-3.1v-1h7.2v1h-3.1v8.2h-1V-40.7z"/>
				<path fill="#2C6CB4" d="M2329.4-41.7h1v9.2h-1V-41.7z"/>
				<path fill="#2C6CB4" d="M2335.6-37.1L2335.6-37.1c0-2.6,1.9-4.8,4.6-4.8c1.7,0,2.7,0.6,3.6,1.5l-0.7,0.8
					c-0.8-0.7-1.6-1.3-2.9-1.3c-2,0-3.5,1.7-3.5,3.8v0c0,2.1,1.5,3.8,3.5,3.8c1.3,0,2.1-0.5,3-1.3l0.7,0.7c-1,1-2,1.6-3.7,1.6
					C2337.6-32.4,2335.6-34.4,2335.6-37.1z"/>
				<path fill="#2C6CB4" d="M2348-33.9l0.6-0.8c1,0.9,1.9,1.3,3.1,1.3c1.2,0,2-0.7,2-1.6v0c0-0.9-0.5-1.3-2.4-1.7
					c-2.1-0.5-3.1-1.1-3.1-2.6v0c0-1.4,1.3-2.5,3-2.5c1.3,0,2.3,0.4,3.2,1.1l-0.6,0.8c-0.9-0.7-1.7-1-2.6-1c-1.2,0-2,0.7-2,1.5v0
					c0,0.9,0.5,1.3,2.5,1.8c2,0.4,3,1.2,3,2.6v0c0,1.6-1.3,2.6-3.1,2.6C2350.2-32.4,2349.1-32.9,2348-33.9z"/>
			</g>
		</g>
		<g>
			<path fill="#404041" d="M2134.4-75.4h9.7c5.8,0,9.7,3.1,9.7,8.2v0.1c0,5.6-4.7,8.5-10.2,8.5h-6.3v9.1h-2.9V-75.4z M2143.7-61.3
				c4.3,0,7.1-2.3,7.1-5.7v-0.1c0-3.7-2.8-5.6-7-5.6h-6.5v11.4H2143.7z"/>
			<path fill="#404041" d="M2159.4-75.4h2.9v25.9h-2.9V-75.4z"/>
			<path fill="#404041" d="M2168.8-62.4L2168.8-62.4c0-7.4,5.5-13.5,13.1-13.5c4.7,0,7.5,1.7,10.1,4.1l-2,2.1
				c-2.2-2.1-4.6-3.6-8.1-3.6c-5.7,0-10,4.7-10,10.6v0.1c0,6,4.3,10.7,10,10.7c3.6,0,5.9-1.4,8.4-3.7l1.9,1.9
				c-2.7,2.7-5.7,4.6-10.4,4.6C2174.3-49.1,2168.8-54.9,2168.8-62.4z"/>
			<path fill="#404041" d="M2195.3-62.4L2195.3-62.4c0-7.2,5.4-13.5,13.2-13.5c7.9,0,13.2,6.2,13.2,13.3c0,0,0,0,0,0.1
				c0,7.1-5.4,13.4-13.2,13.4C2200.6-49.1,2195.3-55.2,2195.3-62.4z M2218.7-62.4L2218.7-62.4c0-6-4.3-10.8-10.2-10.8
				c-5.9,0-10.1,4.7-10.1,10.6v0.1c0,5.9,4.3,10.7,10.2,10.7C2214.5-51.8,2218.7-56.5,2218.7-62.4z"/>
			<path fill="#2C6CB4" d="M2227.9-75.4h18.6v2.7h-15.7v9.2h14v2.7h-14v11.3h-2.9V-75.4z"/>
			<path fill="#2C6CB4" d="M2252.2-75.4h18.7v2.7h-15.8v8.8h14.1v2.7h-14.1v9.1h16v2.7h-18.9V-75.4z"/>
			<path fill="#2C6CB4" d="M2277-75.4h3l9.4,14.1l9.4-14.1h3v25.9h-2.9v-21l-9.4,13.9h-0.1l-9.4-13.8v20.9h-2.8V-75.4z"/>
			<path fill="#2C6CB4" d="M2315.9-72.7h-8.7v-2.7h20.4v2.7h-8.7v23.2h-3V-72.7z"/>
			<path fill="#2C6CB4" d="M2330.1-62.4L2330.1-62.4c0-7.2,5.4-13.5,13.2-13.5c7.9,0,13.2,6.2,13.2,13.3c0,0,0,0,0,0.1
				c0,7.1-5.4,13.4-13.2,13.4C2335.4-49.1,2330.1-55.2,2330.1-62.4z M2353.5-62.4L2353.5-62.4c0-6-4.3-10.8-10.2-10.8
				c-5.9,0-10.1,4.7-10.1,10.6v0.1c0,5.9,4.3,10.7,10.2,10.7C2349.3-51.8,2353.5-56.5,2353.5-62.4z"/>
		</g>
		<g id="Shape_36_">
			<path id="_x23__1_36_" fill="#84B9E3" d="M2086.1-68.1c-2.8,1.4-6.3,0.2-7.7-2.6c-1.4-2.8-0.2-6.3,2.6-7.7
				c2.8-1.4,6.3-0.2,7.7,2.6C2090.1-72.9,2088.9-69.4,2086.1-68.1z M2091.1-97.7c-0.8-1.6-2.8-2.3-4.4-1.5c-1.6,0.8-2.3,2.8-1.5,4.4
				c0.8,1.6,2.8,2.3,4.4,1.5C2091.2-94.1,2091.9-96.1,2091.1-97.7z M2077.7-32.4c3.1-1.5,4.4-5.3,2.9-8.4c-1.5-3.1-5.3-4.4-8.4-2.9
				c-3.1,1.5-4.4,5.3-2.9,8.4C2070.8-32.1,2074.6-30.8,2077.7-32.4z M2047.1-34.7c2.6-1.3,3.6-4.4,2.4-6.9c-1.3-2.6-4.4-3.6-6.9-2.4
				c-2.6,1.3-3.6,4.4-2.4,6.9C2041.4-34.5,2044.5-33.4,2047.1-34.7z M2068.6-15.2c-0.5-1-1.8-1.5-2.8-1c-1.1,0.5-1.5,1.8-1,2.8
				c0.5,1.1,1.8,1.5,2.8,1C2068.7-12.9,2069.1-14.2,2068.6-15.2z M2089.8-60.5c1.7-0.8,2.4-2.9,1.6-4.6c-0.8-1.7-2.9-2.4-4.6-1.6
				c-1.7,0.8-2.4,2.9-1.6,4.6C2086-60.3,2088.1-59.6,2089.8-60.5z M2046.4-60.5c3.9-1.9,5.6-6.7,3.6-10.6c-1.9-3.9-6.7-5.6-10.6-3.6
				c-3.9,1.9-5.6,6.7-3.6,10.6C2037.7-60.2,2042.5-58.6,2046.4-60.5z M2031.5-42.5c1.5-0.8,2.2-2.6,1.4-4.2
				c-0.8-1.5-2.6-2.2-4.2-1.4c-1.5,0.8-2.2,2.6-1.4,4.2C2028.1-42.4,2030-41.7,2031.5-42.5z M2064.8-95.6c1.4-0.7,2-2.4,1.3-3.8
				c-0.7-1.4-2.4-2-3.8-1.3c-1.4,0.7-2,2.4-1.3,3.8C2061.6-95.5,2063.4-94.9,2064.8-95.6z M2057.5-88.6c1.2-0.6,1.7-2.1,1.1-3.3
				c-0.6-1.2-2.1-1.7-3.3-1.1c-1.2,0.6-1.7,2.1-1.1,3.3C2054.8-88.5,2056.3-88,2057.5-88.6z M2091.4-24.3c0.6-0.3,0.9-1,0.6-1.6
				c-0.3-0.6-1-0.9-1.6-0.6c-0.6,0.3-0.9,1-0.6,1.6C2090-24.3,2090.8-24,2091.4-24.3z M2113.4-39.6c2.8-1.4,4-4.8,2.6-7.7
				c-1.4-2.8-4.8-4-7.7-2.6c-2.8,1.4-4,4.8-2.6,7.7C2107.1-39.4,2110.5-38.2,2113.4-39.6z M2109.1-80c1.8-0.9,2.5-3,1.6-4.8
				c-0.9-1.8-3-2.5-4.7-1.6c-1.8,0.9-2.5,3-1.6,4.7C2105.2-79.8,2107.4-79.1,2109.1-80z"/>
			<path id="_x23__2_36_" fill="#2875BA" d="M2064-55.2c-2.1-4.3-0.3-9.6,4-11.7c4.3-2.1,9.6-0.3,11.7,4c2.1,4.3,0.3,9.6-4,11.7
				C2071.3-49.1,2066.1-50.8,2064-55.2z M2057.4-53.8c2.8-1.4,4-4.8,2.6-7.7c-1.4-2.8-4.8-4-7.7-2.6c-2.8,1.4-4,4.8-2.6,7.7
				C2051.1-53.6,2054.5-52.4,2057.4-53.8z M2062.8-72.5c3.3-1.6,4.6-5.5,3-8.8c-1.6-3.3-5.5-4.6-8.8-3c-3.3,1.6-4.6,5.5-3,8.8
				C2055.6-72.3,2059.5-70.9,2062.8-72.5z M2083-87.6c-1-2-3.4-2.9-5.5-1.9c-2,1-2.9,3.5-1.9,5.5c1,2,3.5,2.9,5.5,1.9
				C2083.2-83.1,2084-85.6,2083-87.6z M2036.1-54.1c1.8-0.9,2.5-3,1.6-4.8c-0.9-1.8-3-2.5-4.7-1.6c-1.8,0.9-2.5,3-1.6,4.8
				C2032.2-53.9,2034.3-53.2,2036.1-54.1z M2033.8-73.9c1.8-0.9,2.5-3,1.6-4.8c-0.9-1.8-3-2.5-4.8-1.6c-1.8,0.9-2.5,3-1.6,4.8
				C2029.9-73.7,2032.1-73,2033.8-73.9z M2103.6-24.7c1.6-0.8,2.3-2.8,1.5-4.4c-0.8-1.6-2.8-2.3-4.4-1.5c-1.6,0.8-2.3,2.8-1.5,4.4
				C2100.1-24.6,2102-23.9,2103.6-24.7z M2066-20.8c2.8-1.4,3.9-4.7,2.6-7.5c-1.4-2.8-4.7-3.9-7.5-2.6c-2.8,1.4-3.9,4.7-2.6,7.5
				C2059.9-20.6,2063.3-19.4,2066-20.8z M2109.2-75.9c-2.7,1.3-3.8,4.6-2.5,7.3c1.3,2.7,4.6,3.8,7.3,2.5c2.7-1.3,3.8-4.6,2.5-7.3
				C2115.2-76.1,2111.9-77.2,2109.2-75.9z M2046.6-92.8c1.1-0.6,1.6-1.9,1.1-3.1c-0.6-1.1-1.9-1.6-3.1-1.1c-1.1,0.6-1.6,1.9-1.1,3.1
				C2044.1-92.7,2045.5-92.2,2046.6-92.8z M2050.3-76.2c1.2-0.6,1.6-2,1.1-3.1c-0.6-1.2-2-1.6-3.1-1.1c-1.2,0.6-1.6,2-1.1,3.1
				C2047.8-76.1,2049.2-75.6,2050.3-76.2z M2056.7-33.7c1.2-0.6,1.7-2,1.1-3.3c-0.6-1.2-2-1.7-3.3-1.1c-1.2,0.6-1.7,2.1-1.1,3.3
				C2054-33.6,2055.5-33.1,2056.7-33.7z"/>
			<path id="_x23__3_36_" fill="#304094" d="M2025.8-61.7c-0.5-1.1-0.1-2.4,1-2.9c1.1-0.5,2.4-0.1,2.9,1c0.5,1.1,0.1,2.4-1,2.9
				C2027.6-60.2,2026.3-60.7,2025.8-61.7z M2095.8-29.9c3.5-1.7,4.9-5.9,3.2-9.3c-1.7-3.5-5.9-4.9-9.3-3.2c-3.5,1.7-4.9,5.9-3.2,9.3
				C2088.2-29.6,2092.4-28.2,2095.8-29.9z M2093.3-47c-0.5-1-1.6-1.3-2.6-0.9c-0.9,0.5-1.3,1.6-0.9,2.6c0.5,0.9,1.6,1.3,2.6,0.9
				C2093.4-45,2093.8-46.1,2093.3-47z M2058.6-19.4c-0.5-0.9-1.6-1.3-2.6-0.9c-0.9,0.5-1.3,1.6-0.9,2.6c0.5,0.9,1.6,1.3,2.6,0.9
				C2058.7-17.3,2059.1-18.5,2058.6-19.4z M2079.3-94.4c-0.5-0.9-1.6-1.3-2.6-0.9c-0.9,0.5-1.3,1.6-0.9,2.6c0.5,0.9,1.6,1.3,2.6,0.9
				C2079.4-92.3,2079.8-93.4,2079.3-94.4z M2099.1-69c2-1,2.8-3.3,1.8-5.3c-1-2-3.3-2.8-5.3-1.8c-2,1-2.8,3.3-1.8,5.3
				C2094.8-68.9,2097.2-68.1,2099.1-69z M2045.8-82.1c2.5-1.2,3.5-4.3,2.3-6.8c-1.2-2.5-4.2-3.5-6.8-2.3c-2.5,1.2-3.5,4.3-2.3,6.8
				C2040.3-81.9,2043.3-80.8,2045.8-82.1z M2104.5-75.8c0.8-0.4,1.1-1.3,0.7-2c-0.4-0.7-1.3-1.1-2-0.7c-0.7,0.4-1.1,1.3-0.7,2
				C2102.9-75.7,2103.8-75.4,2104.5-75.8z"/>
			<path id="_x23__4_36_" fill="#2669B2" d="M2081.2-49.8c-1.2-2.5-0.2-5.5,2.3-6.8c2.5-1.2,5.5-0.2,6.8,2.3
				c1.2,2.5,0.2,5.5-2.3,6.8C2085.4-46.2,2082.4-47.3,2081.2-49.8z M2060.2-41.3c2.5-1.2,3.5-4.3,2.3-6.8c-1.2-2.5-4.3-3.5-6.8-2.3
				c-2.5,1.2-3.5,4.3-2.3,6.8C2054.6-41.1,2057.7-40.1,2060.2-41.3z M2085-14.3c1.8-0.9,2.5-3,1.6-4.8c-0.9-1.8-3-2.5-4.8-1.6
				c-1.8,0.9-2.5,3-1.6,4.7C2081.2-14.1,2083.3-13.4,2085-14.3z M2096.4-78.9c3.3-1.6,4.6-5.5,3-8.8c-1.6-3.2-5.5-4.6-8.8-3
				c-3.3,1.6-4.6,5.5-3,8.8C2089.2-78.7,2093.2-77.4,2096.4-78.9z M2042.1-45.4c2.3-1.1,3.3-3.9,2.1-6.2c-1.1-2.3-3.9-3.3-6.2-2.1
				c-2.3,1.1-3.3,3.9-2.1,6.2C2037.1-45.2,2039.8-44.3,2042.1-45.4z M2037-33c1.8-0.9,2.6-3.1,1.7-5c-0.9-1.8-3.1-2.6-5-1.7
				c-1.8,0.9-2.6,3.1-1.7,5C2033-32.9,2035.2-32.1,2037-33z M2084.3-23.8c2.2-1.1,3.2-3.8,2.1-6c-1.1-2.2-3.8-3.2-6-2.1
				c-2.2,1.1-3.2,3.8-2.1,6C2079.4-23.6,2082.1-22.7,2084.3-23.8z M2070.6-84.7c2.5-1.2,3.5-4.3,2.3-6.8c-1.2-2.5-4.3-3.5-6.8-2.3
				c-2.5,1.2-3.5,4.3-2.3,6.8C2065.1-84.6,2068.1-83.5,2070.6-84.7z M2077.8-97.5c2.1-1,3-3.6,1.9-5.7c-1-2.1-3.6-3-5.7-1.9
				c-2.1,1-3,3.6-1.9,5.7C2073.2-97.4,2075.7-96.5,2077.8-97.5z"/>
			<path id="_x23__5_36_" fill="#3CA5DD" d="M2070.6-74.5c-0.7-1.5-0.1-3.3,1.4-4c1.5-0.7,3.3-0.1,4,1.4c0.7,1.5,0.1,3.3-1.4,4
				C2073.1-72.4,2071.3-73.1,2070.6-74.5z M2098-91.3c0.7,1.5,2.5,2.1,4,1.4c1.5-0.7,2.1-2.5,1.4-4c-0.7-1.5-2.5-2.1-4-1.4
				C2097.9-94.6,2097.3-92.8,2098-91.3z M2055.5-99.7c-0.8-1.6-2.8-2.3-4.4-1.5c-1.6,0.8-2.3,2.8-1.5,4.4c0.8,1.6,2.8,2.3,4.4,1.5
				C2055.7-96.1,2056.3-98.1,2055.5-99.7z M2100.7-43.8c1.8-0.9,2.5-3,1.6-4.8c-0.9-1.8-3-2.5-4.8-1.6c-1.8,0.9-2.5,3-1.6,4.7
				C2096.8-43.7,2098.9-42.9,2100.7-43.8z M2052.5-20.3c3.6-1.8,5.1-6.1,3.3-9.7c-1.8-3.6-6.1-5.1-9.7-3.3c-3.6,1.8-5.1,6.1-3.3,9.7
				C2044.6-20,2048.9-18.5,2052.5-20.3z M2050.6-47.8c1.1-0.5,1.5-1.8,1-2.9c-0.5-1.1-1.8-1.5-2.9-1c-1.1,0.5-1.5,1.8-1,2.9
				C2048.2-47.7,2049.5-47.3,2050.6-47.8z M2075.4-19.7c1.2-0.6,1.6-2,1.1-3.1c-0.6-1.2-2-1.6-3.1-1.1c-1.1,0.6-1.6,2-1.1,3.1
				C2072.8-19.6,2074.2-19.2,2075.4-19.7z M2064.8-34.2c1.6-0.8,2.2-2.6,1.4-4.2c-0.8-1.6-2.6-2.2-4.2-1.4c-1.6,0.8-2.2,2.6-1.4,4.2
				C2061.4-34,2063.3-33.4,2064.8-34.2z M2053.7-83.6c0.6-0.3,0.9-1,0.6-1.6c-0.3-0.6-1-0.9-1.6-0.6c-0.6,0.3-0.9,1-0.6,1.6
				C2052.3-83.6,2053.1-83.3,2053.7-83.6z M2062.3-66c1.3-0.6,1.9-2.2,1.2-3.6c-0.6-1.3-2.2-1.9-3.6-1.2s-1.9,2.3-1.2,3.6
				C2059.4-65.9,2061-65.3,2062.3-66z M2095.3-18.4c1.3-0.6,1.9-2.2,1.2-3.6c-0.6-1.3-2.2-1.9-3.6-1.2c-1.3,0.6-1.9,2.2-1.2,3.6
				C2092.4-18.3,2094-17.7,2095.3-18.4z M2067.7-44.5c1.2-0.6,1.7-2.1,1.1-3.3c-0.6-1.2-2.1-1.7-3.3-1.1c-1.2,0.6-1.7,2.1-1.1,3.3
				C2065-44.4,2066.5-43.9,2067.7-44.5z"/>
			<circle fill="#F16622" cx="2100.4" cy="-58.9" r="7.5"/>
			<path fill="#F16622" d="M2115-55.8c1.8-0.9,2.5-3,1.6-4.7c-0.9-1.8-3-2.5-4.8-1.6c-1.8,0.9-2.5,3-1.6,4.8
				C2111.1-55.7,2113.2-55,2115-55.8z"/>
		</g>
	</g>
</g>
<g>
	<g>
		<g>
			<g>
				<path fill="#2C6CB4" d="M112.1,68.3h3.9c1,0,1.9,0.3,2.4,0.8c0.4,0.4,0.6,0.9,0.6,1.5v0c0,1.2-0.7,1.8-1.5,2.1
					c1.1,0.3,2,1,2,2.2v0c0,1.6-1.3,2.5-3.3,2.5h-4.1V68.3z M115.8,72.4c1.2,0,2.1-0.6,2.1-1.6v0c0-0.9-0.7-1.5-2-1.5h-2.8v3.2
					H115.8z M116.2,76.5c1.4,0,2.3-0.6,2.3-1.6v0c0-1-0.8-1.6-2.4-1.6h-2.9v3.2H116.2z"/>
				<path fill="#2C6CB4" d="M124.5,68.3h1v9.2h-1V68.3z"/>
				<path fill="#2C6CB4" d="M130.7,72.9L130.7,72.9c0-2.6,1.9-4.8,4.7-4.8c2.8,0,4.7,2.2,4.7,4.7c0,0,0,0,0,0c0,2.5-1.9,4.7-4.7,4.7
					C132.5,77.6,130.7,75.4,130.7,72.9z M138.9,72.9L138.9,72.9c0-2.1-1.5-3.8-3.6-3.8c-2.1,0-3.6,1.7-3.6,3.8v0
					c0,2.1,1.5,3.8,3.6,3.8C137.5,76.6,138.9,75,138.9,72.9z"/>
				<path fill="#2C6CB4" d="M145.1,68.3h1l3.3,5l3.3-5h1v9.2h-1V70l-3.3,4.9h-0.1l-3.3-4.9v7.4h-1V68.3z"/>
				<path fill="#2C6CB4" d="M159.3,68.3h6.6v0.9h-5.6v3.1h5v0.9h-5v3.2h5.7v0.9h-6.7V68.3z"/>
				<path fill="#2C6CB4" d="M171,68.3h3.2c2.9,0,4.9,2,4.9,4.6v0c0,2.6-2,4.6-4.9,4.6H171V68.3z M174.2,76.5c2.3,0,3.8-1.6,3.8-3.6
					v0c0-2-1.5-3.6-3.8-3.6H172v7.3H174.2z"/>
				<path fill="#2C6CB4" d="M184.2,68.3h1v9.2h-1V68.3z"/>
				<path fill="#2C6CB4" d="M190.4,72.9L190.4,72.9c0-2.6,1.9-4.8,4.6-4.8c1.7,0,2.7,0.6,3.6,1.5l-0.7,0.8c-0.8-0.7-1.6-1.3-2.9-1.3
					c-2,0-3.5,1.7-3.5,3.8v0c0,2.1,1.5,3.8,3.5,3.8c1.3,0,2.1-0.5,3-1.3l0.7,0.7c-1,1-2,1.6-3.7,1.6
					C192.3,77.6,190.4,75.5,190.4,72.9z"/>
				<path fill="#2C6CB4" d="M206.7,68.2h1l4.2,9.2h-1.1l-1.1-2.4h-5l-1.1,2.4h-1.1L206.7,68.2z M209.3,74.1l-2.1-4.7l-2.1,4.7H209.3
					z"/>
				<path fill="#2C6CB4" d="M216.6,68.3h1v8.2h5.2v1h-6.2V68.3z"/>
				<path fill="#2C6CB4" d="M237.8,68.2h1l4.2,9.2h-1.1l-1.1-2.4h-5l-1.1,2.4h-1.1L237.8,68.2z M240.3,74.1l-2.1-4.7l-2.1,4.7H240.3
					z"/>
				<path fill="#2C6CB4" d="M247.6,68.3h1l5.8,7.3v-7.3h1v9.2h-0.8l-5.9-7.5v7.5h-1V68.3z"/>
				<path fill="#2C6CB4" d="M264.2,68.2h1l4.2,9.2h-1.1l-1.1-2.4h-5l-1.1,2.4H260L264.2,68.2z M266.8,74.1l-2.1-4.7l-2.1,4.7H266.8z
					"/>
				<path fill="#2C6CB4" d="M274,68.3h1v8.2h5.2v1H274V68.3z"/>
				<path fill="#2C6CB4" d="M286.2,73.8l-3.8-5.5h1.3l3.1,4.6l3.1-4.6h1.2l-3.8,5.5v3.6h-1V73.8z"/>
				<path fill="#2C6CB4" d="M298,69.2h-3.1v-1h7.2v1H299v8.2h-1V69.2z"/>
				<path fill="#2C6CB4" d="M307,68.3h1v9.2h-1V68.3z"/>
				<path fill="#2C6CB4" d="M313.2,72.9L313.2,72.9c0-2.6,1.9-4.8,4.6-4.8c1.7,0,2.7,0.6,3.6,1.5l-0.7,0.8c-0.8-0.7-1.6-1.3-2.9-1.3
					c-2,0-3.5,1.7-3.5,3.8v0c0,2.1,1.5,3.8,3.5,3.8c1.3,0,2.1-0.5,3-1.3l0.7,0.7c-1,1-2,1.6-3.7,1.6
					C315.2,77.6,313.2,75.5,313.2,72.9z"/>
				<path fill="#2C6CB4" d="M325.6,76.1l0.6-0.8c1,0.9,1.9,1.3,3.1,1.3c1.2,0,2-0.7,2-1.6v0c0-0.9-0.5-1.3-2.4-1.7
					c-2.1-0.5-3.1-1.1-3.1-2.6v0c0-1.4,1.3-2.5,3-2.5c1.3,0,2.3,0.4,3.2,1.1l-0.6,0.8c-0.9-0.7-1.7-1-2.6-1c-1.2,0-2,0.7-2,1.5v0
					c0,0.9,0.5,1.3,2.5,1.8c2,0.4,3,1.2,3,2.6v0c0,1.6-1.3,2.6-3.1,2.6C327.9,77.6,326.7,77.1,325.6,76.1z"/>
			</g>
		</g>
		<g>
			<path fill="#404041" d="M112,34.5h9.7c5.8,0,9.7,3.1,9.7,8.2v0.1c0,5.6-4.7,8.5-10.2,8.5H115v9.1H112V34.5z M121.4,48.6
				c4.3,0,7.1-2.3,7.1-5.7v-0.1c0-3.7-2.8-5.6-7-5.6H115v11.4H121.4z"/>
			<path fill="#404041" d="M137,34.5h2.9v25.9H137V34.5z"/>
			<path fill="#404041" d="M146.4,47.6L146.4,47.6c0-7.4,5.5-13.5,13.1-13.5c4.7,0,7.5,1.7,10.1,4.1l-2,2.1
				c-2.2-2.1-4.6-3.6-8.1-3.6c-5.7,0-10,4.7-10,10.6v0.1c0,6,4.3,10.7,10,10.7c3.6,0,5.9-1.4,8.4-3.7l1.9,1.9
				c-2.7,2.7-5.7,4.6-10.4,4.6C151.9,60.9,146.4,55,146.4,47.6z"/>
			<path fill="#404041" d="M172.9,47.6L172.9,47.6c0-7.2,5.4-13.5,13.2-13.5c7.9,0,13.2,6.2,13.2,13.3c0,0,0,0,0,0.1
				c0,7.1-5.4,13.4-13.2,13.4C178.2,60.9,172.9,54.7,172.9,47.6z M196.3,47.6L196.3,47.6c0-6-4.3-10.8-10.2-10.8
				c-5.9,0-10.1,4.7-10.1,10.6v0.1c0,5.9,4.3,10.7,10.2,10.7C192.1,58.2,196.3,53.5,196.3,47.6z"/>
			<path fill="#2C6CB4" d="M205.5,34.5h18.6v2.7h-15.7v9.2h14v2.7h-14v11.3h-2.9V34.5z"/>
			<path fill="#2C6CB4" d="M229.8,34.5h18.7v2.7h-15.8v8.8h14.1v2.7h-14.1v9.1h16v2.7h-18.9V34.5z"/>
			<path fill="#2C6CB4" d="M254.6,34.5h3l9.4,14.1l9.4-14.1h3v25.9h-2.9v-21L267,53.3h-0.1l-9.4-13.8v20.9h-2.8V34.5z"/>
			<path fill="#2C6CB4" d="M293.5,37.2h-8.7v-2.7h20.4v2.7h-8.7v23.2h-3V37.2z"/>
			<path fill="#2C6CB4" d="M307.8,47.6L307.8,47.6c0-7.2,5.4-13.5,13.2-13.5c7.9,0,13.2,6.2,13.2,13.3c0,0,0,0,0,0.1
				c0,7.1-5.4,13.4-13.2,13.4C313,60.9,307.8,54.7,307.8,47.6z M331.1,47.6L331.1,47.6c0-6-4.3-10.8-10.2-10.8
				c-5.9,0-10.1,4.7-10.1,10.6v0.1c0,5.9,4.3,10.7,10.2,10.7C326.9,58.2,331.1,53.5,331.1,47.6z"/>
		</g>
		<g id="Shape_1_">
			<path id="_x23__1_1_" fill="#84B9E3" d="M63.7,41.9c-2.8,1.4-6.3,0.2-7.7-2.6c-1.4-2.8-0.2-6.3,2.6-7.7c2.8-1.4,6.3-0.2,7.7,2.6
				C67.7,37.1,66.5,40.5,63.7,41.9z M68.7,12.3c-0.8-1.6-2.8-2.3-4.4-1.5c-1.6,0.8-2.3,2.8-1.5,4.4c0.8,1.6,2.8,2.3,4.4,1.5
				C68.8,15.9,69.5,13.9,68.7,12.3z M55.3,77.6c3.1-1.5,4.4-5.3,2.9-8.4c-1.5-3.1-5.3-4.4-8.4-2.9c-3.1,1.5-4.4,5.3-2.9,8.4
				C48.4,77.8,52.2,79.1,55.3,77.6z M24.7,75.3c2.6-1.3,3.6-4.4,2.4-6.9c-1.3-2.6-4.4-3.6-6.9-2.4c-2.6,1.3-3.6,4.4-2.4,6.9
				C19,75.4,22.1,76.5,24.7,75.3z M46.2,94.7c-0.5-1-1.8-1.5-2.8-1c-1.1,0.5-1.5,1.8-1,2.8c0.5,1.1,1.8,1.5,2.8,1
				C46.3,97.1,46.7,95.8,46.2,94.7z M67.4,49.5c1.7-0.8,2.4-2.9,1.6-4.6c-0.8-1.7-2.9-2.4-4.6-1.6c-1.7,0.8-2.4,2.9-1.6,4.6
				C63.7,49.6,65.7,50.3,67.4,49.5z M24,49.4c3.9-1.9,5.6-6.7,3.6-10.6c-1.9-3.9-6.7-5.6-10.6-3.6c-3.9,1.9-5.6,6.7-3.6,10.6
				C15.4,49.7,20.1,51.3,24,49.4z M9.1,67.5c1.5-0.8,2.2-2.6,1.4-4.2c-0.8-1.5-2.6-2.2-4.2-1.4C4.9,62.6,4.2,64.5,5,66
				C5.7,67.6,7.6,68.2,9.1,67.5z M42.4,14.4c1.4-0.7,2-2.4,1.3-3.8c-0.7-1.4-2.4-2-3.8-1.3c-1.4,0.7-2,2.4-1.3,3.8
				C39.3,14.5,41,15.1,42.4,14.4z M35.1,21.4c1.2-0.6,1.7-2.1,1.1-3.3c-0.6-1.2-2.1-1.7-3.3-1.1c-1.2,0.6-1.7,2.1-1.1,3.3
				C32.4,21.4,33.9,22,35.1,21.4z M69,85.7c0.6-0.3,0.9-1,0.6-1.6c-0.3-0.6-1-0.9-1.6-0.6c-0.6,0.3-0.9,1-0.6,1.6
				C67.6,85.7,68.4,86,69,85.7z M91,70.4c2.8-1.4,4-4.8,2.6-7.7c-1.4-2.8-4.8-4-7.7-2.6c-2.8,1.4-4,4.8-2.6,7.7
				C84.7,70.6,88.1,71.8,91,70.4z M86.7,30c1.8-0.9,2.5-3,1.6-4.8c-0.9-1.8-3-2.5-4.7-1.6c-1.8,0.9-2.5,3-1.6,4.7
				C82.9,30.1,85,30.8,86.7,30z"/>
			<path id="_x23__2_1_" fill="#2875BA" d="M41.6,54.8c-2.1-4.3-0.3-9.6,4-11.7c4.3-2.1,9.6-0.3,11.7,4c2.1,4.3,0.3,9.6-4,11.7
				C48.9,60.9,43.7,59.1,41.6,54.8z M35,56.2c2.8-1.4,4-4.8,2.6-7.7c-1.4-2.8-4.8-4-7.7-2.6c-2.8,1.4-4,4.8-2.6,7.7
				C28.7,56.4,32.1,57.6,35,56.2z M40.4,37.4c3.3-1.6,4.6-5.5,3-8.8c-1.6-3.3-5.5-4.6-8.8-3c-3.3,1.6-4.6,5.5-3,8.8
				C33.2,37.7,37.1,39,40.4,37.4z M60.7,22.3c-1-2-3.5-2.9-5.5-1.9c-2,1-2.9,3.5-1.9,5.5c1,2,3.5,2.9,5.5,1.9
				C60.8,26.8,61.7,24.4,60.7,22.3z M13.7,55.9c1.8-0.9,2.5-3,1.6-4.8c-0.9-1.8-3-2.5-4.7-1.6c-1.8,0.9-2.5,3-1.6,4.8
				C9.8,56,12,56.8,13.7,55.9z M11.4,36.1c1.8-0.9,2.5-3,1.6-4.8c-0.9-1.8-3-2.5-4.8-1.6c-1.8,0.9-2.5,3-1.6,4.8
				C7.6,36.2,9.7,36.9,11.4,36.1z M81.3,85.2c1.6-0.8,2.3-2.8,1.5-4.4c-0.8-1.6-2.8-2.3-4.4-1.5c-1.6,0.8-2.3,2.8-1.5,4.4
				C77.7,85.3,79.6,86,81.3,85.2z M43.7,89.2c2.8-1.4,3.9-4.7,2.6-7.5c-1.4-2.8-4.7-3.9-7.5-2.6c-2.8,1.4-3.9,4.7-2.6,7.5
				C37.5,89.4,40.9,90.5,43.7,89.2z M86.8,34.1c-2.7,1.3-3.8,4.6-2.5,7.3c1.3,2.7,4.6,3.8,7.3,2.5c2.7-1.3,3.8-4.6,2.5-7.3
				C92.8,33.9,89.5,32.7,86.8,34.1z M24.2,17.2c1.1-0.6,1.6-1.9,1.1-3.1c-0.6-1.1-1.9-1.6-3.1-1.1c-1.1,0.6-1.6,1.9-1.1,3.1
				C21.7,17.3,23.1,17.7,24.2,17.2z M28,33.8c1.2-0.6,1.6-2,1.1-3.1c-0.6-1.2-2-1.6-3.1-1.1c-1.2,0.6-1.6,2-1.1,3.1
				C25.4,33.9,26.8,34.3,28,33.8z M34.3,76.3c1.2-0.6,1.7-2,1.1-3.3c-0.6-1.2-2-1.7-3.3-1.1c-1.2,0.6-1.7,2.1-1.1,3.3
				C31.6,76.3,33.1,76.8,34.3,76.3z"/>
			<path id="_x23__3_1_" fill="#304094" d="M3.4,48.2c-0.5-1.1-0.1-2.4,1-2.9c1.1-0.5,2.4-0.1,2.9,1c0.5,1.1,0.1,2.4-1,2.9
				C5.2,49.8,3.9,49.3,3.4,48.2z M73.4,80.1c3.5-1.7,4.9-5.9,3.2-9.3c-1.7-3.5-5.9-4.9-9.3-3.2c-3.5,1.7-4.9,5.9-3.2,9.3
				C65.8,80.3,70,81.8,73.4,80.1z M70.9,62.9c-0.5-1-1.6-1.3-2.6-0.9c-0.9,0.5-1.3,1.6-0.9,2.6c0.5,0.9,1.6,1.3,2.6,0.9
				C71,65,71.4,63.9,70.9,62.9z M36.3,90.5c-0.5-0.9-1.6-1.3-2.6-0.9c-0.9,0.5-1.3,1.6-0.9,2.6c0.5,0.9,1.6,1.3,2.6,0.9
				C36.3,92.6,36.7,91.5,36.3,90.5z M56.9,15.6c-0.5-0.9-1.6-1.3-2.6-0.9c-0.9,0.5-1.3,1.6-0.9,2.6c0.5,0.9,1.6,1.3,2.6,0.9
				C57,17.7,57.4,16.6,56.9,15.6z M76.8,40.9c2-1,2.8-3.3,1.8-5.3c-1-2-3.3-2.8-5.3-1.8c-2,1-2.8,3.3-1.8,5.3
				C72.4,41.1,74.8,41.9,76.8,40.9z M23.5,27.9c2.5-1.2,3.5-4.3,2.3-6.8c-1.2-2.5-4.2-3.5-6.8-2.3c-2.5,1.2-3.5,4.3-2.3,6.8
				C17.9,28.1,21,29.1,23.5,27.9z M82.1,34.2c0.8-0.4,1.1-1.3,0.7-2c-0.4-0.7-1.3-1.1-2-0.7c-0.7,0.4-1.1,1.3-0.7,2
				C80.5,34.3,81.4,34.6,82.1,34.2z"/>
			<path id="_x23__4_1_" fill="#2669B2" d="M58.8,60.2c-1.2-2.5-0.2-5.5,2.3-6.8c2.5-1.2,5.5-0.2,6.8,2.3c1.2,2.5,0.2,5.5-2.3,6.8
				C63.1,63.7,60,62.7,58.8,60.2z M37.8,68.7c2.5-1.2,3.5-4.3,2.3-6.8c-1.2-2.5-4.3-3.5-6.8-2.3c-2.5,1.2-3.5,4.3-2.3,6.8
				C32.2,68.8,35.3,69.9,37.8,68.7z M62.7,95.7c1.8-0.9,2.5-3,1.6-4.8c-0.9-1.8-3-2.5-4.8-1.6c-1.8,0.9-2.5,3-1.6,4.7
				C58.8,95.8,60.9,96.6,62.7,95.7z M74,31c3.3-1.6,4.6-5.5,3-8.8c-1.6-3.2-5.5-4.6-8.8-3c-3.3,1.6-4.6,5.5-3,8.8
				C66.9,31.3,70.8,32.6,74,31z M19.8,64.6c2.3-1.1,3.3-3.9,2.1-6.2c-1.1-2.3-3.9-3.3-6.2-2.1c-2.3,1.1-3.3,3.9-2.1,6.2
				C14.7,64.7,17.5,65.7,19.8,64.6z M14.6,77c1.8-0.9,2.6-3.1,1.7-5c-0.9-1.8-3.1-2.6-5-1.7c-1.8,0.9-2.6,3.1-1.7,5
				C10.6,77.1,12.8,77.9,14.6,77z M62,86.2c2.2-1.1,3.2-3.8,2.1-6c-1.1-2.2-3.8-3.2-6-2.1c-2.2,1.1-3.2,3.8-2.1,6
				C57,86.3,59.7,87.3,62,86.2z M48.2,25.2c2.5-1.2,3.5-4.3,2.3-6.8c-1.2-2.5-4.3-3.5-6.8-2.3c-2.5,1.2-3.5,4.3-2.3,6.8
				C42.7,25.4,45.7,26.4,48.2,25.2z M55.4,12.4c2.1-1,3-3.6,1.9-5.7c-1-2.1-3.6-3-5.7-1.9c-2.1,1-3,3.6-1.9,5.7
				C50.8,12.6,53.3,13.5,55.4,12.4z"/>
			<path id="_x23__5_1_" fill="#3CA5DD" d="M48.2,35.4c-0.7-1.5-0.1-3.3,1.4-4c1.5-0.7,3.3-0.1,4,1.4c0.7,1.5,0.1,3.3-1.4,4
				C50.7,37.5,48.9,36.9,48.2,35.4z M75.6,18.7c0.7,1.5,2.5,2.1,4,1.4c1.5-0.7,2.1-2.5,1.4-4c-0.7-1.5-2.5-2.1-4-1.4
				C75.5,15.4,74.9,17.2,75.6,18.7z M33.2,10.2c-0.8-1.6-2.8-2.3-4.4-1.5c-1.6,0.8-2.3,2.8-1.5,4.4c0.8,1.6,2.8,2.3,4.4,1.5
				C33.3,13.8,34,11.9,33.2,10.2z M78.3,66.1c1.8-0.9,2.5-3,1.6-4.8c-0.9-1.8-3-2.5-4.8-1.6c-1.8,0.9-2.5,3-1.6,4.7
				C74.4,66.3,76.5,67,78.3,66.1z M30.1,89.7c3.6-1.8,5.1-6.1,3.3-9.7c-1.8-3.6-6.1-5.1-9.7-3.3c-3.6,1.8-5.1,6.1-3.3,9.7
				C22.2,89.9,26.5,91.4,30.1,89.7z M28.2,62.2c1.1-0.5,1.5-1.8,1-2.9c-0.5-1.1-1.8-1.5-2.9-1c-1.1,0.5-1.5,1.8-1,2.9
				C25.8,62.2,27.1,62.7,28.2,62.2z M53,90.2c1.2-0.6,1.6-2,1.1-3.1c-0.6-1.2-2-1.6-3.1-1.1c-1.1,0.6-1.6,2-1.1,3.1
				C50.5,90.3,51.8,90.8,53,90.2z M42.4,75.8c1.6-0.8,2.2-2.6,1.4-4.2c-0.8-1.6-2.6-2.2-4.2-1.4c-1.6,0.8-2.2,2.6-1.4,4.2
				C39,75.9,40.9,76.6,42.4,75.8z M31.3,26.4c0.6-0.3,0.9-1,0.6-1.6c-0.3-0.6-1-0.9-1.6-0.6c-0.6,0.3-0.9,1-0.6,1.6
				C30,26.4,30.7,26.7,31.3,26.4z M39.9,44c1.3-0.6,1.9-2.2,1.2-3.6c-0.6-1.3-2.2-1.9-3.6-1.2s-1.9,2.3-1.2,3.6
				C37,44.1,38.6,44.6,39.9,44z M73,91.6c1.3-0.6,1.9-2.2,1.2-3.6c-0.6-1.3-2.2-1.9-3.6-1.2c-1.3,0.6-1.9,2.2-1.2,3.6
				C70,91.7,71.6,92.2,73,91.6z M45.3,65.4c1.2-0.6,1.7-2.1,1.1-3.3c-0.6-1.2-2.1-1.7-3.3-1.1c-1.2,0.6-1.7,2.1-1.1,3.3
				C42.6,65.5,44.1,66,45.3,65.4z"/>
			<circle fill="#F16622" cx="78.1" cy="51" r="7.5"/>
			<path fill="#F16622" d="M92.6,54.1c1.8-0.9,2.5-3,1.6-4.7c-0.9-1.8-3-2.5-4.8-1.6c-1.8,0.9-2.5,3-1.6,4.8
				C88.7,54.2,90.9,55,92.6,54.1z"/>
		</g>
	</g>
</g>
</svg>
